<svg xmlns="http://www.w3.org/2000/svg" width="50.002" height="32.76" viewBox="0 0 50.002 32.76"><defs><style>.a{fill:#41479b;}.b{fill:#f5f5f5;}.c{fill:#ff4b55;}</style></defs><g transform="translate(0 -88.276)"><path class="a" d="M49.14,121.036H.862A.862.862,0,0,1,0,120.174V89.138a.862.862,0,0,1,.862-.862H49.14a.862.862,0,0,1,.862.862v31.036A.862.862,0,0,1,49.14,121.036Z"/><path class="b" d="M50,89.138a.862.862,0,0,0-.862-.862H45.283L29.311,98.74V88.276H20.69V98.74L4.719,88.276H.862A.862.862,0,0,0,0,89.138v2.23l13.7,8.978H0v8.621H13.7L0,117.944v2.23a.862.862,0,0,0,.862.862H4.719L20.69,110.572v10.464h8.621V110.572l15.971,10.464H49.14a.862.862,0,0,0,.862-.862v-2.23l-13.7-8.978H50v-8.621H36.3L50,91.368Z"/><g transform="translate(0 88.276)"><path class="c" d="M50,102.07H27.587V88.276H22.415V102.07H0v5.173H22.415v13.794h5.173V107.242H50Z" transform="translate(0 -88.276)"/><path class="c" d="M17.7,300.138.25,311.466a.851.851,0,0,0,.838.741H2.275l18.593-12.069H17.7Z" transform="translate(-0.226 -279.448)"/><path class="c" d="M317.127,300.138H313.96l18.566,12.052a.854.854,0,0,0,.774-.844v-.709Z" transform="translate(-283.299 -279.448)"/><path class="c" d="M0,90.867l15.8,10.256h3.167L.5,89.137a.859.859,0,0,0-.5.778Z" transform="translate(0 -89.053)"/><path class="c" d="M303.3,100.346,320.8,88.991a.85.85,0,0,0-.832-.714h-1.235l-18.593,12.069Z" transform="translate(-270.827 -88.277)"/></g></g></svg>