<svg width="20" height="20" viewBox="0 0 20 20" fill="none" xmlns="http://www.w3.org/2000/svg">
<g id="account">
<path id="Vector" d="M9.9987 3.3335C10.8828 3.3335 11.7306 3.68469 12.3557 4.30981C12.9808 4.93493 13.332 5.78277 13.332 6.66683C13.332 7.55088 12.9808 8.39873 12.3557 9.02385C11.7306 9.64897 10.8828 10.0002 9.9987 10.0002C9.11464 10.0002 8.2668 9.64897 7.64167 9.02385C7.01655 8.39873 6.66536 7.55088 6.66536 6.66683C6.66536 5.78277 7.01655 4.93493 7.64167 4.30981C8.2668 3.68469 9.11464 3.3335 9.9987 3.3335ZM9.9987 11.6668C13.682 11.6668 16.6654 13.1585 16.6654 15.0002V16.6668H3.33203V15.0002C3.33203 13.1585 6.31536 11.6668 9.9987 11.6668Z" fill="#7255DB"/>
</g>
</svg>
