<svg width="24" height="16" viewBox="0 0 24 16" fill="none" xmlns="http://www.w3.org/2000/svg">
<g id="Frame">
<g id="Group">
<path id="Vector" d="M22 0H2C0.89543 0 0 0.89543 0 2V14C0 15.1046 0.89543 16 2 16H22C23.1046 16 24 15.1046 24 14V2C24 0.89543 23.1046 0 22 0Z" fill="#016FD0"/>
<path id="Vector_2" fill-rule="evenodd" clip-rule="evenodd" d="M13.764 13.3938V7.69238L23.9116 7.70149V9.27638L22.7387 10.5298L23.9116 11.7947V13.403H22.039L21.0438 12.3048L20.0557 13.4071L13.764 13.3938Z" fill="#FFFFFE"/>
<path id="Vector_3" fill-rule="evenodd" clip-rule="evenodd" d="M14.4418 12.7687V8.31982H18.2141V9.34471H15.6632V10.0404H18.1533V11.0482H15.6632V11.7315H18.2141V12.7687H14.4418Z" fill="#016FD0"/>
<path id="Vector_4" fill-rule="evenodd" clip-rule="evenodd" d="M18.1953 12.7689L20.2826 10.5419L18.1952 8.32007H19.8108L21.0863 9.7301L22.3654 8.32007H23.9116V8.35507L21.8687 10.5419L23.9116 12.7057V12.7689H22.3499L21.0518 11.3447L19.767 12.7689H18.1953Z" fill="#016FD0"/>
<path id="Vector_5" fill-rule="evenodd" clip-rule="evenodd" d="M14.2374 2.63184H16.6834L17.5426 4.58269V2.63184H20.5624L21.0832 4.09341L21.6057 2.63184H23.9116V8.33323H11.7251L14.2374 2.63184Z" fill="#FFFFFE"/>
<g id="Group_2">
<path id="Vector_6" fill-rule="evenodd" clip-rule="evenodd" d="M14.7005 3.25146L12.7264 7.69664H14.0803L14.4528 6.80647H16.4707L16.8429 7.69664H18.2304L16.2647 3.25146H14.7005ZM14.8701 5.8089L15.4621 4.39383L16.0536 5.8089H14.8701Z" fill="#016FD0"/>
<path id="Vector_7" fill-rule="evenodd" clip-rule="evenodd" d="M18.212 7.69582V3.25073L20.1151 3.25727L21.0944 5.99L22.08 3.25073H23.9116V7.69582L22.733 7.70625V4.6529L21.6204 7.69582H20.5446L19.409 4.64247V7.69582H18.212Z" fill="#016FD0"/>
</g>
</g>
</g>
</svg>
