<svg width="20" height="20" viewBox="0 0 20 20" fill="none" xmlns="http://www.w3.org/2000/svg">
<g id="camera">
<path id="Vector" d="M3.33073 3.33317H5.83073L7.4974 1.6665H12.4974L14.1641 3.33317H16.6641C17.1061 3.33317 17.53 3.50877 17.8426 3.82133C18.1551 4.13389 18.3307 4.55781 18.3307 4.99984V14.9998C18.3307 15.4419 18.1551 15.8658 17.8426 16.1783C17.53 16.4909 17.1061 16.6665 16.6641 16.6665H3.33073C2.8887 16.6665 2.46478 16.4909 2.15222 16.1783C1.83966 15.8658 1.66406 15.4419 1.66406 14.9998V4.99984C1.66406 4.55781 1.83966 4.13389 2.15222 3.82133C2.46478 3.50877 2.8887 3.33317 3.33073 3.33317ZM9.9974 5.83317C8.89233 5.83317 7.83252 6.27216 7.05112 7.05356C6.26972 7.83496 5.83073 8.89477 5.83073 9.99984C5.83073 11.1049 6.26972 12.1647 7.05112 12.9461C7.83252 13.7275 8.89233 14.1665 9.9974 14.1665C11.1025 14.1665 12.1623 13.7275 12.9437 12.9461C13.7251 12.1647 14.1641 11.1049 14.1641 9.99984C14.1641 8.89477 13.7251 7.83496 12.9437 7.05356C12.1623 6.27216 11.1025 5.83317 9.9974 5.83317ZM9.9974 7.49984C10.6604 7.49984 11.2963 7.76323 11.7652 8.23207C12.234 8.70091 12.4974 9.3368 12.4974 9.99984C12.4974 10.6629 12.234 11.2988 11.7652 11.7676C11.2963 12.2364 10.6604 12.4998 9.9974 12.4998C9.33435 12.4998 8.69847 12.2364 8.22963 11.7676C7.76079 11.2988 7.4974 10.6629 7.4974 9.99984C7.4974 9.3368 7.76079 8.70091 8.22963 8.23207C8.69847 7.76323 9.33435 7.49984 9.9974 7.49984Z" fill="#474747"/>
</g>
</svg>
