<svg width="104" height="104" viewBox="0 0 104 104" fill="none" xmlns="http://www.w3.org/2000/svg">
<path id="Vector" d="M52.0026 0.332031C80.4193 0.332031 103.669 23.582 103.669 51.9987C103.669 80.4154 80.4193 103.665 52.0026 103.665C23.5859 103.665 0.335938 80.4154 0.335938 51.9987C0.335938 23.582 23.5859 0.332031 52.0026 0.332031ZM52.0026 10.6654C42.1859 10.6654 33.4026 13.7654 26.6859 19.4487L84.5526 77.3154C89.7193 70.082 93.3359 61.2987 93.3359 51.9987C93.3359 29.2654 74.7359 10.6654 52.0026 10.6654ZM77.3193 84.5487L19.4526 26.682C13.7693 33.3987 10.6693 42.182 10.6693 51.9987C10.6693 74.732 29.2693 93.332 52.0026 93.332C61.8193 93.332 70.6026 90.232 77.3193 84.5487Z" fill="#C22222"/>
</svg>
