<svg width="24" height="25" viewBox="0 0 24 25" fill="none" xmlns="http://www.w3.org/2000/svg">
<g id="car-windshield">
<path id="Vector" d="M22.63 15.9998L20.21 6.34979C20.1512 6.11723 20.0109 5.91353 19.8144 5.77586C19.618 5.63818 19.3787 5.57569 19.14 5.59979C17.8 5.73979 14.14 5.99979 12 5.99979C9.86 5.99979 6.2 5.73979 4.86 5.59979C4.62134 5.57569 4.38198 5.63818 4.18556 5.77586C3.98914 5.91353 3.84875 6.11723 3.79 6.34979L1.37 15.9998C1.31697 16.1997 1.30588 16.4085 1.33742 16.613C1.36896 16.8174 1.44245 17.0131 1.55327 17.1878C1.66409 17.3625 1.80985 17.5124 1.98138 17.628C2.15291 17.7437 2.3465 17.8226 2.55 17.8598C5.67886 18.3157 8.83823 18.5297 12 18.4998C15.1618 18.5297 18.3211 18.3157 21.45 17.8598C21.6535 17.8226 21.8471 17.7437 22.0186 17.628C22.1901 17.5124 22.3359 17.3625 22.4467 17.1878C22.5575 17.0131 22.631 16.8174 22.6626 16.613C22.6941 16.4085 22.683 16.1997 22.63 15.9998Z" fill="#7255DB"/>
</g>
</svg>
