<svg width="20" height="21" viewBox="0 0 20 21" fill="none" xmlns="http://www.w3.org/2000/svg">
<g id="clock">
<path id="Vector" d="M10.0003 2.16699C8.90598 2.16699 7.82234 2.38254 6.8113 2.80133C5.80025 3.22012 4.88159 3.83395 4.10777 4.60777C2.54497 6.17057 1.66699 8.29019 1.66699 10.5003C1.66699 12.7105 2.54497 14.8301 4.10777 16.3929C4.88159 17.1667 5.80025 17.7805 6.8113 18.1993C7.82234 18.6181 8.90598 18.8337 10.0003 18.8337C12.2105 18.8337 14.3301 17.9557 15.8929 16.3929C17.4557 14.8301 18.3337 12.7105 18.3337 10.5003C18.3337 9.40598 18.1181 8.32234 17.6993 7.3113C17.2805 6.30025 16.6667 5.38159 15.8929 4.60777C15.1191 3.83395 14.2004 3.22012 13.1894 2.80133C12.1783 2.38254 11.0947 2.16699 10.0003 2.16699ZM13.5003 14.0003L9.16699 11.3337V6.33366H10.417V10.667L14.167 12.917L13.5003 14.0003Z" fill="#C1C1C3"/>
</g>
</svg>
