<svg width="82" height="20" viewBox="0 0 82 20" fill="none" xmlns="http://www.w3.org/2000/svg">
<g id="Logo">
<g id="Group">
<path id="Vector" d="M20.0901 2.52247C19.8558 2.69364 19.7027 2.97292 19.6216 3.36932L19.6036 3.4504L22.1621 3.46842L21.7027 5.61256L19.1261 5.59454L17.7297 11.9819L15.1081 11.9639L17.027 3.19814C17.2252 2.24319 17.6757 1.49544 18.3513 0.963908C19.036 0.432377 19.8649 0.162107 20.8378 0.171116C21.3423 0.171116 21.8018 0.225171 22.2072 0.306252C22.6216 0.387333 22.9369 0.486433 23.1802 0.594541L22.3784 2.54949C21.9459 2.36931 21.4775 2.27922 20.973 2.27922C20.6126 2.27022 20.3153 2.3513 20.0901 2.52247Z" fill="#4285F4"/>
<path id="Vector_2" d="M23.955 12.018L21.3514 12L23.2253 3.46847L25.8379 3.48649L23.955 12.018ZM23.8649 2.45045C23.6487 2.23423 23.5406 1.95495 23.5406 1.61261C23.5406 1.14414 23.7117 0.747748 24.0541 0.450451C24.3874 0.144144 24.7748 0 25.2253 0C25.5856 0 25.8649 0.108109 26.0811 0.324325C26.2883 0.540541 26.3964 0.819819 26.3874 1.16216C26.3874 1.63063 26.2162 2.01802 25.8829 2.32432C25.5496 2.62162 25.1622 2.77477 24.7117 2.77477C24.3604 2.76577 24.0811 2.65766 23.8649 2.45045Z" fill="#4285F4"/>
<path id="Vector_3" d="M33.2432 3.53137L36.3153 3.54939L32.2072 7.67552L34.6486 12.0809L31.7477 12.0629L30.2973 9.38723L27.6847 12.0359L24.7027 12.0179L29.0991 7.60345L26.8288 3.48633L29.8378 3.50435L31.027 5.90074L33.2432 3.53137Z" fill="#4285F4"/>
<path id="Vector_4" d="M35.8469 11.91C35.6126 11.6757 35.5045 11.3604 35.5045 10.982C35.5045 10.4595 35.6937 10.0271 36.0631 9.69374C36.4415 9.3604 36.8649 9.19824 37.3604 9.19824C37.7478 9.19824 38.0631 9.31536 38.2973 9.5586C38.5315 9.79284 38.6487 10.1082 38.6487 10.4865C38.6487 11.0091 38.4595 11.4415 38.0901 11.7748C37.7207 12.1082 37.2883 12.2703 36.7928 12.2703C36.3874 12.2613 36.0721 12.1442 35.8469 11.91Z" fill="#4285F4"/>
<path id="Vector_5" d="M44.8919 9.90135C44.5045 10.1086 44.0901 10.2167 43.6576 10.2167C43.054 10.2167 42.5946 10.0365 42.2703 9.69414C41.9459 9.34279 41.7838 8.87432 41.7838 8.27972C41.7838 7.81126 41.9009 7.37882 42.1351 6.9554C42.3694 6.54098 42.6667 6.20765 43.054 5.96441C43.4324 5.71215 43.8468 5.58603 44.2883 5.59504C45.1531 5.60405 45.7748 5.93738 46.1802 6.61306L48.054 5.20765C47.7027 4.6581 47.2342 4.22567 46.6576 3.91035C46.0721 3.59504 45.4054 3.43288 44.6306 3.43288C43.6216 3.42387 42.7027 3.64909 41.8649 4.11756C41.027 4.57702 40.3784 5.20765 39.9009 5.98243C39.4234 6.76621 39.1802 7.61306 39.1802 8.51396C39.1712 9.27972 39.3333 9.9554 39.6576 10.532C39.982 11.1086 40.4414 11.55 41.036 11.8563C41.6306 12.1716 42.3153 12.3248 43.0991 12.3338C43.5495 12.3338 43.991 12.2617 44.4234 12.0995L42.6937 19.9824L45.009 20.0004L47.6306 8.00044L45.3153 7.98243L44.8919 9.90135Z" fill="#4285F4"/>
<path id="Vector_6" d="M50.955 12.1891L48.3514 12.1711L50.8469 0.801758L53.4505 0.819777L50.955 12.1891Z" fill="#4285F4"/>
<path id="Vector_7" d="M60.946 3.99065C61.5676 4.30597 62.0451 4.74741 62.3784 5.32399C62.7117 5.89155 62.8739 6.53119 62.8649 7.26092C62.8649 7.53119 62.8288 7.82849 62.7658 8.15282L61.8829 12.2519L59.5225 12.2339L59.6577 11.3871C58.9369 12.0717 58.0721 12.4051 57.0721 12.4051C56.3243 12.4051 55.6577 12.2339 55.0811 11.9186C54.4955 11.6033 54.0451 11.1528 53.7297 10.5762C53.4144 9.99966 53.2523 9.35101 53.2523 8.62128C53.2613 7.70236 53.5045 6.85552 53.982 6.07173C54.4595 5.28795 55.1171 4.66633 55.946 4.18885C56.7748 3.72038 57.7027 3.49516 58.7297 3.50417C59.5766 3.51318 60.3153 3.67534 60.946 3.99065ZM59.036 9.80146C59.4054 9.54921 59.6847 9.21588 59.8829 8.81047C60.0811 8.40507 60.1802 7.99065 60.1802 7.57624C60.1802 6.99966 60.018 6.54921 59.6937 6.2339C59.3604 5.91858 58.9189 5.75642 58.3604 5.74741C57.9009 5.74741 57.4775 5.86453 57.1171 6.09876C56.7568 6.342 56.4685 6.65732 56.2523 7.05372C56.0451 7.45011 55.9369 7.87354 55.9369 8.34201C55.9369 8.91858 56.0991 9.36903 56.4234 9.69336C56.7478 10.0177 57.1982 10.1889 57.7658 10.1889C58.2433 10.1798 58.6667 10.0537 59.036 9.80146Z" fill="#4285F4"/>
<path id="Vector_8" d="M65.1172 12.1439C64.4685 11.9277 63.8829 11.6575 63.3784 11.3241L64.3514 9.62142C65.3604 10.207 66.3964 10.4953 67.4595 10.5043C67.8469 10.5043 68.1622 10.4502 68.4325 10.3421C68.6937 10.243 68.8289 10.0719 68.8289 9.84665C68.8289 9.63043 68.7208 9.45926 68.5045 9.34214C68.2883 9.22502 67.8919 9.10791 67.3154 8.99079C65.3964 8.63043 64.4415 7.78358 64.4415 6.45926C64.4415 5.97277 64.5766 5.51331 64.8469 5.07187C65.1172 4.63043 65.5226 4.27007 66.0901 3.99079C66.6487 3.71151 67.3604 3.57637 68.2253 3.58538C69.7118 3.59439 70.982 3.93673 72.0271 4.62142L70.8739 6.26106C70.0721 5.79259 69.1622 5.55836 68.1622 5.54935C67.4235 5.54034 67.0541 5.72953 67.0451 6.11692C67.0451 6.28809 67.1352 6.43223 67.3154 6.52232C67.4955 6.62142 67.8649 6.73854 68.4235 6.85566C69.4505 7.07187 70.1982 7.38719 70.6667 7.8016C71.1352 8.22503 71.3694 8.77457 71.3694 9.45025C71.3694 9.96376 71.2163 10.4502 70.937 10.9187C70.6487 11.3782 70.1892 11.7566 69.5676 12.0358C68.937 12.3241 68.1352 12.4683 67.1622 12.4593C66.4595 12.4683 65.7748 12.3602 65.1172 12.1439Z" fill="#4285F4"/>
<path id="Vector_9" d="M74.1712 12.1984C73.5225 11.9822 72.9369 11.7119 72.4324 11.3786L73.4054 9.67589C74.4144 10.2615 75.4505 10.5498 76.5135 10.5588C76.9009 10.5588 77.2162 10.5137 77.4865 10.4056C77.7477 10.2975 77.8829 10.1353 77.8829 9.91012C77.8829 9.69391 77.7748 9.52273 77.5586 9.40562C77.3423 9.2885 76.946 9.17138 76.3694 9.05427C74.4505 8.69391 73.4955 7.84706 73.4955 6.52273C73.4955 6.03625 73.6306 5.57679 73.9009 5.13535C74.1712 4.69391 74.5766 4.33354 75.1441 4.05427C75.7027 3.77499 76.4144 3.63985 77.2793 3.64886C78.7658 3.65787 80.036 4.00021 81.0811 4.6849L79.9279 6.32453C79.1261 5.85607 78.2162 5.62183 77.2162 5.61282C76.4775 5.60381 76.1081 5.793 76.0991 6.18039C76.0991 6.35156 76.1892 6.49571 76.3694 6.5858C76.5496 6.6849 76.9189 6.80201 77.4775 6.91913C78.5045 7.13535 79.2523 7.45066 79.7207 7.86508C80.1892 8.2885 80.4234 8.83805 80.4234 9.51373C80.4234 10.0272 80.2703 10.5137 79.991 10.9732C79.7027 11.4326 79.2432 11.811 78.6216 12.0993C77.991 12.3876 77.1892 12.5317 76.2162 12.5227C75.5135 12.5227 74.8288 12.4146 74.1712 12.1984Z" fill="#4285F4"/>
<g id="Group_2">
<g id="Group_3">
<g id="Group_4">
<path id="Vector_10" d="M17.1982 0.162109L7.68467 14.1891H5.24323L14.7567 0.162109H17.1982Z" fill="#4285F4"/>
</g>
<g id="Group_5">
<path id="Vector_11" d="M11.8288 0.162109L2.44144 14.1891H0L9.38739 0.162109H11.8288Z" fill="#4285F4"/>
</g>
</g>
</g>
</g>
</g>
</svg>
