<svg width="24" height="16" viewBox="0 0 24 16" fill="none" xmlns="http://www.w3.org/2000/svg">
<g id="Frame">
<g id="319">
<g id="New-Icons">
<g id="Card-Brands">
<g id="Color">
<g id="Discover">
<path id="shape" d="M21.9972 15.7499L21.9994 15.7499C22.9545 15.7581 23.7381 14.9773 23.75 14.0042L23.75 2.0063C23.7462 1.53569 23.5589 1.08617 23.2297 0.756802C22.9014 0.428269 22.4589 0.246149 21.9972 0.250071L2.00064 0.250062C1.54109 0.246149 1.09858 0.428269 0.770279 0.756802C0.441145 1.08617 0.253838 1.53569 0.250008 2.00426L0.25 13.9937C0.253838 14.4643 0.441145 14.9138 0.770279 15.2432C1.09858 15.5717 1.54109 15.7538 2.00277 15.7499H21.9972ZM21.9962 16.2499C21.9958 16.2499 21.9955 16.2499 21.9951 16.2499L21.9972 16.2499H21.9962Z" fill="white" stroke="black" stroke-opacity="0.2" stroke-width="0.5"/>
<path id="shape_2" d="M12.6124 15.9999H21.9973C22.524 16.0043 23.031 15.7993 23.4066 15.4299C23.7822 15.0605 23.9956 14.557 24 14.0303V11.6716C20.4562 13.7059 16.6128 15.1668 12.6124 15.9999Z" fill="#F27712"/>
<path id="shape_3" d="M23.1724 9.29643H22.32L21.36 8.03023H21.269V9.29643H20.5738V6.15161H21.6C22.4027 6.15161 22.8662 6.48264 22.8662 7.0785C22.8662 7.56678 22.5765 7.88126 22.0552 7.98057L23.1724 9.29643ZM22.1462 7.10333C22.1462 6.79712 21.9145 6.63988 21.4841 6.63988H21.269V7.59161H21.4676C21.9145 7.59161 22.1462 7.42609 22.1462 7.10333ZM18.1407 6.15161H20.1103V6.68126H18.8358V7.38471H20.0607V7.92264H18.8358V8.77505H20.1103V9.30471H18.1407V6.15161ZM15.9062 9.37919L14.4 6.14333H15.1614L16.1131 8.26195L17.0731 6.14333H17.8179L16.2952 9.37919H15.9227H15.9062ZM9.60826 9.37092C8.54895 9.37092 7.72137 8.65092 7.72137 7.71574C7.72137 6.8054 8.56551 6.06885 9.62482 6.06885C9.92275 6.06885 10.171 6.12678 10.4772 6.25919V6.98747C10.2453 6.75965 9.93334 6.63187 9.60826 6.63161C8.9462 6.63161 8.44137 7.11161 8.44137 7.71574C8.44137 8.35299 8.93792 8.80816 9.64137 8.80816C9.95585 8.80816 10.1959 8.70885 10.4772 8.46057V9.18885C10.1627 9.32126 9.89792 9.37092 9.60826 9.37092ZM7.5062 8.33643C7.5062 8.94885 7.00137 9.37092 6.27309 9.37092C5.74344 9.37092 5.36275 9.18885 5.03999 8.77505L5.49516 8.38609C5.6524 8.66747 5.91723 8.80816 6.24827 8.80816C6.56275 8.80816 6.7862 8.61781 6.7862 8.36954C6.7862 8.22885 6.71999 8.12126 6.5793 8.0385C6.42504 7.96365 6.2644 7.90271 6.0993 7.85643C5.44551 7.64954 5.22206 7.42609 5.22206 6.98747C5.22206 6.47436 5.70206 6.0854 6.33102 6.0854C6.72827 6.0854 7.08413 6.20954 7.38206 6.44126L7.01792 6.85505C6.8736 6.69683 6.66932 6.60671 6.45516 6.60678C6.15723 6.60678 5.94206 6.75574 5.94206 6.95436C5.94206 7.11988 6.0662 7.21092 6.47999 7.35161C7.27447 7.59988 7.5062 7.83161 7.5062 8.34471V8.33643ZM4.08827 6.15161H4.78344V9.30471H4.08827V6.15161ZM1.85378 9.30471H0.827576V6.15161H1.85378C2.9793 6.15161 3.75723 6.79712 3.75723 7.72402C3.75723 8.19574 3.52551 8.64264 3.11999 8.94057C2.7724 9.18885 2.38344 9.30471 1.84551 9.30471H1.85378ZM2.66482 6.93781C2.43309 6.75574 2.16827 6.68954 1.71309 6.68954H1.52275V8.77505H1.71309C2.15999 8.77505 2.44137 8.6923 2.66482 8.52678C2.90482 8.32816 3.04551 8.03023 3.04551 7.72402C3.04551 7.41781 2.90482 7.12816 2.66482 6.93781Z" fill="black"/>
<path id="shape_4" d="M12.4138 6.06885C11.5034 6.06885 10.7586 6.79712 10.7586 7.69919C10.7586 8.65919 11.4703 9.37919 12.4138 9.37919C13.3407 9.37919 14.069 8.65092 14.069 7.72402C14.069 6.79712 13.349 6.06885 12.4138 6.06885Z" fill="#F27712"/>
</g>
</g>
</g>
</g>
</g>
</g>
</svg>
