<svg width="32" height="32" viewBox="0 0 32 32" fill="none" xmlns="http://www.w3.org/2000/svg">
<path d="M16.583 12.345C16.583 12.0275 16.3255 11.77 16.008 11.77C15.6904 11.77 15.433 12.0275 15.433 12.345V14.72C15.433 15.0376 15.6904 15.295 16.008 15.295C16.3255 15.295 16.583 15.0376 16.583 14.72V12.345Z" fill="#FFA94D"/>
<path d="M10.3021 14.4572C10.0775 14.2326 9.71344 14.2326 9.48889 14.4572C9.26434 14.6817 9.26434 15.0458 9.48889 15.2704L11.1764 16.9579C11.4009 17.1824 11.765 17.1824 11.9896 16.9579C12.2141 16.7333 12.2141 16.3692 11.9896 16.1447L10.3021 14.4572Z" fill="#FFA94D"/>
<path d="M22.5286 14.4649C22.7523 14.6903 22.7509 15.0544 22.5255 15.2781L20.838 16.9531C20.6127 17.1768 20.2486 17.1755 20.0249 16.9501C19.8012 16.7247 19.8025 16.3606 20.0279 16.1369L21.7154 14.4619C21.9408 14.2382 22.3049 14.2396 22.5286 14.4649Z" fill="#FFA94D"/>
<path d="M11.5721 19.7144H20.4434C19.8996 17.7804 18.1186 16.3638 16.0078 16.3638C13.897 16.3638 12.1159 17.7804 11.5721 19.7144Z" fill="#FFA94D"/>
<path fill-rule="evenodd" clip-rule="evenodd" d="M7.4375 21.3372C7.4375 21.0265 7.68934 20.7747 8 20.7747H24C24.3107 20.7747 24.5625 21.0265 24.5625 21.3372C24.5625 21.6479 24.3107 21.8997 24 21.8997H8C7.68934 21.8997 7.4375 21.6479 7.4375 21.3372Z" fill="#081F44"/>
</svg>
