<svg xmlns="http://www.w3.org/2000/svg" width="260" height="64" viewBox="0 0 260 64" fill="none">
  <g opacity="0.15">
    <path d="M64.3167 8.07572C63.5668 8.62371 63.0765 9.51781 62.8169 10.7868L62.7593 11.0464L70.9503 11.1041L69.4794 17.9685L61.2306 17.9108L56.7602 38.3596L48.3672 38.302L54.5105 10.2389C55.145 7.18162 56.5871 4.78774 58.7502 3.08608C60.9422 1.38441 63.5957 0.519158 66.7106 0.548C68.3257 0.548 69.7967 0.721051 71.0945 0.980628C72.4213 1.2402 73.4307 1.55747 74.2095 1.90357L71.6425 8.16224C70.2581 7.5854 68.7584 7.29699 67.1432 7.29699C65.9895 7.26814 65.0378 7.52772 64.3167 8.07572Z" fill="white"/>
    <path d="M76.6908 38.475L68.3555 38.4173L74.3546 11.1041L82.7187 11.1618L76.6908 38.475ZM76.4023 7.84497C75.7101 7.15277 75.364 6.25867 75.364 5.16268C75.364 3.66291 75.912 2.39387 77.008 1.44209C78.0752 0.461469 79.3154 0 80.7575 0C81.9111 0 82.8052 0.346104 83.4974 1.03831C84.1608 1.73051 84.5069 2.6246 84.478 3.72059C84.478 5.22037 83.93 6.46057 82.8629 7.44119C81.7958 8.39297 80.5556 8.88328 79.1135 8.88328C77.9886 8.85444 77.0945 8.50833 76.4023 7.84497Z" fill="white"/>
    <path d="M106.426 11.306L116.261 11.3637L103.109 24.5732L110.925 38.6769L101.638 38.6192L96.9948 30.0532L88.6307 38.5327L79.0841 38.475L93.1589 24.3425L85.8907 11.1618L95.5239 11.2195L99.331 18.8914L106.426 11.306Z" fill="white"/>
    <path d="M114.762 38.1289C114.012 37.379 113.666 36.3695 113.666 35.1582C113.666 33.4854 114.272 32.101 115.454 31.0338C116.666 29.9667 118.021 29.4475 119.607 29.4475C120.848 29.4475 121.857 29.8225 122.607 30.6012C123.357 31.3511 123.732 32.3605 123.732 33.5719C123.732 35.2447 123.126 36.6291 121.944 37.6963C120.761 38.7634 119.377 39.2826 117.79 39.2826C116.493 39.2537 115.483 38.8788 114.762 38.1289Z" fill="white"/>
    <path d="M137.835 19.0933C139.046 18.3145 140.373 17.8819 141.786 17.9108C144.555 17.9396 146.574 19.0067 147.843 21.1699L153.842 16.6705C152.717 14.9112 151.217 13.5268 149.372 12.5173C147.497 11.5079 145.334 10.9887 142.882 10.9887C139.652 10.9599 136.71 11.6809 134.028 13.1807C131.345 14.6516 129.24 16.6706 127.74 19.1509C126.212 21.689 125.433 24.3713 125.433 27.2555C125.404 29.7071 125.923 31.8702 126.961 33.7161C128 35.5619 129.471 36.9752 131.374 37.9558C133.278 38.9653 135.47 39.4556 137.979 39.4844C139.45 39.4844 140.834 39.2537 142.219 38.7346L136.681 63.9711L144.093 64L152.486 25.5827L145.074 25.5538L143.747 31.726C142.507 32.3893 141.18 32.7354 139.796 32.7354C137.864 32.7354 136.393 32.1586 135.354 31.0626C134.316 29.9378 133.768 28.438 133.797 26.5345C133.797 25.0347 134.172 23.6214 134.922 22.2947C135.643 20.9391 136.623 19.872 137.835 19.0933Z" fill="white"/>
    <path d="M162.784 2.56689L154.795 38.9653L163.13 39.023L171.119 2.62458L162.784 2.56689Z" fill="white"/>
    <path d="M199.701 17.0166C198.634 15.1996 197.134 13.7575 195.115 12.748C193.096 11.7386 190.731 11.2194 187.991 11.1906C184.703 11.1617 181.732 11.9116 179.079 13.3826C176.425 14.8823 174.32 16.9013 172.791 19.4105C171.263 21.9197 170.484 24.6309 170.455 27.5728C170.455 29.9089 170.945 31.9855 171.984 33.8314C172.993 35.6485 174.435 37.0905 176.31 38.1289C178.156 39.1672 180.29 39.6863 182.684 39.6863C185.885 39.7152 188.625 38.6192 190.962 36.4272L190.529 39.1383L198.086 39.196L200.912 26.073C201.114 25.0058 201.229 24.054 201.229 23.2176C201.258 20.9103 200.739 18.8337 199.701 17.0166ZM191.712 28.2073C191.077 29.5051 190.183 30.5723 189 31.3799C187.818 32.1874 186.491 32.5912 184.934 32.5912C183.117 32.5912 181.675 32.0432 180.636 31.0049C179.598 29.9666 179.079 28.5245 179.079 26.6787C179.079 25.2077 179.425 23.8521 180.088 22.5543C180.752 21.2852 181.703 20.2758 182.857 19.497C184.04 18.7472 185.366 18.3722 186.837 18.3722C188.625 18.3722 190.039 18.8914 191.106 19.9297C192.173 20.9391 192.692 22.3812 192.663 24.2271C192.663 25.5827 192.346 26.9094 191.712 28.2073Z" fill="white"/>
    <path d="M208.469 38.8788C206.392 38.1866 204.517 37.3213 202.902 36.2542L206.017 30.8031C209.247 32.6778 212.564 33.6007 215.968 33.6296C217.208 33.6296 218.217 33.4565 219.082 33.1104C219.919 32.7931 220.352 32.2452 220.352 31.5241C220.352 30.8319 220.005 30.2839 219.313 29.909C218.621 29.534 217.352 29.1591 215.506 28.7841C209.363 27.6305 206.306 24.9193 206.306 20.6796C206.306 19.1221 206.738 17.6512 207.603 16.2379C208.469 14.8247 209.767 13.671 211.584 12.7769C213.372 11.8828 215.65 11.4502 218.419 11.479C223.178 11.5079 227.245 12.6039 230.59 14.7958L226.899 20.0451C224.332 18.5453 221.419 17.7954 218.217 17.7666C215.852 17.7377 214.67 18.3434 214.641 19.5836C214.641 20.1316 214.929 20.5931 215.506 20.8815C216.083 21.1987 217.265 21.5737 219.054 21.9486C222.342 22.6408 224.736 23.6503 226.235 24.977C227.735 26.3326 228.485 28.0919 228.485 30.2551C228.485 31.899 227.995 33.4565 227.101 34.9563C226.178 36.4272 224.707 37.6386 222.717 38.5327C220.698 39.4556 218.131 39.9171 215.016 39.8882C212.766 39.9171 210.574 39.571 208.469 38.8788Z" fill="white"/>
    <path d="M237.455 39.0518C235.379 38.3596 233.504 37.4944 231.889 36.4272L235.004 30.9761C238.234 32.8508 241.551 33.7738 244.954 33.8026C246.194 33.8026 247.204 33.6584 248.069 33.3123C248.905 32.9662 249.338 32.4471 249.338 31.726C249.338 31.0338 248.992 30.4858 248.3 30.1109C247.607 29.7359 246.338 29.361 244.493 28.986C238.349 27.8324 235.292 25.1212 235.292 20.8815C235.292 19.324 235.725 17.8531 236.59 16.4398C237.455 15.0266 238.753 13.8729 240.57 12.9788C242.358 12.0847 244.637 11.6521 247.406 11.6809C252.164 11.7098 256.231 12.8058 259.577 14.9978L255.885 20.247C253.318 18.7472 250.405 17.9973 247.204 17.9685C244.839 17.9396 243.656 18.5453 243.627 19.7855C243.627 20.3335 243.916 20.795 244.493 21.0834C245.069 21.4006 246.252 21.7756 248.04 22.1505C251.328 22.8427 253.722 23.8522 255.222 25.1789C256.721 26.5345 257.471 28.2938 257.471 30.457C257.471 32.101 256.981 33.6584 256.087 35.1293C255.164 36.6003 253.693 37.8116 251.703 38.7346C249.684 39.6575 247.117 40.119 244.002 40.0901C241.753 40.0901 239.561 39.744 237.455 39.0518Z" fill="white"/>
    <path d="M55.0602 0.519088L24.6032 45.4258H16.7871L47.2441 0.519088H55.0602Z" fill="url(#paint0_linear_2899_19884)"/>
    <path d="M37.8693 0.519149L7.81613 45.4259H0L30.0532 0.519149H37.8693Z" fill="url(#paint1_linear_2899_19884)"/>
  </g>
  <defs>
    <linearGradient id="paint0_linear_2899_19884" x1="0" y1="32" x2="259.577" y2="32" gradientUnits="userSpaceOnUse">
      <stop stop-color="#7656D8"/>
      <stop offset="1" stop-color="#7656D8" stop-opacity="0"/>
    </linearGradient>
    <linearGradient id="paint1_linear_2899_19884" x1="0" y1="32" x2="259.577" y2="32" gradientUnits="userSpaceOnUse">
      <stop stop-color="#7656D8"/>
      <stop offset="1" stop-color="#7656D8" stop-opacity="0"/>
    </linearGradient>
  </defs>
</svg>