<svg width="20" height="21" viewBox="0 0 20 21" fill="none" xmlns="http://www.w3.org/2000/svg">
<g id="flat-color-icons:google">
<path id="Vector" d="M18.1713 8.868H17.5V8.83341H10V12.1667H14.7096C14.0225 14.1072 12.1763 15.5001 10 15.5001C7.23876 15.5001 5.00001 13.2613 5.00001 10.5001C5.00001 7.73883 7.23876 5.50008 10 5.50008C11.2746 5.50008 12.4342 5.98091 13.3171 6.76633L15.6742 4.40925C14.1858 3.02216 12.195 2.16675 10 2.16675C5.39792 2.16675 1.66667 5.898 1.66667 10.5001C1.66667 15.1022 5.39792 18.8334 10 18.8334C14.6021 18.8334 18.3333 15.1022 18.3333 10.5001C18.3333 9.94133 18.2758 9.39591 18.1713 8.868Z" fill="#FFC107"/>
<path id="Vector_2" d="M2.6275 6.62133L5.36542 8.62925C6.10625 6.79508 7.90042 5.50008 10 5.50008C11.2746 5.50008 12.4342 5.98091 13.3171 6.76633L15.6742 4.40925C14.1858 3.02216 12.195 2.16675 10 2.16675C6.79917 2.16675 4.02334 3.97383 2.6275 6.62133Z" fill="#FF3D00"/>
<path id="Vector_3" d="M10 18.8334C12.1525 18.8334 14.1083 18.0096 15.5871 16.67L13.0079 14.4875C12.1431 15.1452 11.0864 15.5009 10 15.5C7.8325 15.5 5.99209 14.118 5.29875 12.1892L2.58125 14.283C3.96042 16.9817 6.76125 18.8334 10 18.8334Z" fill="#4CAF50"/>
<path id="Vector_4" d="M18.1712 8.86784H17.5V8.83325H10V12.1666H14.7096C14.3809 13.0901 13.7889 13.8971 13.0067 14.4878L13.0079 14.487L15.5871 16.6695C15.4046 16.8353 18.3333 14.6666 18.3333 10.4999C18.3333 9.94117 18.2758 9.39575 18.1712 8.86784Z" fill="#1976D2"/>
</g>
</svg>
