<svg width="32" height="32" viewBox="0 0 32 32" fill="none" xmlns="http://www.w3.org/2000/svg">
<g id="https://lottiefiles.com/animations/hand-tap-5z6XERrjjo" clip-path="url(#clip0_1311_33798)">
<g id="Clip path group">
<mask id="mask0_1311_33798" style="mask-type:luminance" maskUnits="userSpaceOnUse" x="0" y="0" width="32" height="32">
<g id="__lottie_element_2217">
<path id="Vector" d="M32 0H0V32H32V0Z" fill="white"/>
</g>
</mask>
<g mask="url(#mask0_1311_33798)">
<g id="Group">
<g id="Mask group">
<mask id="mask1_1311_33798" style="mask-type:alpha" maskUnits="userSpaceOnUse" x="11" y="9" width="15" height="18">
<g id="Group_2">
<g id="Group_3">
<g id="__lottie_element_2229">
<g id="Group_4">
<g id="Group_5">
<path id="Vector_2" d="M15.2345 13.6944C14.9747 13.0974 15.248 12.403 15.8449 12.1432C16.4418 11.8834 17.1363 12.1567 17.3961 12.7536L17.5049 13.0036L18.5724 15.4565L17.9627 14.0555L17.6994 13.4506C17.4208 12.8104 17.714 12.0654 18.3542 11.7868C18.9945 11.5081 19.7395 11.8012 20.0181 12.4415L20.0968 12.6224L21.1901 15.1343L20.6902 13.9857L20.4375 13.4051C20.1743 12.8004 20.4511 12.0967 21.0558 11.8335C21.6605 11.5704 22.3642 11.8473 22.6273 12.452L22.6916 12.5997L24.7254 17.2728C24.9123 17.7022 24.9545 18.0925 24.9322 18.5107L24.91 18.929C24.91 18.929 24.6651 20.772 24.6567 20.9289C24.6484 21.0858 24.6701 21.1209 24.7238 21.2444L25.5834 23.2195L18.8904 26.1324L18.2434 24.6457C18.2177 24.5867 18.1712 24.5239 18.0594 24.4577C17.9475 24.3915 11.6075 20.2746 11.4358 20.152C10.7412 19.6563 10.8906 17.7845 12.3152 18.1094C14.0003 18.4936 14.5865 18.5317 15.0084 19.4717L15.1532 19.8045L11.5092 11.4314L11.4807 11.3638C11.2039 10.7278 11.4951 9.9878 12.1312 9.711C12.7671 9.43421 13.5071 9.72541 13.7839 10.3614L13.8155 10.4341L16.4108 16.3973L15.3245 13.9014" fill="black"/>
</g>
</g>
</g>
</g>
</g>
</mask>
<g mask="url(#mask1_1311_33798)">
<g id="Group_6">
<g id="Group_7" opacity="0.451137">
<g id="Group_8">
<path id="Vector_3" d="M7.41857 5.25315C9.5974 3.78351 12.5597 4.35931 14.0293 6.53814C15.4989 8.71697 14.9231 11.6792 12.7443 13.1489C10.5655 14.6185 7.60321 14.0427 6.13357 11.8639C4.66394 9.68506 5.23974 6.72278 7.41857 5.25315Z" stroke="#E8F0FE" stroke-width="1.05187"/>
</g>
</g>
</g>
</g>
</g>
<g id="Mask group_2">
<mask id="mask2_1311_33798" style="mask-type:alpha" maskUnits="userSpaceOnUse" x="11" y="9" width="15" height="18">
<g id="Group_9">
<g id="Group_10">
<g id="__lottie_element_2222">
<g id="Group_11">
<g id="Group_12">
<path id="Vector_4" d="M15.2345 13.6944C14.9747 13.0974 15.248 12.403 15.8449 12.1432C16.4418 11.8834 17.1363 12.1567 17.3961 12.7536L17.5049 13.0036L18.5724 15.4565L17.9627 14.0555L17.6994 13.4506C17.4208 12.8104 17.714 12.0654 18.3542 11.7868C18.9945 11.5081 19.7395 11.8012 20.0181 12.4415L20.0968 12.6224L21.1901 15.1343L20.6902 13.9857L20.4375 13.4051C20.1743 12.8004 20.4511 12.0967 21.0558 11.8335C21.6605 11.5704 22.3642 11.8473 22.6273 12.452L22.6916 12.5997L24.7254 17.2728C24.9123 17.7022 24.9545 18.0925 24.9322 18.5107L24.91 18.929C24.91 18.929 24.6651 20.772 24.6567 20.9289C24.6484 21.0858 24.6701 21.1209 24.7238 21.2444L25.5834 23.2195L18.8904 26.1324L18.2434 24.6457C18.2177 24.5867 18.1712 24.5239 18.0594 24.4577C17.9475 24.3915 11.6075 20.2746 11.4358 20.152C10.7412 19.6563 10.8906 17.7845 12.3152 18.1094C14.0003 18.4936 14.5865 18.5317 15.0084 19.4717L15.1532 19.8045L11.5092 11.4314L11.4807 11.3638C11.2039 10.7278 11.4951 9.9878 12.1312 9.711C12.7671 9.43421 13.5071 9.72541 13.7839 10.3614L13.8155 10.4341L16.4108 16.3973L15.3245 13.9014" fill="black"/>
</g>
</g>
</g>
</g>
</g>
</mask>
<g mask="url(#mask2_1311_33798)">
<g id="Group_13">
<g id="Group_14" opacity="0.843409">
<g id="Group_15">
<path id="Vector_5" d="M8.83326 7.34793C9.85582 6.65821 11.2461 6.92844 11.9358 7.951C12.6255 8.97356 12.3553 10.3638 11.3327 11.0535C10.3102 11.7432 8.91992 11.473 8.2302 10.4505C7.54047 9.42789 7.81071 8.03765 8.83326 7.34793Z" stroke="#E8F0FE" stroke-width="1.13278"/>
</g>
</g>
</g>
</g>
</g>
<g id="Group_16">
<g id="Group_17">
<path id="Vector_6" d="M15.2345 13.6939C14.9747 13.097 15.248 12.4025 15.8449 12.1427C16.4418 11.8829 17.1363 12.1562 17.3961 12.7531L17.5049 13.0031L18.5724 15.456L17.9627 14.055L17.6994 13.4501C17.4208 12.8099 17.714 12.065 18.3542 11.7863C18.9945 11.5076 19.7395 11.8007 20.0181 12.441L20.0968 12.6219L21.1901 15.1338L20.6902 13.9852L20.4375 13.4046C20.1743 12.7999 20.4511 12.0962 21.0558 11.8331C21.6605 11.5699 22.3642 11.8468 22.6273 12.4516L22.6916 12.5992L24.7254 17.2723C24.9123 17.7017 24.9545 18.092 24.9322 18.5103L24.91 18.9285C24.91 18.9285 24.6651 20.7715 24.6567 20.9284C24.6484 21.0853 24.6701 21.1204 24.7238 21.2439L25.5834 23.2191L18.8904 26.1319L18.2434 24.6452C18.2177 24.5862 18.1712 24.5235 18.0594 24.4572C17.9475 24.391 11.6075 20.2741 11.4358 20.1515C10.7412 19.6558 10.8906 17.7841 12.3152 18.1089C14.0003 18.4931 14.5865 18.5312 15.0084 19.4712L15.1532 19.804L11.5092 11.4309L11.4807 11.3633C11.2039 10.7273 11.4951 9.98732 12.1312 9.71051C12.7671 9.43372 13.5071 9.72492 13.7839 10.3609L13.8155 10.4336L16.4108 16.3968L15.3245 13.9009" stroke="#E8F0FE" stroke-width="1.17333" stroke-linecap="round" stroke-linejoin="round"/>
</g>
<g id="Group_18">
<path id="Vector_7" d="M25.8186 23.7571L19.1255 26.67C18.8284 26.7993 18.4827 26.6633 18.3534 26.3662L17.7353 24.9459C17.2635 24.6479 11.2403 20.7321 11.096 20.6292C10.4852 20.1933 10.2652 19.166 10.6155 18.3859C10.9337 17.6773 11.6353 17.352 12.4466 17.537C12.6109 17.5745 12.7648 17.6087 12.909 17.6407C13.1779 17.7004 13.4231 17.7549 13.6475 17.8122L10.9722 11.6651C10.9713 11.6629 10.9703 11.6607 10.9694 11.6585L10.9422 11.5939C10.5394 10.6631 10.9676 9.57765 11.898 9.17274C12.8296 8.7673 13.9173 9.1953 14.3228 10.1269L15.1096 11.9348C15.253 11.8003 15.4214 11.6878 15.6118 11.6049C16.2194 11.3405 16.8964 11.4461 17.3892 11.822C17.5742 11.5791 17.8218 11.3788 18.1212 11.2485C18.8694 10.9229 19.718 11.1325 20.2364 11.708C20.397 11.5368 20.5941 11.3948 20.8228 11.2953C21.7231 10.9034 22.7744 11.3171 23.1663 12.2175L25.2644 17.0384C25.4706 17.5123 25.5492 17.9759 25.5191 18.5415L25.4968 18.9597C25.496 18.9752 25.4945 18.9906 25.4925 19.0059C25.3784 19.8651 25.2522 20.8433 25.2433 20.9637C25.2433 20.9643 25.2433 20.9649 25.2433 20.9655C25.2455 20.9706 25.2479 20.9759 25.2505 20.9816L25.2628 21.0099L26.1224 22.9851C26.2517 23.2821 26.1157 23.6278 25.8186 23.7571ZM19.1952 25.3601L24.8125 22.9154L24.1762 21.4536C24.1062 21.2944 24.0578 21.1613 24.0719 20.8972C24.0805 20.737 24.2502 19.4476 24.3264 18.8743L24.3474 18.4792C24.3676 18.0998 24.3201 17.8089 24.1885 17.5066L22.0904 12.6857C21.9567 12.3786 21.5981 12.2375 21.291 12.3711C20.9838 12.5048 20.8427 12.8634 20.9764 13.1705L21.729 14.8998C21.8583 15.1969 21.7223 15.5425 21.4252 15.6718C21.128 15.8011 20.7824 15.6651 20.6531 15.368L19.4812 12.6753C19.3321 12.3326 18.932 12.1753 18.5894 12.3244C18.2467 12.4735 18.0893 12.8735 18.2384 13.2162L19.1113 15.2219C19.2406 15.519 19.1046 15.8647 18.8075 15.994C18.5104 16.1233 18.1648 15.9872 18.0355 15.6901L16.8592 12.9874C16.7289 12.688 16.3794 12.5505 16.08 12.6808C15.7807 12.8111 15.6431 13.1606 15.7734 13.46L16.9496 16.1627C17.0789 16.4598 16.943 16.8054 16.6458 16.9348C16.3487 17.064 16.0031 16.928 15.8738 16.6309L13.2469 10.5951C13.0996 10.2567 12.7047 10.1013 12.3662 10.2486C12.0279 10.3959 11.8724 10.7908 12.0197 11.1292C12.0206 11.1314 12.0216 11.1338 12.0225 11.136L12.0497 11.2005L15.6922 19.57C15.8215 19.8671 15.6854 20.2127 15.3884 20.342C15.0912 20.4713 14.7456 20.3353 14.6163 20.0382L14.4728 19.7085C14.2464 19.2048 14.115 19.1105 12.6545 18.7861C12.5084 18.7536 12.3524 18.719 12.1857 18.681C11.8536 18.6053 11.7493 18.7255 11.6858 18.8666C11.5514 19.1658 11.648 19.5816 11.7776 19.6741C11.9764 19.812 18.0486 23.7591 18.3635 23.955C18.5637 24.0746 18.7007 24.2238 18.7823 24.4112L19.1952 25.3601Z" fill="#E8F0FE"/>
</g>
</g>
</g>
</g>
</g>
</g>
<defs>
<clipPath id="clip0_1311_33798">
<rect width="32" height="32" fill="white"/>
</clipPath>
</defs>
</svg>
