<svg width="20" height="20" viewBox="0 0 20 20" fill="none" xmlns="http://www.w3.org/2000/svg">
<g id="help-circle">
<path id="Vector" d="M12.5557 9.37508L11.8057 10.1417C11.2057 10.7417 10.8307 11.2501 10.8307 12.5001H9.16406V12.0834C9.16406 11.1584 9.53906 10.3251 10.1391 9.72508L11.1724 8.67508C11.4807 8.37508 11.6641 7.95842 11.6641 7.50008C11.6641 6.57508 10.9141 5.83342 9.9974 5.83342C9.55537 5.83342 9.13145 6.00901 8.81889 6.32157C8.50632 6.63413 8.33073 7.05805 8.33073 7.50008H6.66406C6.66406 6.61603 7.01525 5.76818 7.64037 5.14306C8.26549 4.51794 9.11334 4.16675 9.9974 4.16675C10.8815 4.16675 11.7293 4.51794 12.3544 5.14306C12.9795 5.76818 13.3307 6.61603 13.3307 7.50008C13.3307 8.23342 13.0307 8.89175 12.5557 9.37508ZM10.8307 15.8334H9.16406V14.1667H10.8307V15.8334ZM9.9974 1.66675C8.90305 1.66675 7.81941 1.8823 6.80837 2.30109C5.79732 2.71987 4.87866 3.3337 4.10484 4.10752C2.54204 5.67033 1.66406 7.78994 1.66406 10.0001C1.66406 12.2102 2.54204 14.3298 4.10484 15.8926C4.87866 16.6665 5.79732 17.2803 6.80837 17.6991C7.81941 18.1179 8.90305 18.3334 9.9974 18.3334C12.2075 18.3334 14.3271 17.4554 15.89 15.8926C17.4528 14.3298 18.3307 12.2102 18.3307 10.0001C18.3307 5.39175 14.5807 1.66675 9.9974 1.66675Z" fill="#6A6B71"/>
</g>
</svg>
