<svg width="20" height="20" viewBox="0 0 20 20" fill="none" xmlns="http://www.w3.org/2000/svg">
<g id="information">
<path id="Vector" d="M10.8327 7.49984H9.16602V5.83317H10.8327V7.49984ZM10.8327 14.1665H9.16602V9.1665H10.8327V14.1665ZM9.99935 1.6665C8.905 1.6665 7.82137 1.88205 6.81032 2.30084C5.79927 2.71963 4.88061 3.33346 4.10679 4.10728C2.54399 5.67008 1.66602 7.7897 1.66602 9.99984C1.66602 12.21 2.54399 14.3296 4.10679 15.8924C4.88061 16.6662 5.79927 17.28 6.81032 17.6988C7.82137 18.1176 8.905 18.3332 9.99935 18.3332C12.2095 18.3332 14.3291 17.4552 15.8919 15.8924C17.4547 14.3296 18.3327 12.21 18.3327 9.99984C18.3327 8.90549 18.1171 7.82186 17.6983 6.81081C17.2796 5.79976 16.6657 4.8811 15.8919 4.10728C15.1181 3.33346 14.1994 2.71963 13.1884 2.30084C12.1773 1.88205 11.0937 1.6665 9.99935 1.6665Z" fill="#C1C1C3"/>
</g>
</svg>
