<svg width="24" height="24" viewBox="0 0 24 24" fill="none" xmlns="http://www.w3.org/2000/svg">
<g id="socials-icon/dark/default/instagram">
<path id="Subtract" d="M8.50076 11.7445C8.50076 9.95069 9.95544 8.4961 11.7504 8.4961C13.5453 8.4961 15.0008 9.95069 15.0008 11.7445C15.0008 13.5384 13.5453 14.993 11.7504 14.993C9.95544 14.993 8.50076 13.5384 8.50076 11.7445ZM6.74366 11.7445C6.74366 14.5081 8.98516 16.7482 11.7504 16.7482C14.5156 16.7482 16.7571 14.5081 16.7571 11.7445C16.7571 8.98099 14.5156 6.74084 11.7504 6.74084C8.98516 6.74084 6.74366 8.98099 6.74366 11.7445ZM15.7852 6.54244C15.7851 6.77371 15.8537 6.99982 15.9822 7.19217C16.1107 7.38452 16.2933 7.53447 16.5071 7.62306C16.7209 7.71165 16.9561 7.7349 17.1831 7.68987C17.4101 7.64485 17.6186 7.53356 17.7823 7.37009C17.946 7.20662 18.0575 6.99831 18.1028 6.77149C18.148 6.54468 18.1249 6.30955 18.0364 6.09585C17.948 5.88214 17.7981 5.69946 17.6057 5.57089C17.4134 5.44232 17.1872 5.37365 16.9558 5.37356H16.9553C16.6451 5.37371 16.3476 5.49689 16.1283 5.71605C15.9089 5.93521 15.7855 6.23243 15.7852 6.54244ZM7.81121 19.6764C6.86059 19.6331 6.3439 19.4748 6.00053 19.3412C5.5453 19.164 5.2205 18.9531 4.879 18.6123C4.5375 18.2714 4.32611 17.9471 4.14967 17.4922C4.01582 17.1492 3.85747 16.6326 3.81426 15.6826C3.76699 14.6554 3.75755 14.3469 3.75755 11.7446C3.75755 9.14236 3.76777 8.83467 3.81426 7.80666C3.85755 6.8566 4.01706 6.34108 4.14967 5.99706C4.32689 5.5421 4.53797 5.21749 4.879 4.8762C5.22003 4.53491 5.54452 4.32364 6.00053 4.14731C6.34374 4.01353 6.86059 3.85528 7.81121 3.8121C8.83898 3.76485 9.14772 3.75542 11.7504 3.75542C14.353 3.75542 14.6621 3.76563 15.6907 3.8121C16.6413 3.85536 17.1572 4.01478 17.5014 4.14731C17.9566 4.32364 18.2814 4.53537 18.6229 4.8762C18.9644 5.21702 19.175 5.5421 19.3522 5.99706C19.4861 6.34006 19.6444 6.8566 19.6877 7.80666C19.7349 8.83467 19.7444 9.14236 19.7444 11.7446C19.7444 14.3469 19.7349 14.6546 19.6877 15.6826C19.6444 16.6326 19.4852 17.149 19.3522 17.4922C19.175 17.9471 18.9639 18.2717 18.6229 18.6123C18.2819 18.9528 17.9566 19.164 17.5014 19.3412C17.1582 19.4749 16.6413 19.6332 15.6907 19.6764C14.6629 19.7236 14.3542 19.733 11.7504 19.733C9.14655 19.733 8.83867 19.7236 7.81121 19.6764ZM7.73048 2.05901C6.69249 2.10625 5.98321 2.27074 5.36379 2.51163C4.72229 2.76039 4.17923 3.09412 3.63656 3.6356C3.0939 4.17709 2.76082 4.72068 2.51192 5.36179C2.27089 5.98123 2.1063 6.6897 2.05903 7.72706C2.01098 8.76607 1.99998 9.09824 1.99998 11.7445C1.99998 14.3908 2.01098 14.723 2.05903 15.762C2.1063 16.7995 2.27089 17.5079 2.51192 18.1273C2.76082 18.768 3.09397 19.3122 3.63656 19.8535C4.17915 20.3947 4.72229 20.728 5.36379 20.9775C5.98438 21.2183 6.69249 21.3828 7.73048 21.4301C8.77065 21.4773 9.10248 21.4891 11.7504 21.4891C14.3983 21.4891 14.7306 21.4781 15.7703 21.4301C16.8083 21.3828 17.5171 21.2183 18.137 20.9775C18.7781 20.728 19.3215 20.395 19.8642 19.8535C20.4068 19.312 20.7392 18.768 20.9888 18.1273C21.2299 17.5079 21.3952 16.7994 21.4417 15.762C21.489 14.7222 21.5 14.3908 21.5 11.7445C21.5 9.09824 21.489 8.76607 21.4417 7.72706C21.3944 6.68962 21.2299 5.98084 20.9888 5.36179C20.7392 4.72107 20.406 4.17794 19.8642 3.6356C19.3224 3.09326 18.7781 2.76039 18.1377 2.51163C17.5171 2.27074 16.8082 2.10547 15.771 2.05901C14.7314 2.01177 14.399 2 11.7512 2C9.10326 2 8.77065 2.01099 7.73048 2.05901Z" fill="#8AAFEA"/>
</g>
</svg>
