<svg width="24" height="25" viewBox="0 0 24 25" fill="none" xmlns="http://www.w3.org/2000/svg">
<g id="Frame 1116">
<rect width="24" height="24" transform="translate(0 0.5)" fill="white"/>
<path id="Subtract" fill-rule="evenodd" clip-rule="evenodd" d="M3 5.5L12 1.5L21 5.5V11.5C21 17.05 17.16 22.24 12 23.5C6.84 22.24 3 17.05 3 11.5V5.5ZM9.24966 8.24986L8.49981 10.4994H15.4985L14.7486 8.24986H9.24966ZM14.2184 12.7793C14.359 12.9199 14.5497 12.9989 14.7486 12.9989C14.9475 12.9989 15.1382 12.9199 15.2788 12.7793C15.4195 12.6387 15.4985 12.448 15.4985 12.2491C15.4985 12.0502 15.4195 11.8595 15.2788 11.7189C15.1382 11.5782 14.9475 11.4992 14.7486 11.4992C14.5497 11.4992 14.359 11.5782 14.2184 11.7189C14.0777 11.8595 13.9987 12.0502 13.9987 12.2491C13.9987 12.448 14.0777 12.6387 14.2184 12.7793ZM8.71943 12.7793C8.86006 12.9199 9.05079 12.9989 9.24966 12.9989C9.44854 12.9989 9.63926 12.9199 9.77989 12.7793C9.92051 12.6387 9.99952 12.448 9.99952 12.2491C9.99952 12.0502 9.92051 11.8595 9.77989 11.7189C9.63926 11.5782 9.44854 11.4992 9.24966 11.4992C9.05079 11.4992 8.86006 11.5782 8.71943 11.7189C8.57881 11.8595 8.49981 12.0502 8.49981 12.2491C8.49981 12.448 8.57881 12.6387 8.71943 12.7793ZM14.7486 7.5C15.0785 7.5 15.3585 7.70996 15.4585 7.9999L16.4983 10.9993V14.9986C16.4983 15.1311 16.4456 15.2583 16.3518 15.352C16.2581 15.4458 16.1309 15.4985 15.9984 15.4985H15.4985C15.3659 15.4985 15.2387 15.4458 15.145 15.352C15.0512 15.2583 14.9986 15.1311 14.9986 14.9986V14.4986H8.99971V14.9986C8.99971 15.1311 8.94704 15.2583 8.85329 15.352C8.75954 15.4458 8.63239 15.4985 8.49981 15.4985H7.9999C7.86732 15.4985 7.74017 15.4458 7.64642 15.352C7.55267 15.2583 7.5 15.1311 7.5 14.9986V10.9993L8.5398 7.9999C8.63978 7.70996 8.91973 7.5 9.24966 7.5H14.7486Z" fill="#4285F4"/>
</g>
</svg>
