<svg width="24" height="25" viewBox="0 0 24 25" fill="none" xmlns="http://www.w3.org/2000/svg">
<g id="Frame 1115">
<path id="Subtract" fill-rule="evenodd" clip-rule="evenodd" d="M3 5.5L12 1.5L21 5.5V11.5C21 17.05 17.16 22.24 12 23.5C6.84 22.24 3 17.05 3 11.5V5.5ZM8 8.78856C8 11.0771 9.71642 15.6542 9.71642 15.6542C9.71642 15.6542 11.4328 14.5099 11.4328 12.7935C11.4328 11.8486 10.9127 11.0771 10.445 10.3835C10.0632 9.81724 9.71642 9.3029 9.71642 8.78856C9.71642 8.11825 9.91274 7.84061 10.0754 7.61059C10.1904 7.44795 10.2886 7.30913 10.2886 7.07214C10.2886 6.5 9.71642 6.5 9.71642 6.5H9.14428C9.14428 6.5 8 6.5 8 8.78856ZM10.2886 16.5124C10.2886 16.5124 12.005 15.0821 12.5771 15.0821V15.1393H15.4378C16.0672 15.1393 16.5821 15.6542 16.5821 16.2836V16.8557C16.5821 17.4851 16.0672 18 15.4378 18H12.005C10.8607 18 10.2886 16.9701 10.2886 16.9701C10.1741 16.7985 10.1169 16.6269 10.2886 16.5124Z" fill="#4285F4"/>
</g>
</svg>
