<svg width="24" height="24" viewBox="0 0 24 24" fill="none" xmlns="http://www.w3.org/2000/svg">
<g id="socials-icon/dark/default/Linkedin">
<path id="Subtract" fill-rule="evenodd" clip-rule="evenodd" d="M3.44116 2C2.64547 2 1.99998 2.62583 1.99998 3.39684V20.1036C1.99998 20.8747 2.64554 21.5 3.44116 21.5H20.0588C20.8548 21.5 21.5 20.8746 21.5 20.1034V3.39684C21.5 2.62583 20.8548 2 20.0588 2H3.44116ZM7.92569 9.54002V18.319H5.0077V9.54002H7.92569ZM8.11802 6.82502C8.11802 7.66748 7.48465 8.34161 6.4673 8.34161L6.44818 8.34153C5.46884 8.34153 4.8357 7.66741 4.8357 6.82495C4.8357 5.96337 5.48796 5.30806 6.48665 5.30806C7.48465 5.30806 8.09898 5.96337 8.11802 6.82502ZM12.4586 18.319H9.54084C9.54084 18.319 9.57908 10.3639 9.54099 9.54032H12.4588V10.7829C12.8467 10.1849 13.5409 9.3342 15.0887 9.3342C17.0084 9.3342 18.4478 10.589 18.4478 13.2854V18.319H15.5301V13.623C15.5301 12.4427 15.1076 11.6377 14.052 11.6377C13.2457 11.6377 12.7656 12.1806 12.5547 12.705C12.4776 12.8922 12.4586 13.1549 12.4586 13.4169V18.319Z" fill="#8AAFEA"/>
</g>
</svg>
