<svg width="48" height="48" viewBox="0 0 48 48" fill="none" xmlns="http://www.w3.org/2000/svg">
<g id="icon svg white 1">
<g id="Group">
<g id="Group_2">
<path id="Vector" d="M29.616 14.6496C29.2752 14.904 29.0496 15.3216 28.92 15.9024L28.896 16.0176L32.6928 16.0368L32.0064 19.2192L28.1904 19.1952L26.112 28.68L22.224 28.656L25.0752 15.648C25.368 14.2368 26.0352 13.1232 27.0384 12.336C28.0512 11.5392 29.28 11.1456 30.7296 11.1552C31.4784 11.16 32.1552 11.2272 32.7696 11.352C33.3792 11.4768 33.8544 11.6208 34.2096 11.7744L33.024 14.6784C32.3856 14.4144 31.6896 14.28 30.9456 14.2752C30.3936 14.2656 29.952 14.3904 29.616 14.6496Z" fill="white"/>
<path id="Vector_2" d="M41.5296 22.7281L44.9616 22.7473L41.0688 40.5505L37.6368 40.5313L40.2048 28.8337C39.5616 29.0737 38.9088 29.1937 38.2368 29.1889C37.08 29.1841 36.0576 28.9489 35.1792 28.4833C34.296 28.0177 33.6096 27.3649 33.1296 26.5153C32.6448 25.6609 32.4096 24.6673 32.4192 23.5249C32.424 22.1809 32.784 20.9329 33.4944 19.7665C34.2 18.6097 35.1744 17.6833 36.4128 16.9969C37.656 16.3057 39.0192 15.9745 40.5168 15.9841C41.664 15.9889 42.6672 16.2241 43.5312 16.6945C44.3856 17.1649 45.0816 17.8081 45.6048 18.6241L42.8256 20.7073C42.2352 19.7137 41.304 19.2097 40.0224 19.2001C39.3648 19.1953 38.7456 19.3825 38.184 19.7521C37.6224 20.1217 37.1664 20.6161 36.8256 21.2257C36.4896 21.8401 36.3168 22.4929 36.3072 23.1841C36.3024 24.0673 36.5424 24.7633 37.0272 25.2817C37.512 25.7905 38.1984 26.0545 39.0864 26.0593C39.7248 26.0641 40.3344 25.9009 40.9152 25.5889L41.5296 22.7281Z" fill="white"/>
</g>
<g id="Group_3">
<g id="Group_4">
<g id="Group_5">
<path id="Vector_3" d="M27.9216 7.44971L13.8048 28.2625H10.1808L24.3024 7.44971H27.9216Z" fill="#7656D8"/>
</g>
<g id="Group_6">
<path id="Vector_4" d="M19.9584 7.44971L6.01919 28.2625H2.39999L16.3344 7.44971H19.9584Z" fill="#7656D8"/>
</g>
</g>
</g>
</g>
</g>
</svg>
