<svg width="16" height="16" viewBox="0 0 16 16" fill="none" xmlns="http://www.w3.org/2000/svg">
<g id="map-marker">
<path id="Vector" d="M8.00065 7.66683C7.55862 7.66683 7.1347 7.49123 6.82214 7.17867C6.50958 6.86611 6.33398 6.44219 6.33398 6.00016C6.33398 5.55814 6.50958 5.13421 6.82214 4.82165C7.1347 4.50909 7.55862 4.3335 8.00065 4.3335C8.44268 4.3335 8.8666 4.50909 9.17916 4.82165C9.49172 5.13421 9.66732 5.55814 9.66732 6.00016C9.66732 6.21903 9.62421 6.43576 9.54045 6.63797C9.45669 6.84018 9.33393 7.02391 9.17916 7.17867C9.0244 7.33344 8.84067 7.4562 8.63846 7.53996C8.43625 7.62372 8.21952 7.66683 8.00065 7.66683ZM8.00065 1.3335C6.76297 1.3335 5.57599 1.82516 4.70082 2.70033C3.82565 3.5755 3.33398 4.76249 3.33398 6.00016C3.33398 9.50016 8.00065 14.6668 8.00065 14.6668C8.00065 14.6668 12.6673 9.50016 12.6673 6.00016C12.6673 4.76249 12.1757 3.5755 11.3005 2.70033C10.4253 1.82516 9.23833 1.3335 8.00065 1.3335Z" fill="#8F8F99"/>
</g>
</svg>
