<svg width="32" height="32" viewBox="0 0 32 32" fill="none" xmlns="http://www.w3.org/2000/svg">
<path d="M15.9969 8.14014C16.3144 8.14014 16.5719 8.39757 16.5719 8.71514V11.0964C16.5719 11.414 16.3144 11.6714 15.9969 11.6714C15.6793 11.6714 15.4219 11.414 15.4219 11.0964V8.71514C15.4219 8.39757 15.6793 8.14014 15.9969 8.14014Z" fill="#FBBF24"/>
<path d="M9.48953 10.8343C9.71367 10.6093 10.0777 10.6087 10.3027 10.8328L11.9902 12.514C12.2152 12.7382 12.2158 13.1023 11.9917 13.3272C11.7676 13.5522 11.4035 13.5529 11.1785 13.3287L9.49104 11.6475C9.26608 11.4233 9.2654 11.0593 9.48953 10.8343Z" fill="#FBBF24"/>
<path d="M22.5035 10.8336C22.728 11.0581 22.728 11.4222 22.5035 11.6467L20.8222 13.328C20.5977 13.5525 20.2336 13.5525 20.009 13.328C19.7845 13.1034 19.7845 12.7394 20.009 12.5148L21.6903 10.8336C21.9148 10.609 22.2789 10.609 22.5035 10.8336Z" fill="#FBBF24"/>
<path d="M6.79688 17.3464C6.79688 17.0288 7.05431 16.7714 7.37187 16.7714H9.75938C10.0769 16.7714 10.3344 17.0288 10.3344 17.3464C10.3344 17.664 10.0769 17.9214 9.75938 17.9214H7.37187C7.05431 17.9214 6.79688 17.664 6.79688 17.3464Z" fill="#FBBF24"/>
<path d="M21.6719 17.3464C21.6719 17.0288 21.9293 16.7714 22.2469 16.7714H24.6219C24.9394 16.7714 25.1969 17.0288 25.1969 17.3464C25.1969 17.664 24.9394 17.9214 24.6219 17.9214H22.2469C21.9293 17.9214 21.6719 17.664 21.6719 17.3464Z" fill="#FBBF24"/>
<path d="M15.9969 13.1733C13.6945 13.1733 11.8281 15.0398 11.8281 17.3421C11.8281 18.3516 12.1869 19.2772 12.784 19.9985H19.2098C19.8068 19.2772 20.1656 18.3516 20.1656 17.3421C20.1656 15.0398 18.2992 13.1733 15.9969 13.1733Z" fill="#FBBF24"/>
<path fill-rule="evenodd" clip-rule="evenodd" d="M7.4375 21.3325C7.4375 21.0219 7.68934 20.77 8 20.77H24C24.3107 20.77 24.5625 21.0219 24.5625 21.3325C24.5625 21.6432 24.3107 21.895 24 21.895H8C7.68934 21.895 7.4375 21.6432 7.4375 21.3325Z" fill="#081F44"/>
</svg>
