<svg width="25" height="24" viewBox="0 0 25 24" fill="none" xmlns="http://www.w3.org/2000/svg">
<g id="phone">
<path id="Vector" d="M7.12 10.79C8.56 13.62 10.88 15.94 13.71 17.38L15.91 15.18C16.19 14.9 16.58 14.82 16.93 14.93C18.05 15.3 19.25 15.5 20.5 15.5C20.7652 15.5 21.0196 15.6054 21.2071 15.7929C21.3946 15.9804 21.5 16.2348 21.5 16.5V20C21.5 20.2652 21.3946 20.5196 21.2071 20.7071C21.0196 20.8946 20.7652 21 20.5 21C15.9913 21 11.6673 19.2089 8.47918 16.0208C5.29107 12.8327 3.5 8.50868 3.5 4C3.5 3.73478 3.60536 3.48043 3.79289 3.29289C3.98043 3.10536 4.23478 3 4.5 3H8C8.26522 3 8.51957 3.10536 8.70711 3.29289C8.89464 3.48043 9 3.73478 9 4C9 5.25 9.2 6.45 9.57 7.57C9.68 7.92 9.6 8.31 9.32 8.59L7.12 10.79Z" fill="white"/>
</g>
</svg>
