<svg width="24" height="25" viewBox="0 0 24 25" fill="none" xmlns="http://www.w3.org/2000/svg">
<g id="quality-high">
<path id="Vector" d="M14.5 14H16.5V11H14.5V14ZM18 14.5C18 14.7652 17.8946 15.0196 17.7071 15.2071C17.5196 15.3946 17.2652 15.5 17 15.5H16.25V17H14.75V15.5H14C13.7348 15.5 13.4804 15.3946 13.2929 15.2071C13.1054 15.0196 13 14.7652 13 14.5V10.5C13 10.2348 13.1054 9.98043 13.2929 9.79289C13.4804 9.60536 13.7348 9.5 14 9.5H17C17.2652 9.5 17.5196 9.60536 17.7071 9.79289C17.8946 9.98043 18 10.2348 18 10.5V14.5ZM11 15.5H9.5V13.5H7.5V15.5H6V9.5H7.5V12H9.5V9.5H11V15.5ZM19 4.5H5C3.89 4.5 3 5.39 3 6.5V18.5C3 19.0304 3.21071 19.5391 3.58579 19.9142C3.96086 20.2893 4.46957 20.5 5 20.5H19C19.5304 20.5 20.0391 20.2893 20.4142 19.9142C20.7893 19.5391 21 19.0304 21 18.5V6.5C21 5.39 20.1 4.5 19 4.5Z" fill="#7255DB"/>
</g>
</svg>
