<svg width="16" height="16" viewBox="0 0 16 16" fill="none" xmlns="http://www.w3.org/2000/svg">
<g id="receipt">
<path id="Vector" d="M2 14.6668L3 13.6668L4 14.6668L5 13.6668L6 14.6668L7 13.6668L8 14.6668L9 13.6668L10 14.6668L11 13.6668L12 14.6668L13 13.6668L14 14.6668V1.3335L13 2.3335L12 1.3335L11 2.3335L10 1.3335L9 2.3335L8 1.3335L7 2.3335L6 1.3335L5 2.3335L4 1.3335L3 2.3335L2 1.3335V14.6668ZM12 6.00016H4V4.66683H12V6.00016ZM12 8.66683H4V7.3335H12V8.66683ZM12 11.3335H4V10.0002H12V11.3335Z" fill="#4285F4"/>
</g>
</svg>
