<svg width="24" height="24" viewBox="0 0 24 24" fill="none" xmlns="http://www.w3.org/2000/svg">
<g id="mage:tiktok-circle">
<path id="Vector" d="M12 1C9.82441 1 7.69767 1.64514 5.88873 2.85383C4.07979 4.06253 2.66989 5.78049 1.83733 7.79048C1.00477 9.80047 0.786929 12.0122 1.21137 14.146C1.6358 16.2798 2.68345 18.2398 4.22183 19.7782C5.76021 21.3166 7.72022 22.3642 9.85401 22.7886C11.9878 23.2131 14.1995 22.9952 16.2095 22.1627C18.2195 21.3301 19.9375 19.9202 21.1462 18.1113C22.3549 16.3023 23 14.1756 23 12C22.9971 9.08351 21.8372 6.28731 19.775 4.22504C17.7127 2.16277 14.9165 1.00291 12 1ZM18.5329 9.4843V10.1949C18.5329 10.2493 18.522 10.3031 18.5009 10.3532C18.4798 10.4033 18.4488 10.4487 18.4098 10.4867C18.3709 10.5246 18.3247 10.5543 18.274 10.5741C18.2234 10.5939 18.1693 10.6034 18.1149 10.6019C16.9535 10.5196 15.8425 10.0955 14.9216 9.3831V14.5839C14.9215 15.1595 14.8066 15.7293 14.5837 16.2601C14.3609 16.7908 14.0345 17.2718 13.6236 17.6749C13.2091 18.0881 12.7164 18.4147 12.1744 18.6356C11.6324 18.8566 11.0519 18.9675 10.4666 18.9619C9.28953 18.9598 8.15983 18.498 7.3184 17.6749C6.78313 17.1352 6.39759 16.4655 6.1997 15.7316C6.00181 14.9978 5.9984 14.225 6.1898 13.4894C6.3647 12.7832 6.7178 12.1342 7.2161 11.6051C7.58772 11.1509 8.05615 10.7855 8.58714 10.5356C9.11813 10.2857 9.69826 10.1577 10.2851 10.1608H11.1871V12.0341C11.1875 12.0885 11.1763 12.1424 11.1542 12.1921C11.1322 12.2418 11.0998 12.2863 11.0592 12.3225C11.0186 12.3587 10.9707 12.3859 10.9188 12.4022C10.8669 12.4184 10.8121 12.4235 10.7581 12.4169C10.2344 12.2596 9.67004 12.3118 9.18405 12.5624C8.69805 12.8131 8.32836 13.2427 8.15291 13.7606C7.97746 14.2785 8.00996 14.8443 8.24356 15.3388C8.47716 15.8332 8.8936 16.2176 9.4051 16.411C9.7021 16.5815 10.0343 16.6816 10.3753 16.7047C10.6393 16.7157 10.9033 16.6827 11.1541 16.6035C11.573 16.4625 11.9373 16.1942 12.1963 15.8361C12.4552 15.4779 12.5958 15.0478 12.5984 14.6059V5.1294C12.5983 5.07745 12.6084 5.02598 12.6281 4.97794C12.6479 4.9299 12.677 4.88624 12.7137 4.84945C12.7504 4.81267 12.7939 4.78348 12.8419 4.76356C12.8899 4.74365 12.9414 4.7334 12.9933 4.7334H14.5498C14.651 4.73326 14.7484 4.77198 14.8219 4.84158C14.8954 4.91118 14.9393 5.00633 14.9447 5.1074C15.0016 5.5927 15.1559 6.06153 15.3982 6.48585C15.6405 6.91017 15.9659 7.28125 16.3549 7.5769C16.8808 7.97168 17.5054 8.21375 18.16 8.2765C18.258 8.28488 18.3497 8.32851 18.4181 8.39929C18.4864 8.47007 18.5268 8.56322 18.5318 8.6615L18.5329 9.4843Z" fill="#8AAFEA"/>
</g>
</svg>
