<svg width="20" height="15" viewBox="0 0 20 15" fill="none" xmlns="http://www.w3.org/2000/svg">
<g id="GB" clip-path="url(#clip0_2416_1955)">
<path id="Vector" d="M0 0.833252H20V14.1667H0V0.833252Z" fill="white"/>
<path id="Vector_2" d="M11.25 0.833008H8.75V6.24965H0V8.74965H8.75V14.1663H11.25V8.74965H20V6.24965H11.25V0.833008Z" fill="#D80027"/>
<g id="Group">
<path id="Vector_3" d="M15.3823 9.8186L20 12.3841V9.8186H15.3823ZM12.174 9.8186L20 14.1664V12.937L14.387 9.8186H12.174ZM17.9154 14.1664L12.174 10.9764V14.1664H17.9154Z" fill="#0052B4"/>
</g>
<path id="Vector_4" d="M12.174 9.8186L20 14.1664V12.937L14.387 9.8186H12.174Z" fill="white"/>
<path id="Vector_5" d="M12.174 9.8186L20 14.1664V12.937L14.387 9.8186H12.174Z" fill="#D80027"/>
<g id="Group_2">
<path id="Vector_6" d="M3.52895 9.81836L0 11.7789V9.81836H3.52895ZM7.82609 10.3713V14.1662H0.995742L7.82609 10.3713Z" fill="#0052B4"/>
</g>
<path id="Vector_7" d="M5.61301 9.8186L0 12.937V14.1664L7.82609 9.8186H5.61301Z" fill="#D80027"/>
<g id="Group_3">
<path id="Vector_8" d="M4.61777 5.18082L0 2.61535V5.18082H4.61777ZM7.82609 5.18082L0 0.833008V2.06246L5.61301 5.18082H7.82609ZM2.08461 0.833008L7.82609 4.02301V0.833008H2.08461Z" fill="#0052B4"/>
</g>
<path id="Vector_9" d="M7.82609 5.18082L0 0.833008V2.06246L5.61301 5.18082H7.82609Z" fill="white"/>
<path id="Vector_10" d="M7.82609 5.18082L0 0.833008V2.06246L5.61301 5.18082H7.82609Z" fill="#D80027"/>
<g id="Group_4">
<path id="Vector_11" d="M16.4711 5.1811L20 3.22056V5.1811H16.4711ZM12.174 4.62821V0.833252H19.0043L12.174 4.62821Z" fill="#0052B4"/>
</g>
<path id="Vector_12" d="M14.387 5.18082L20 2.06246V0.833008L12.174 5.18082H14.387Z" fill="#D80027"/>
</g>
<defs>
<clipPath id="clip0_2416_1955">
<rect width="20" height="13.3333" fill="white" transform="translate(0 0.833252)"/>
</clipPath>
</defs>
</svg>
