<svg width="24" height="16" viewBox="0 0 24 16" fill="none" xmlns="http://www.w3.org/2000/svg">
<g id="Frame" clip-path="url(#clip0_2416_2021)">
<g id="Group">
<path id="Vector" d="M4.54586 0H10.3396C11.1484 0 11.6514 0.725665 11.4627 1.61891L8.76533 14.3675C8.57497 15.2576 7.76522 15.9839 6.9559 15.9839H1.16269C0.35506 15.9839 -0.149091 15.2576 0.0395775 14.3675L2.73812 1.61891C2.92679 0.725665 3.73612 0 4.54586 0Z" fill="#DD2423"/>
<path id="Vector_2" d="M9.85751 0H16.5202C17.3288 0 16.9642 0.725665 16.774 1.61891L14.077 14.3675C13.8877 15.2576 13.9468 15.9839 13.1365 15.9839H6.47377C5.66346 15.9839 5.16199 15.2576 5.35236 14.3675L8.04921 1.61891C8.2407 0.725665 9.04833 0 9.85751 0Z" fill="#16315E"/>
<path id="Vector_3" d="M16.2559 0H22.0497C22.8596 0 23.3626 0.725665 23.1724 1.61891L20.4754 14.3675C20.285 15.2576 19.4747 15.9839 18.665 15.9839H12.8739C12.0636 15.9839 11.561 15.2576 11.7508 14.3675L14.4482 1.61891C14.6368 0.725665 15.4456 0 16.2559 0Z" fill="#036862"/>
<path id="Vector_4" d="M6.05899 4.0855C5.46319 4.09218 5.28723 4.0855 5.23103 4.07089C5.20942 4.1839 4.80737 6.22549 4.80624 6.2272C4.71967 6.64025 4.65669 6.93468 4.44274 7.1248C4.3213 7.23533 4.17951 7.28865 4.01513 7.28865C3.75091 7.28865 3.59699 7.14423 3.57114 6.87032L3.5662 6.77627C3.5662 6.77627 3.64669 6.22301 3.64669 6.2199C3.64669 6.2199 4.06866 4.35941 4.14421 4.11348C4.14816 4.09949 4.14929 4.09218 4.15028 4.0855C3.32895 4.09343 3.18336 4.0855 3.17333 4.07089C3.16782 4.09094 3.14749 4.20629 3.14749 4.20629L2.71663 6.30322L2.67963 6.48106L2.60803 7.06277C2.60803 7.23533 2.63882 7.37617 2.70011 7.49525C2.8964 7.87285 3.45633 7.92944 3.77309 7.92944C4.18121 7.92944 4.56405 7.83399 4.82276 7.65972C5.27184 7.36762 5.38933 6.91105 5.49412 6.50531L5.5427 6.29716C5.5427 6.29716 5.97737 4.36485 6.05122 4.11348C6.05405 4.09949 6.05518 4.09218 6.05899 4.0855ZM7.53793 5.64431C7.43315 5.64431 7.24165 5.67229 7.06965 5.7651C7.00723 5.80039 6.9482 5.84112 6.88592 5.88169L6.94213 5.6583L6.91134 5.62068C6.54658 5.70198 6.46495 5.71286 6.128 5.7651L6.09976 5.78577C6.06064 6.14285 6.0259 6.41132 5.88087 7.1132C5.82565 7.37188 5.76832 7.63305 5.71084 7.8911L5.72638 7.9239C6.07166 7.90385 6.17644 7.90385 6.47653 7.90929L6.50082 7.88022C6.53895 7.66523 6.54389 7.61486 6.62834 7.17943C6.66802 6.97298 6.75078 6.51937 6.79159 6.35785C6.86658 6.31961 6.94058 6.28199 7.01118 6.28199C7.17938 6.28199 7.1589 6.4435 7.1524 6.50786C7.1452 6.6159 7.08391 6.96879 7.02107 7.27177L6.97913 7.46733C6.9499 7.61175 6.91784 7.75213 6.88861 7.8953L6.90132 7.9239C7.24165 7.90385 7.34545 7.90385 7.63608 7.90929L7.67025 7.88022C7.72278 7.54444 7.73818 7.45458 7.83138 6.96568L7.87827 6.74104C7.96935 6.30142 8.01511 6.0785 7.94619 5.89692C7.87332 5.69343 7.6985 5.64431 7.53793 5.64431ZM9.19007 6.1046C9.00917 6.14284 8.8938 6.16833 8.77913 6.18481C8.66545 6.20486 8.55459 6.22305 8.37976 6.24979L8.36592 6.26363L8.35321 6.27466C8.335 6.41799 8.32229 6.54189 8.29814 6.68755C8.27766 6.83819 8.24617 7.00934 8.19491 7.25527C8.15522 7.44353 8.13475 7.50913 8.11215 7.57536C8.09012 7.64158 8.06583 7.70594 8.02121 7.89109L8.03166 7.90819L8.04041 7.92389C8.2038 7.91534 8.31071 7.90927 8.42057 7.90819C8.5303 7.90383 8.64398 7.90819 8.81994 7.90927L8.83533 7.89544L8.85186 7.8802C8.87728 7.71325 8.88109 7.66832 8.89662 7.58686C8.91202 7.49949 8.93856 7.37855 9.00367 7.05552C9.03445 6.90379 9.06877 6.75253 9.10068 6.5977C9.13387 6.44349 9.16861 6.29161 9.20165 6.13988L9.19671 6.12154L9.19007 6.1046ZM9.19393 5.48399C9.02955 5.37719 8.74104 5.41108 8.54687 5.55861C8.35326 5.70318 8.33123 5.90838 8.49504 6.01658C8.65659 6.12042 8.94623 6.08949 9.13871 5.94072C9.3319 5.79303 9.35605 5.5897 9.19393 5.48399ZM10.188 7.95736C10.5206 7.95736 10.8615 7.85647 11.1181 7.55706C11.3155 7.31424 11.406 6.95296 11.4374 6.80419C11.5395 6.31109 11.46 6.08086 11.3602 5.94064C11.2085 5.72689 10.9405 5.65833 10.6624 5.65833C10.4952 5.65833 10.097 5.67652 9.78585 5.99225C9.56244 6.21999 9.45921 6.52904 9.39693 6.82533C9.33409 7.12723 9.26179 7.6707 9.7158 7.87294C9.85589 7.93917 10.0578 7.95736 10.188 7.95736ZM10.1621 6.84787C10.2387 6.47447 10.3293 6.16107 10.5603 6.16107C10.7413 6.16107 10.7545 6.39426 10.674 6.7689C10.6596 6.85207 10.5935 7.16127 10.5041 7.29294C10.4417 7.3901 10.3678 7.44902 10.2862 7.44902C10.2619 7.44902 10.1174 7.44902 10.1152 7.21288C10.114 7.09629 10.1356 6.97721 10.1621 6.84787ZM12.2688 7.90934L12.2947 7.88027C12.3316 7.66527 12.3377 7.61475 12.4193 7.17947C12.4601 6.97303 12.5446 6.51941 12.5842 6.35789C12.6594 6.3195 12.7321 6.28188 12.805 6.28188C12.972 6.28188 12.9517 6.44339 12.945 6.50775C12.939 6.61595 12.8777 6.96868 12.8137 7.27166L12.774 7.46722C12.7437 7.6118 12.7106 7.75202 12.6814 7.89535L12.6941 7.92395C13.0356 7.9039 13.1354 7.9039 13.4277 7.90934L13.463 7.88027C13.5143 7.54433 13.5281 7.45447 13.6242 6.96572L13.6699 6.74094C13.7614 6.30131 13.8078 6.07854 13.74 5.89697C13.665 5.69348 13.489 5.64436 13.3307 5.64436C13.2258 5.64436 13.0333 5.67218 12.8623 5.76514C12.8011 5.80043 12.7399 5.84101 12.6797 5.88174L12.7321 5.65835L12.704 5.62057C12.3394 5.70203 12.256 5.71291 11.9195 5.76514L11.8937 5.78582C11.8529 6.1429 11.8197 6.41122 11.6746 7.11325C11.6194 7.37193 11.5621 7.63309 11.5048 7.89115L11.5202 7.92395C11.866 7.9039 11.9692 7.9039 12.2688 7.90934ZM14.7776 7.92387C14.799 7.80852 14.9266 7.12483 14.9277 7.12483C14.9277 7.12483 15.0363 6.62318 15.0429 6.60499C15.0429 6.60499 15.0771 6.55276 15.1113 6.53208H15.1615C15.6359 6.53208 16.1715 6.53208 16.5914 6.1921C16.8771 5.95892 17.0724 5.61459 17.1595 5.1961C17.1821 5.0935 17.1988 4.97147 17.1988 4.84944C17.1988 4.68916 17.1695 4.5306 17.0851 4.4067C16.871 4.07698 16.4447 4.07092 15.9525 4.06843C15.951 4.06843 15.7099 4.07092 15.7099 4.07092C15.0799 4.07947 14.8273 4.07698 14.7235 4.06299C14.7147 4.11351 14.6982 4.20336 14.6982 4.20336C14.6982 4.20336 14.4725 5.35466 14.4725 5.35653C14.4725 5.35653 13.9325 7.80433 13.9071 7.91967C14.4571 7.91237 14.6827 7.91237 14.7776 7.92387ZM15.1957 5.8787C15.1957 5.8787 15.4356 4.72974 15.4345 4.73409L15.4423 4.67517L15.4457 4.63024L15.5416 4.64113C15.5416 4.64113 16.0364 4.68792 16.048 4.68916C16.2433 4.77233 16.3238 4.9867 16.2676 5.26652C16.2163 5.52225 16.0656 5.73724 15.872 5.84108C15.7126 5.92907 15.5173 5.93638 15.316 5.93638H15.1858L15.1957 5.8787ZM16.6896 6.86916C16.6262 7.1667 16.5533 7.71017 17.0051 7.90386C17.1491 7.97133 17.2782 7.99139 17.4094 7.98408C17.5479 7.97584 17.6763 7.89936 17.7952 7.78929C17.7845 7.83453 17.7737 7.87977 17.763 7.92516L17.7835 7.95423C18.1084 7.93915 18.2092 7.93915 18.5613 7.94211L18.5932 7.91537C18.6446 7.58269 18.6931 7.25966 18.8266 6.62323C18.8917 6.31838 18.9567 6.01648 19.0235 5.71288L19.0131 5.67946C18.6496 5.75361 18.5524 5.76947 18.2027 5.82403L18.1762 5.84782C18.1727 5.87875 18.169 5.90844 18.1656 5.93813C18.1112 5.84144 18.0324 5.7589 17.9108 5.70744C17.7554 5.64013 17.3902 5.72687 17.0762 6.04151C16.8557 6.26615 16.7497 6.57395 16.6896 6.86916ZM17.453 6.88734C17.5308 6.52063 17.6202 6.21034 17.8518 6.21034C17.9983 6.21034 18.0754 6.35911 18.0597 6.61281C18.0473 6.67608 18.0338 6.74277 18.0179 6.81817C17.9947 6.92714 17.9696 7.03518 17.9452 7.14338C17.9203 7.21737 17.8914 7.28717 17.8596 7.33366C17.8 7.42662 17.6582 7.48429 17.5766 7.48429C17.5534 7.48429 17.4105 7.48429 17.4056 7.25235C17.4044 7.13685 17.426 7.01793 17.453 6.88734ZM21.4397 5.67649L21.4116 5.6412C21.0519 5.72141 20.9868 5.73416 20.6563 5.78329L20.6321 5.81002C20.6309 5.81438 20.6299 5.82106 20.6282 5.82712L20.6271 5.82106C20.3811 6.44584 20.3883 6.31106 20.1881 6.80292C20.1869 6.78053 20.1869 6.76654 20.1858 6.74275L20.1357 5.67649L20.1042 5.6412C19.7274 5.72141 19.7185 5.73416 19.3706 5.78329L19.3434 5.81002C19.3396 5.82277 19.3396 5.83676 19.3374 5.852L19.3396 5.85744C19.3831 6.10212 19.3727 6.04756 19.4163 6.43371C19.4366 6.62321 19.4638 6.8138 19.4841 7.00097C19.5184 7.31421 19.5376 7.46842 19.5796 7.94644C19.3446 8.37332 19.2889 8.53484 19.0627 8.90949L19.0642 8.91322L18.905 9.19055C18.8867 9.21978 18.8702 9.23983 18.8471 9.24838C18.8216 9.26222 18.7886 9.2647 18.7427 9.2647H18.6544L18.5232 9.74506L18.9733 9.75361C19.2375 9.75237 19.4036 9.61634 19.493 9.43353L19.776 8.89969H19.7715L19.8013 8.86207C19.9916 8.41094 21.4397 5.67649 21.4397 5.67649ZM16.6896 11.9852H16.4986L17.2053 9.41231H17.4397L17.5141 9.14726L17.5213 9.442C17.5126 9.62419 17.6428 9.78571 17.9848 9.75897H18.3804L18.5165 9.26354H18.3677C18.2821 9.26354 18.2424 9.23975 18.2474 9.18876L18.2402 8.88889H17.5077V8.89045C17.2708 8.89589 16.5636 8.91547 16.4204 8.95745C16.2471 9.00657 16.0645 9.15114 16.0645 9.15114L16.1363 8.88578H15.4511L15.3083 9.41231L14.5922 12.0246H14.4532L14.317 12.5164H15.6817L15.6359 12.6804H16.3084L16.353 12.5164H16.5417L16.6896 11.9852ZM16.1296 9.9351C16.0199 9.96853 15.8157 10.0699 15.8157 10.0699L15.9973 9.41231H16.5417L16.4104 9.89142C16.4104 9.89142 16.2422 9.9023 16.1296 9.9351ZM16.1401 10.8745C16.1401 10.8745 15.9691 10.8981 15.8565 10.9261C15.7457 10.9631 15.5378 11.0797 15.5378 11.0797L15.7253 10.3954H16.2726L16.1401 10.8745ZM15.8351 11.9913H15.289L15.4473 11.4138H15.9917L15.8351 11.9913ZM17.1502 10.3954H17.9373L17.8242 10.7987H17.0266L16.9069 11.2395H17.6048L17.0763 12.0586C17.0393 12.1188 17.0061 12.1401 16.9693 12.157C16.9323 12.1777 16.8837 12.202 16.8275 12.202H16.6339L16.5008 12.6848H17.0073C17.2705 12.6848 17.426 12.553 17.5408 12.3799L17.9031 11.834L17.981 12.3883C17.9975 12.4922 18.0653 12.553 18.1112 12.5766C18.1619 12.6046 18.2143 12.6526 18.2883 12.6598C18.3676 12.6635 18.425 12.6665 18.4631 12.6665H18.7119L18.8613 12.1261H18.7632C18.7068 12.1261 18.6098 12.1157 18.5933 12.0962C18.5768 12.0726 18.5768 12.0362 18.5679 11.9809L18.4889 11.4253H18.1657L18.3075 11.2395H19.1035L19.2259 10.7987H18.4889L18.6037 10.3954H19.3385L19.4748 9.89811H17.2842L17.1502 10.3954ZM10.5019 12.1036L10.6856 11.4308H11.4407L11.5786 10.9304H10.8228L10.9382 10.5162H11.6768L11.8136 10.0317H9.96565L9.83163 10.5162H10.2515L10.1395 10.9304H9.71851L9.57899 11.4393H9.99869L9.75382 12.3295C9.72077 12.4473 9.76935 12.4922 9.80014 12.547C9.83163 12.6003 9.86355 12.6356 9.93528 12.6556C10.0093 12.6738 10.06 12.6847 10.1289 12.6847H10.9802L11.1318 12.1303L10.7545 12.1874C10.6816 12.1874 10.4798 12.1777 10.5019 12.1036ZM10.5885 8.88275L10.3971 9.26346C10.3562 9.34663 10.3193 9.39824 10.2861 9.42202C10.2569 9.44208 10.199 9.45047 10.1151 9.45047H10.0153L9.88181 9.93751H10.2134C10.3728 9.93751 10.4953 9.87316 10.5537 9.84098C10.6166 9.80398 10.6331 9.82512 10.6817 9.77351L10.7937 9.66671H11.8291L11.9665 9.15962H11.2086L11.3409 8.88275H10.5885ZM12.1171 12.1134C12.0994 12.0854 12.1121 12.0361 12.1391 11.9335L12.4221 10.9024H13.4288C13.5756 10.9 13.6815 10.8982 13.7504 10.8927C13.8244 10.8842 13.9049 10.8551 13.9926 10.8029C14.0831 10.7482 14.1294 10.6905 14.1686 10.6243C14.2122 10.5582 14.2822 10.4136 14.3424 10.1907L14.6981 8.88581L13.6534 8.8925C13.6534 8.8925 13.3317 8.94473 13.19 9.0024C13.0471 9.06676 12.8429 9.24647 12.8429 9.24647L12.9373 8.88877H12.2919L11.3884 12.1874C11.3563 12.3155 11.3349 12.4084 11.3299 12.4642C11.3282 12.5244 11.3988 12.5839 11.4446 12.6289C11.4987 12.6738 11.5786 12.6665 11.6553 12.6738C11.7359 12.6805 11.8506 12.6847 12.0089 12.6847H12.5049L12.6571 12.1188L12.2131 12.165C12.1656 12.165 12.1313 12.137 12.1171 12.1134ZM12.6047 10.2059H13.6621L13.5949 10.4379C13.5855 10.4433 13.5629 10.4264 13.4553 10.4404H12.5396L12.6047 10.2059ZM12.8165 9.42804H13.8829L13.8062 9.70739C13.8062 9.70739 13.3036 9.70195 13.2231 9.71828C12.8689 9.78574 12.662 9.99405 12.662 9.99405L12.8165 9.42804ZM13.6186 11.2146C13.6098 11.2492 13.596 11.2704 13.5766 11.2862C13.5552 11.3015 13.5204 11.3069 13.4686 11.3069H13.3179L13.3268 11.0245H12.7001L12.6747 12.4054C12.6737 12.505 12.6825 12.5627 12.7487 12.6089C12.8149 12.6665 13.019 12.6738 13.2936 12.6738H13.6864L13.8282 12.1569L13.4863 12.1776L13.3726 12.1849C13.3571 12.1776 13.3422 12.1709 13.3257 12.1527C13.3113 12.137 13.287 12.1467 13.291 12.047L13.2936 11.6931L13.6522 11.6767C13.8458 11.6767 13.9286 11.6074 13.9992 11.5413C14.0665 11.4781 14.0886 11.4053 14.114 11.3069L14.1741 10.9935H13.6814L13.6186 11.2146Z" fill="#FEFEFE"/>
</g>
</g>
<defs>
<clipPath id="clip0_2416_2021">
<rect width="24" height="16" fill="white"/>
</clipPath>
</defs>
</svg>
