<svg width="25" height="16" viewBox="0 0 25 16" fill="none" xmlns="http://www.w3.org/2000/svg">
<g id="319">
<g id="New-Icons">
<g id="Card-Brands">
<g id="Color">
<g id="Visa">
<path id="Container" d="M21.7726 0.25H2.27255C1.16798 0.25 0.272552 1.14543 0.272552 2.25V13.75C0.272552 14.8546 1.16798 15.75 2.27255 15.75H21.7726C22.8771 15.75 23.7726 14.8546 23.7726 13.75V2.25C23.7726 1.14543 22.8771 0.25 21.7726 0.25Z" fill="white" stroke="black" stroke-opacity="0.2" stroke-width="0.5"/>
<path id="Shape" d="M2.81029 5.91444C2.28714 5.62751 1.69009 5.39674 1.02255 5.23659L1.05055 5.11188H3.78753C4.15851 5.12489 4.45954 5.23651 4.5575 5.63071L5.15232 8.46659L5.33454 9.32073L7.00052 5.11188H8.79934L6.12543 11.2775H4.32652L2.81029 5.91444ZM10.1225 11.2841H8.42138L9.4854 5.11188H11.1865L10.1225 11.2841ZM16.2893 5.26277L16.058 6.59559L15.9041 6.53004C15.5963 6.40525 15.19 6.28054 14.6369 6.29371C13.9653 6.29371 13.6641 6.56277 13.6571 6.82546C13.6571 7.11441 14.0215 7.30484 14.6165 7.58725C15.5966 8.02719 16.0512 8.56557 16.0444 9.26819C16.0306 10.5486 14.8686 11.3761 13.0836 11.3761C12.3204 11.3694 11.5853 11.2181 11.1864 11.0476L11.4244 9.66205L11.6484 9.76066C12.2014 9.99071 12.5654 10.089 13.2445 10.089C13.7343 10.089 14.2594 9.89838 14.2661 9.48488C14.2661 9.21565 14.0424 9.01851 13.3843 8.71646C12.7403 8.42087 11.8794 7.92848 11.8933 7.04198C11.9006 5.84042 13.0836 5 14.7635 5C15.4216 5 15.9538 5.13789 16.2893 5.26277ZM18.5503 9.09749H19.9643C19.8943 8.78889 19.5722 7.31147 19.5722 7.31147L19.4533 6.77964C19.3693 7.00943 19.2224 7.38373 19.2295 7.37056C19.2295 7.37056 18.6904 8.7429 18.5503 9.09749ZM20.6502 5.11188L22.0226 11.284H20.4475C20.4475 11.284 20.2933 10.5748 20.2445 10.3581H18.0603C17.9972 10.5222 17.7033 11.284 17.7033 11.284H15.9184L18.4452 5.62399C18.6203 5.22342 18.9285 5.11188 19.3343 5.11188H20.6502Z" fill="#1434CB"/>
</g>
</g>
</g>
</g>
</g>
</svg>
