<svg width="24" height="16" viewBox="0 0 24 16" fill="none" xmlns="http://www.w3.org/2000/svg">
<g id="icon/creditCard/Visa" clip-path="url(#clip0_2416_2027)">
<g id="319">
<g id="New-Icons">
<g id="Card-Brands">
<g id="Color">
<g id="Visa">
<path id="Container" d="M21.75 0.25H2.25C1.14543 0.25 0.25 1.14543 0.25 2.25V13.75C0.25 14.8546 1.14543 15.75 2.25 15.75H21.75C22.8546 15.75 23.75 14.8546 23.75 13.75V2.25C23.75 1.14543 22.8546 0.25 21.75 0.25Z" fill="white" stroke="black" stroke-opacity="0.2" stroke-width="0.5"/>
</g>
</g>
</g>
</g>
</g>
<g id="JCB">
<path id="Vector" d="M15.5174 7.92508C15.8598 7.93252 16.2042 7.90995 16.5453 7.9368C16.8907 8.00124 16.974 8.52416 16.6671 8.69542C16.4577 8.80824 16.209 8.73744 15.982 8.75734H15.5174V7.92508ZM16.7433 6.98306C16.8194 7.25162 16.5605 7.49274 16.3018 7.45575H15.5174C15.5229 7.2025 15.5066 6.92762 15.5253 6.6877C15.8396 6.69655 16.1568 6.66965 16.4692 6.70177C16.6035 6.7355 16.7158 6.84586 16.7433 6.98306ZM18.6313 3.00051C18.6459 3.51337 18.6334 4.05335 18.6376 4.57662C18.6366 6.70405 18.6396 8.83142 18.6359 10.959C18.6221 11.7563 17.9155 12.4491 17.1237 12.465C16.3312 12.4682 15.5385 12.4655 14.7458 12.4664V9.25013C15.6095 9.24568 16.4736 9.25919 17.3369 9.24339C17.7373 9.21825 18.176 8.954 18.1947 8.51329C18.2418 8.07066 17.8245 7.76451 17.4283 7.71616C17.276 7.7122 17.2805 7.67176 17.4283 7.65412C17.8062 7.57245 18.1029 7.18134 17.9917 6.78965C17.897 6.37768 17.4417 6.21823 17.0629 6.21902C16.2907 6.21378 15.5183 6.21829 14.746 6.21677C14.751 5.61633 14.7356 5.01526 14.7543 4.41527C14.8155 3.63235 15.5399 2.9867 16.3205 3.00071C17.0909 3.00059 17.8611 3.00059 18.6313 3.00057V3.00051Z" fill="url(#paint0_linear_2416_2027)"/>
<path id="Vector_2" d="M6.02054 4.4965C6.04026 3.70046 6.74989 3.01334 7.54065 3.00171C8.33028 2.99928 9.12002 3.00136 9.90964 3.00065C9.90748 5.66404 9.91392 8.32773 9.90639 10.991C9.87597 11.7773 9.17409 12.4514 8.39194 12.4653C7.60082 12.4682 6.80961 12.4657 6.01846 12.4665V9.14182C6.78693 9.32337 7.59279 9.40064 8.37676 9.28023C8.84537 9.20483 9.35809 8.97469 9.51675 8.48852C9.6335 8.07266 9.56777 7.63498 9.58515 7.20816V6.21691H8.22841C8.22232 6.8725 8.2409 7.52922 8.2186 8.18401C8.18202 8.58649 7.78345 8.84221 7.40386 8.82855C6.9331 8.83353 6.00023 8.48738 6.00023 8.48738C5.99789 7.25909 6.01389 5.72084 6.02054 4.49662V4.4965Z" fill="url(#paint1_linear_2416_2027)"/>
<path id="Vector_3" d="M10.4173 6.61639C10.3459 6.63154 10.403 6.37313 10.3847 6.27511C10.3896 5.6553 10.3746 5.03483 10.393 4.41547C10.454 3.62924 11.184 2.98198 11.9678 3.00038H14.2761C14.2739 5.66377 14.2803 8.32746 14.2728 10.9907C14.2424 11.7771 13.5405 12.4511 12.7583 12.465C11.9671 12.468 11.1759 12.4655 10.3847 12.4662V8.82362C10.9251 9.26698 11.6595 9.33599 12.3327 9.33719C12.8402 9.33702 13.3447 9.25877 13.8375 9.14173V8.47439C13.2821 8.75121 12.6292 8.92704 12.0135 8.768C11.584 8.66109 11.2723 8.24602 11.2792 7.80278C11.2294 7.34184 11.4996 6.8552 11.9526 6.71817C12.515 6.5421 13.1279 6.67676 13.6551 6.90566C13.768 6.9648 13.8827 7.03815 13.8375 6.84937V6.32484C12.9559 6.11507 12.0176 6.03788 11.1318 6.26608C10.8754 6.3384 10.6256 6.44809 10.4173 6.61645V6.61639Z" fill="url(#paint2_linear_2416_2027)"/>
</g>
</g>
<defs>
<linearGradient id="paint0_linear_2416_2027" x1="14.7193" y1="7.53105" x2="18.613" y2="7.53105" gradientUnits="userSpaceOnUse">
<stop stop-color="#58B03A"/>
<stop offset="1" stop-color="#55B330"/>
</linearGradient>
<linearGradient id="paint1_linear_2416_2027" x1="5.93567" y1="7.82421" x2="9.84584" y2="7.82421" gradientUnits="userSpaceOnUse">
<stop stop-color="#0F6EB6"/>
<stop offset="1" stop-color="#006DBA"/>
</linearGradient>
<linearGradient id="paint2_linear_2416_2027" x1="10.379" y1="7.62262" x2="14.2754" y2="7.62262" gradientUnits="userSpaceOnUse">
<stop stop-color="#DE0D3D"/>
<stop offset="1" stop-color="#E30138"/>
</linearGradient>
<clipPath id="clip0_2416_2027">
<rect width="24" height="16" fill="white"/>
</clipPath>
</defs>
</svg>
