<svg width="25" height="24" viewBox="0 0 25 24" fill="none" xmlns="http://www.w3.org/2000/svg">
<path d="M12.1641 2C17.6871 2 22.1641 6.477 22.1641 12C22.1641 17.523 17.6871 22 12.1641 22C10.3969 22.0029 8.66073 21.5352 7.13408 20.645L2.16808 22L3.52008 17.032C2.62917 15.5049 2.16112 13.768 2.16408 12C2.16408 6.477 6.64108 2 12.1641 2ZM8.75608 7.3L8.55608 7.308C8.4266 7.31589 8.30006 7.3499 8.18408 7.408C8.0756 7.46943 7.97657 7.54622 7.89008 7.636C7.77008 7.749 7.70208 7.847 7.62908 7.942C7.2592 8.4229 7.06005 9.01331 7.06308 9.62C7.06508 10.11 7.19308 10.587 7.39308 11.033C7.80208 11.935 8.47508 12.89 9.36308 13.775C9.57708 13.988 9.78708 14.202 10.0131 14.401C11.1165 15.3725 12.4313 16.073 13.8531 16.447L14.4211 16.534C14.6061 16.544 14.7911 16.53 14.9771 16.521C15.2683 16.506 15.5527 16.4271 15.8101 16.29C15.941 16.2225 16.0688 16.1491 16.1931 16.07C16.1931 16.07 16.2361 16.042 16.3181 15.98C16.4531 15.88 16.5361 15.809 16.6481 15.692C16.7311 15.606 16.8031 15.505 16.8581 15.39C16.9361 15.227 17.0141 14.916 17.0461 14.657C17.0701 14.459 17.0631 14.351 17.0601 14.284C17.0561 14.177 16.9671 14.066 16.8701 14.019L16.2881 13.758C16.2881 13.758 15.4181 13.379 14.8861 13.137C14.8304 13.1127 14.7708 13.0988 14.7101 13.096C14.6417 13.089 14.5725 13.0967 14.5073 13.1186C14.4421 13.1405 14.3824 13.1761 14.3321 13.223C14.3271 13.221 14.2601 13.278 13.5371 14.154C13.4956 14.2098 13.4384 14.2519 13.3729 14.2751C13.3073 14.2982 13.2364 14.3013 13.1691 14.284C13.1039 14.2665 13.0401 14.2445 12.9781 14.218C12.8541 14.166 12.8111 14.146 12.7261 14.11C12.1521 13.8595 11.6208 13.5211 11.1511 13.107C11.0251 12.997 10.9081 12.877 10.7881 12.761C10.3947 12.3842 10.0518 11.958 9.76808 11.493L9.70908 11.398C9.6667 11.3342 9.63244 11.2653 9.60708 11.193C9.56908 11.046 9.66808 10.928 9.66808 10.928C9.66808 10.928 9.91108 10.662 10.0241 10.518C10.1341 10.378 10.2271 10.242 10.2871 10.145C10.4051 9.955 10.4421 9.76 10.3801 9.609C10.1001 8.925 9.81008 8.244 9.51208 7.568C9.45308 7.434 9.27808 7.338 9.11908 7.319C9.06508 7.313 9.01108 7.307 8.95708 7.303C8.82278 7.29633 8.68821 7.29766 8.55408 7.307L8.75608 7.3Z" fill="#25D366"/>
</svg>
