<svg width="25" height="25" viewBox="0 0 25 25" fill="none" xmlns="http://www.w3.org/2000/svg">
<g id="icon">
<circle id="Ellipse 19" cx="11" cy="11" r="11" fill="#FCFCFC"/>
<g id="icon_2">
<path d="M11 1C5.48 1 1 5.48 1 11C1 16.52 5.48 21 11 21C16.52 21 21 16.52 21 11C21 5.48 16.52 1 11 1ZM11 19C6.58 19 3 15.42 3 11C3 6.58 6.58 3 11 3C15.42 3 19 6.58 19 11C19 15.42 15.42 19 11 19Z" fill="#4285F4"/>
<path d="M11 16C13.7614 16 16 13.7614 16 11C16 8.23858 13.7614 6 11 6C8.23858 6 6 8.23858 6 11C6 13.7614 8.23858 16 11 16Z" fill="#4285F4"/>
</g>
</g>
</svg>
