<svg xmlns="http://www.w3.org/2000/svg" viewBox="0 0 96 99" fill="#ffffff"><path d="M48 4.8c-23.4 0-42.4 19-42.4 42.4 0 5.3 1 10.5 2.9 15.4 1.5 4 3.7 7.7 6.4 11.1L8.7 88.4c-.3.7-.2 1.5.3 2 .4.5 1 .8 1.6.8h.3l22.9-4c4.6 1.6 9.4 2.5 14.2 2.5 23.4 0 42.4-19 42.4-42.4S71.4 4.8 48 4.8zm0 80.8c-4.5 0-9-.8-13.3-2.4-.3-.1-.7-.2-1-.1l-19.8 3.5 5.3-12.4a2.01 2.01 0 0 0-.3-2.1c-2.8-3.3-5-7-6.5-10.9-1.7-4.5-2.6-9.2-2.6-14C9.6 26 26.8 8.8 48 8.8S86.4 26 86.4 47.2 69.2 85.6 48 85.6z"/><circle cx="32.8" cy="48" r="4.6"/><circle cx="48" cy="48" r="4.6"/><circle cx="63.2" cy="48" r="4.6"/></svg>