<svg width="14" height="13" viewBox="0 0 14 13" fill="none" xmlns="http://www.w3.org/2000/svg">
<path d="M12.848 4.77008L11.936 2.03408C11.8037 1.63574 11.5493 1.28921 11.2088 1.04375C10.8683 0.798292 10.4591 0.666376 10.0394 0.666749H3.96071C3.54097 0.666376 3.13178 0.798292 2.7913 1.04375C2.45081 1.28921 2.19634 1.63574 2.06404 2.03408L1.15204 4.77008C0.909522 4.87156 0.702414 5.04246 0.556752 5.26131C0.411089 5.48016 0.333374 5.73719 0.333374 6.00008V9.33341C0.333374 9.82541 0.602707 10.2507 1.00004 10.4821V12.0001C1.00004 12.1769 1.07028 12.3465 1.1953 12.4715C1.32033 12.5965 1.4899 12.6667 1.66671 12.6667H2.33337C2.51018 12.6667 2.67975 12.5965 2.80478 12.4715C2.9298 12.3465 3.00004 12.1769 3.00004 12.0001V10.6667H11V12.0001C11 12.1769 11.0703 12.3465 11.1953 12.4715C11.3203 12.5965 11.4899 12.6667 11.6667 12.6667H12.3334C12.5102 12.6667 12.6798 12.5965 12.8048 12.4715C12.9298 12.3465 13 12.1769 13 12.0001V10.4821C13.2023 10.3661 13.3704 10.1988 13.4875 9.99718C13.6045 9.79552 13.6663 9.56658 13.6667 9.33341V6.00008C13.6667 5.73719 13.589 5.48016 13.4433 5.26131C13.2977 5.04246 13.0906 4.87156 12.848 4.77008ZM3.96071 2.00008H10.0387C10.326 2.00008 10.5807 2.18275 10.6714 2.45608L11.4087 4.66675H2.59137L3.32804 2.45608C3.37227 2.32328 3.45719 2.20777 3.57074 2.12592C3.68429 2.04407 3.82073 2.00005 3.96071 2.00008V2.00008ZM2.66671 8.66675C2.53534 8.6667 2.40527 8.64079 2.28392 8.59047C2.16257 8.54016 2.05232 8.46644 1.95946 8.37352C1.8666 8.2806 1.79296 8.1703 1.74273 8.04892C1.69249 7.92754 1.66666 7.79745 1.66671 7.66608C1.66675 7.53472 1.69267 7.40465 1.74298 7.2833C1.79329 7.16195 1.86701 7.0517 1.95993 6.95884C2.05285 6.86598 2.16315 6.79233 2.28454 6.7421C2.40592 6.69187 2.53601 6.66604 2.66737 6.66608C2.93268 6.66617 3.18708 6.77165 3.37462 6.95931C3.56216 7.14697 3.66746 7.40144 3.66737 7.66675C3.66729 7.93205 3.56181 8.18646 3.37415 8.37399C3.18649 8.56153 2.93201 8.66684 2.66671 8.66675V8.66675ZM11.3334 8.66675C11.202 8.6667 11.0719 8.64079 10.9506 8.59047C10.8292 8.54016 10.719 8.46644 10.6261 8.37352C10.5333 8.2806 10.4596 8.1703 10.4094 8.04892C10.3592 7.92754 10.3333 7.79745 10.3334 7.66608C10.3334 7.53472 10.3593 7.40465 10.4096 7.2833C10.46 7.16195 10.5337 7.0517 10.6266 6.95884C10.7195 6.86598 10.8298 6.79233 10.9512 6.7421C11.0726 6.69187 11.2027 6.66604 11.334 6.66608C11.5993 6.66617 11.8537 6.77165 12.0413 6.95931C12.2288 7.14697 12.3341 7.40144 12.334 7.66675C12.334 7.93205 12.2285 8.18646 12.0408 8.37399C11.8532 8.56153 11.5987 8.66684 11.3334 8.66675V8.66675Z" fill="#484848"/>
</svg>
