<svg width="59" height="47" viewBox="0 0 59 47" fill="none" xmlns="http://www.w3.org/2000/svg">
<g filter="url(#filter0_d_116_312)">
<path d="M55 12.9117V14.2828C54.9213 14.5913 54.8436 14.8998 54.7649 15.2083C54.5388 16.0927 54.2549 16.3373 53.4421 16.3384H49.0822C49.1539 16.4755 49.1679 16.5406 49.1997 16.5566C50.4429 17.1714 50.8104 18.3209 50.8045 19.7846C50.7825 25.4405 50.7825 31.0958 50.8045 36.7503C50.8045 37.6312 50.5793 38.2939 49.8223 38.6207H43.6465C42.8895 38.2951 42.6504 37.6381 42.6614 36.7537C42.6863 35.3277 42.6684 33.8971 42.6684 32.4723V30.892H16.3336C16.3336 32.8745 16.3177 34.8146 16.3416 36.7537C16.3516 37.6381 16.1125 38.2951 15.3555 38.6207H9.17969C8.54916 38.3396 8.20351 37.8312 8.20351 37.0359C8.20351 31.1148 8.19754 25.1926 8.21049 19.2715C8.21049 18.0683 8.6926 17.1599 9.66778 16.6435C9.773 16.5659 9.8729 16.4792 9.9666 16.3841C9.69965 16.3658 9.54326 16.3453 9.38787 16.3453C8.06007 16.3453 6.73129 16.3453 5.40349 16.3453C4.77894 16.3453 4.47015 16.0676 4.28388 15.3774L4 14.2828V12.9117C4.06873 12.6409 4.13945 12.3701 4.20619 12.0993C4.46517 11.0458 4.69328 10.8424 5.6326 10.8424H9.26038C10.5782 10.8424 10.5882 10.8504 11.0235 12.2695C11.0529 12.3478 11.0861 12.4241 11.1231 12.498C11.1818 12.3232 11.2316 12.1838 11.2765 12.041C12.2321 9.01379 13.187 5.98697 14.1412 2.96054C14.6293 1.40657 15.5517 0.430767 16.9761 0.103976C17.0375 0.0787321 17.0955 0.0437343 17.1484 0H41.8516C41.8924 0.0297083 41.9303 0.0788434 41.9751 0.0879844C43.4692 0.406777 44.4036 1.45913 44.9026 3.07023C45.3389 4.48366 45.7861 5.89137 46.2304 7.29795C46.7713 9.01188 47.3131 10.7315 47.8879 12.554C47.9875 12.2112 48.0552 11.9759 48.115 11.7416C48.2624 11.1566 48.5991 10.8458 49.128 10.8435C50.6554 10.8382 52.1827 10.8382 53.7101 10.8435C54.2211 10.8435 54.5448 11.1612 54.6942 11.7108C54.8008 12.1118 54.9004 12.5129 55 12.9117ZM44.541 16.3692C44.4852 16.1556 44.4534 16.0105 44.4085 15.8688C43.3128 12.3895 42.2092 8.91133 41.1214 5.42633C40.9939 5.01612 40.8226 4.895 40.4471 4.89615C33.1424 4.91138 25.8377 4.91138 18.533 4.89615C18.1585 4.89615 17.9842 5.01041 17.8557 5.42404C16.7729 8.91019 15.6643 12.3872 14.5745 15.8676C14.5267 16.0173 14.5008 16.1761 14.456 16.3692H44.541ZM16.3028 20.2245C15.5059 20.2245 14.709 20.2005 13.9121 20.2245C12.5475 20.2736 11.6829 21.5956 12.0654 23.0228C12.3124 23.9426 12.9858 24.4967 13.9719 24.5082C15.4969 24.5299 17.0219 24.5196 18.547 24.5082C18.7948 24.5071 19.0411 24.4624 19.2771 24.3756C19.6819 24.2222 20.0277 23.9122 20.2553 23.4987C20.483 23.0852 20.5784 22.5939 20.5252 22.1087C20.4077 21.0506 19.6427 20.2656 18.6326 20.2245C17.8606 20.2005 17.0817 20.2245 16.3028 20.2245ZM42.7311 20.2245C41.9681 20.2245 41.2061 20.2108 40.4401 20.2245C39.4579 20.245 38.7617 20.8495 38.5216 21.8573C38.2367 23.0502 38.942 24.3928 40.0158 24.4442C41.8336 24.5287 43.6575 24.4682 45.4783 24.4613C45.5937 24.4508 45.7065 24.4175 45.812 24.363C46.6149 24.0203 47.1329 23.0319 47.0073 22.1064C46.853 21.006 46.1298 20.2679 45.1148 20.229C44.3229 20.2016 43.526 20.2245 42.7311 20.2245Z" fill="#2E006C"/>
</g>
<defs>
<filter id="filter0_d_116_312" x="0" y="0" width="59" height="46.6206" filterUnits="userSpaceOnUse" color-interpolation-filters="sRGB">
<feFlood flood-opacity="0" result="BackgroundImageFix"/>
<feColorMatrix in="SourceAlpha" type="matrix" values="0 0 0 0 0 0 0 0 0 0 0 0 0 0 0 0 0 0 127 0" result="hardAlpha"/>
<feOffset dy="4"/>
<feGaussianBlur stdDeviation="2"/>
<feComposite in2="hardAlpha" operator="out"/>
<feColorMatrix type="matrix" values="0 0 0 0 0 0 0 0 0 0 0 0 0 0 0 0 0 0 0.25 0"/>
<feBlend mode="normal" in2="BackgroundImageFix" result="effect1_dropShadow_116_312"/>
<feBlend mode="normal" in="SourceGraphic" in2="effect1_dropShadow_116_312" result="shape"/>
</filter>
</defs>
</svg>
