<svg width="485" height="773" viewBox="0 0 485 773" fill="none" xmlns="http://www.w3.org/2000/svg">
<path d="M120.911 126.021L122.848 133.467H124.47L126.576 131.674L125.291 127.455L123.754 126L122.806 122.139L126.513 123.447L127.65 126.506L130.872 127.814L132.978 124.08L139.149 127.877H141.761L137.085 123.025L141.761 123.342L146.247 127.877L147.7 126.569L142.687 122.203V120.599C139.013 117.496 135.499 114.208 132.157 110.748C131.998 109.379 132.164 107.991 132.641 106.698C132.641 106.698 135.548 110.411 136.854 110.263C138.159 110.115 139.128 110.748 138.96 109.293C138.628 108.127 138.628 106.893 138.96 105.728C139.444 104.926 140.581 103.154 140.581 103.154H138.307C138.307 103.154 136.053 97.3317 134.284 96.3614C132.515 95.391 132.999 94.2519 134.284 94.2519C135.569 94.2519 135.885 95.8762 137.338 95.8762C138.791 95.8762 138.307 93.6191 140.413 94.2519C142.519 94.8847 143.635 96.509 144.288 95.391C144.941 94.273 145.404 93.2815 146.857 94.1464C148.311 95.0113 150.564 95.7074 151.217 96.8466C151.87 97.9857 152.986 96.3614 152.986 96.3614C152.689 95.4439 152.256 94.5763 151.701 93.7878C151.217 93.4503 149.595 94.2519 148.163 92.1635C146.916 90.4651 145.565 88.8447 144.12 87.3117C144.12 87.3117 144.288 80.9832 145.741 81.827C147.194 82.6708 149.953 85.0546 149.953 83.599C149.953 82.1435 146.394 79.0636 147.7 78.0932C149.006 77.1229 146.394 75.9838 146.394 74.8657C146.394 73.7477 148.816 73.0938 149.785 71.9546C150.754 70.8155 151.238 65.3309 151.238 65.3309C151.238 65.3309 159.304 65.6473 159.304 67.2716C159.304 68.8959 158.82 71.153 159.304 71.3218C159.789 71.4906 162.379 67.588 162.211 67.1028C162.042 66.6176 164.148 68.5584 165.265 69.8663C166.381 71.1741 161.242 77.7768 163.011 78.9159C164.78 80.0551 167.223 73.0938 168.171 72.925C169.119 72.7563 168.024 68.0732 170.109 68.0732C172.194 68.0732 175.437 69.6975 175.606 70.4991C175.774 71.3007 171.562 78.0932 173.836 78.4308C176.111 78.7683 179.797 69.6975 181.081 70.6679L183.187 72.2922L184.641 70.8366L187.863 71.153V69.2123L192.075 69.6975V67.3771L197.888 69.6342C197.888 69.6342 202.395 69.3178 203.048 68.1787C203.701 67.0395 210.293 63.1792 211.915 63.812C213.536 64.4449 212.399 66.4067 213.199 66.0692C214 65.7317 217.243 64.466 218.528 65.584C219.812 66.702 222.087 66.2379 221.603 64.7824C221.118 63.3269 219.012 61.8713 219.496 60.5634C219.981 59.2555 219.96 60.4158 221.603 61.365C223.245 62.3143 222.34 60.8798 225.078 60.7322C227.082 60.7034 229.031 61.3915 230.574 62.6729C231.206 63.1581 233.797 59.9095 235.397 61.2174C236.998 62.5253 233.46 66.2168 234.597 67.8412C235.734 69.4655 226.868 70.7522 233.797 76.2791C237.188 79.3589 227.815 90.3493 227.015 90.1806C226.215 90.0118 219.117 91.2142 217.496 96.7622C215.874 102.31 203.954 111.993 202.753 111.529C201.553 111.064 199.194 116.38 199.194 116.38C199.194 116.38 194.687 118.321 194.687 119.123C194.687 119.924 191.928 119.27 191.443 118.321C189.337 120.093 191.78 122.667 194.202 122.54C194.202 122.54 194.35 126.084 193.234 126.422C192.117 126.759 189.506 126.253 189.358 127.054C189.211 127.856 186.768 125.599 185.483 125.768C184.198 125.936 182.577 125.915 182.408 126.569C182.24 127.223 178.659 124.797 178.428 124.143C178.196 123.489 178.428 128.51 180.955 128.362C183.565 128.188 186.176 128.689 188.537 129.818C189.99 130.788 191.296 131.759 192.412 130.957C193.528 130.155 194.202 128.215 195.487 128.046C196.772 127.877 196.603 131.273 198.056 130.641C199.51 130.008 202.269 125.936 204.038 126.928C205.807 127.919 195.319 139.838 195.319 139.838C195.319 139.838 194.034 137.728 193.381 137.728C192.728 137.728 188.221 138.53 188.39 139.838C188.558 141.146 182.408 140.977 181.924 140.492C181.439 140.007 176.617 147.917 176.617 147.917C176.617 147.917 174.932 150.723 178.428 148.782C178.428 148.782 183.714 142.454 186.62 143.234C189.527 144.015 192.749 141.462 194.35 142.433C195.95 143.403 184.514 155.511 184.514 155.511C184.514 155.511 173.373 153.571 175.795 157.136L186.936 158.106C186.936 158.106 191.78 152.621 192.749 152.621C193.718 152.621 193.549 149.373 193.549 149.373C193.549 149.373 198.056 148.888 199.51 150.027C200.963 151.166 206.46 142.58 209.851 145.006C213.241 147.432 217.095 141.293 216.78 140.323C216.464 139.353 220.486 138.214 224.046 138.868C227.605 139.521 234.576 145.829 239.041 141.61C243.506 137.391 253.889 139.205 256.943 140.323C259.997 141.441 268.084 142.749 268.4 141.293C268.716 139.838 271.475 140.175 274.044 141.293C276.614 142.411 275.666 136.61 282.595 139.69C289.524 142.77 291.63 152.938 291.63 152.938C291.63 152.938 288.239 161.65 288.892 163.485C289.545 165.32 278.72 169.814 281.142 185.93C275.181 192.723 275.961 198.967 274.529 205.316C274.529 205.316 265.978 216.307 265.178 215.99C264.377 215.674 264.209 222.445 264.209 222.445L262.755 223.901L262.44 228.267C262.44 228.267 251.13 238.119 251.783 239.089C252.436 240.06 249.361 236.98 248.56 237.971C247.76 238.963 243.716 240.545 243.401 240.081C243.085 239.617 236.935 240.882 236.935 240.882C236.935 240.882 228.869 248.645 229.037 249.447C229.206 250.248 242.453 244.447 242.453 244.447C242.453 244.447 246.665 240.735 248.223 242.844C249.782 244.954 247.276 247.675 248.56 248.497C249.069 248.866 249.482 249.351 249.764 249.913C250.047 250.475 250.19 251.096 250.182 251.725C250.182 252.527 255.174 252.695 255.174 252.695C255.46 252.501 255.797 252.398 256.142 252.398C256.488 252.398 256.825 252.501 257.111 252.695C258.178 253.565 259.102 254.597 259.849 255.754C259.849 255.754 249.529 263.348 249.213 262.715C248.897 262.083 244.369 259.952 243.716 260.775C243.064 261.597 233.881 266.913 234.028 268.031C234.116 269.591 234.116 271.155 234.028 272.714L229.206 273.537C229.206 273.537 223.877 279.022 215.326 273.537C215.326 273.537 209.682 274.655 209.198 273.685C208.713 272.714 207.744 279.022 217.432 279.19C227.12 279.359 222.74 280.477 224.362 280.646C225.813 280.561 227.269 280.561 228.721 280.646C230.827 280.962 235.166 281.131 235.819 282.249C236.472 283.367 246.454 279.823 246.349 278.853C246.244 277.883 248.266 277.904 248.266 277.904C248.266 277.904 249.571 272.081 254.879 272.398C260.186 272.714 259.407 276.933 260.06 278.051C260.713 279.169 265.851 278.705 265.851 278.705L272.802 283.388C272.802 283.388 279.562 284.19 281.668 286.932C281.668 286.932 285.375 291.784 288.113 295.666C290.851 299.547 294.726 305.369 294.726 305.369L298.938 306.002L299.907 307.774C299.907 307.774 303.93 307.31 305.214 310.369C306.677 315.631 307.442 321.064 307.489 326.527C307.152 328.299 309.595 332.349 309.595 332.349L308.479 335.746C309.281 336.805 309.986 337.935 310.585 339.121C310.745 341.277 310.745 343.441 310.585 345.597C312.782 349.196 314.779 352.915 316.566 356.735C316.882 358.359 318.483 359.33 319.62 360.785C320.757 362.241 319.62 367.114 320.757 368.211C321.894 369.308 323.158 378.4 325.264 379.37C327.016 380.362 328.337 381.971 328.971 383.884C329.057 385.12 329.057 386.361 328.971 387.597C328.971 387.597 335.584 390.845 336.068 388.42C336.553 385.994 338.659 390.36 339.143 390.677C339.628 390.993 347.21 389.538 351.78 393.588C356.35 397.638 358.393 398.102 359.193 397.933C359.994 397.765 366.775 406.181 367.428 411.202C368.081 416.223 372.756 418.627 373.873 418.142C374.989 417.657 375.178 422.361 375.81 423.163C376.442 423.964 383.076 424.112 384.045 425.42C385.014 426.728 377.432 427.993 378.548 433.647C379.664 439.3 381.139 444.005 381.139 444.005L397.987 465.964C397.987 465.964 389.289 464.192 389.289 465.964C389.289 467.736 377.495 456.767 377.495 456.767C377.495 456.767 364.859 457.885 364.859 459.509C364.859 461.134 354.539 453.518 355.508 463.053C356.645 463.791 359.13 459.826 360.92 461.281L364.501 463.391L374.778 459.509L379.622 464.72C381.267 466.447 383.097 467.99 385.077 469.318C386.213 469.45 387.318 469.778 388.341 470.289C389.616 471.218 390.757 472.318 391.732 473.558C391.732 473.558 396.113 477.566 398.051 477.566C399.988 477.566 399.546 479.381 401.841 481.785C404.006 484.243 405.654 487.113 406.686 490.223C407.296 492.333 410.898 506.108 410.308 508.048C409.718 509.989 394.828 524.65 395.081 525.494C395.334 526.338 401.399 525.726 402.81 527.076C404.221 528.426 404.137 531.675 406.327 532.16C408.518 532.645 409.487 531.907 410.392 532.16C411.345 532.625 412.219 533.237 412.983 533.974L416.479 529.607C416.479 529.607 417.574 517.604 422.165 517.499C426.757 517.393 436.318 516.275 437.287 516.887C438.256 517.499 440.572 518.701 441.036 518.09C441.499 517.478 442.489 516.17 443.837 516.275C445.185 516.381 446.364 517.731 447.586 517.604C448.807 517.478 451.798 517.499 456.284 517.372C460.77 517.246 476.376 527.793 478.314 530.346C480.251 532.898 483.263 542.813 483.031 548.276C482.8 553.74 485.348 550.702 483.031 555.786C480.715 560.87 482.778 563.296 482.778 563.296L479.409 569.73L478.798 585.361C478.798 585.361 466.814 596.267 467.067 598.313C466.393 598.44 459.443 590.804 459.443 590.804C459.443 590.804 455.441 591.289 457.737 593.483C460.033 595.676 463.192 596.014 463.192 596.626C463.192 597.237 463.318 599.537 463.318 599.537C463.318 599.537 461.212 605.359 463.318 606.793C465.424 608.228 454.894 613.586 454.599 613.459C454.304 613.333 449.881 609.114 449.881 609.114L445.164 612.742L444.806 615.527L437.413 617.636C437.413 617.636 436.213 622.594 439.351 621.855C442.489 621.117 442.489 619.914 443.942 620.041C445.395 620.168 447.143 617.278 447.143 617.278H448.828L448.955 625.526C448.955 625.526 451.061 627.213 450.766 628.437C450.471 629.66 447.733 629.639 447.733 629.639C447.733 629.639 442.784 633.289 442.784 634.259C442.784 635.229 439.267 634.364 438.424 634.259C437.582 634.153 428.02 635.588 428.147 636.79C428.273 637.993 435.518 639.828 437.455 639.828C439.393 639.828 439.035 641.389 439.035 641.389C439.035 641.389 432.991 642.739 432.611 644.427C432.232 646.114 435.876 647.949 436.971 647.464C437.924 646.897 438.784 646.186 439.519 645.355L443.016 648.751H452.219L457.906 646.199L461.781 645.84C461.781 645.84 474.417 644.87 475.218 643.414C476.018 641.959 477.324 644.996 474.228 649.848C471.132 654.7 476.902 658.075 475.934 660.627C474.965 663.18 465.53 670.205 465.53 670.205C465.53 670.205 452.577 669.234 455.61 681.701C456.368 685.287 453.504 684.38 452.935 684.127C450.572 683.46 448.142 683.057 445.69 682.925C443.831 684.577 442.093 686.361 440.488 688.262C440.362 688.979 429.242 692.481 428.505 692.122C427.767 691.763 419.069 700.138 419.322 700.855C419.575 701.573 398.872 696.868 398.135 695.286C397.398 693.704 388.468 695.877 388.089 696.974C387.71 698.071 373.43 700.18 372.925 699.547C372.419 698.915 366.607 700.834 366.607 700.834L366.122 704.505L360.541 702.817C359.418 700.609 358.122 698.493 356.666 696.489C356.076 696.257 351.843 695.518 352.327 696.742C352.812 697.965 351.717 702.184 351.001 701.699C350.47 701.378 349.895 701.136 349.295 700.982C350.023 700.05 350.409 698.896 350.39 697.712C350.137 696.13 347.483 695.877 347.231 696.489C347.188 697.424 347.273 698.361 347.483 699.273C347.187 700.111 346.82 700.923 346.388 701.699C345.111 700.567 343.737 699.551 342.281 698.661C341.439 698.429 339.607 698.176 339.122 697.459C338.638 696.742 331.035 690.308 330.908 691.763C330.782 693.219 338.891 698.429 337.227 700.201C335.563 701.973 333.941 701.91 333.71 701.53C333.478 701.151 327.539 703.64 327.181 705.053C326.823 706.467 325.075 707.711 325.475 708.45C325.875 709.188 321.726 707.226 321.726 707.226C321.726 707.226 308.542 707.669 308.31 708.618C308.078 709.568 306.204 710.875 306.204 710.875C304.841 710.44 303.585 709.721 302.518 708.766C301.739 707.669 298.833 709.125 299.802 710.221C300.77 711.318 302.708 713.491 303.677 713.365C304.646 713.238 306.688 717.246 305.362 718.111C304.035 718.976 292.304 717.605 291.693 717.246C291.082 716.887 285.375 715.305 284.68 716.149C283.985 716.993 278.151 718.47 279.099 719.799C280.046 721.128 281.9 724.397 280.931 724.65C279.962 724.903 278.151 720.431 276.719 719.925C275.287 719.419 259.66 706.34 256.037 709.61C252.415 712.879 250.835 712.162 250.709 712.774C250.582 713.386 246.349 713.618 246.117 713.259C245.886 712.901 237.693 713.133 237.167 715.369C236.64 717.605 232.196 720.706 231.585 719.988C230.975 719.271 227.12 715.137 227.12 715.137C227.12 716.92 227.282 718.699 227.605 720.452C227.963 720.832 223.393 728.574 225.794 731.358C228.195 734.143 223.119 732.223 223.245 733.679C223.576 735.069 224.309 736.331 225.351 737.307C226.067 738.151 224.383 741.779 224.383 741.779C224.383 741.779 221.708 739.86 221.35 741.779C220.992 743.699 217.475 744.69 217.475 745.176C217.475 745.661 217.348 750.998 216.506 751.736C214.504 752.798 212.2 753.141 209.977 752.707C208.524 751.968 205.259 744.69 202.227 744.458C200.175 744.439 198.191 745.192 196.666 746.568C196.666 746.568 192.454 741.969 193.276 741.843C194.097 741.716 192.433 739.733 191.464 739.311C190.496 738.889 189.042 736.147 189.653 735.092C190.264 734.038 187.105 734.122 187.105 734.122C187.105 734.122 188.2 736.231 187.231 736.801C186.262 737.371 184.809 738.257 184.809 738.257L188.811 741.632L188.326 743.594C188.326 743.594 180.934 735.472 174.89 743.34C171.92 746.462 169.561 743.699 169.435 743.214C169.308 742.729 167.329 744.058 166.297 744.184C165.265 744.311 162.548 742.37 161.832 742.37C161.116 742.37 158.673 743.826 158.799 745.028C158.783 746.974 158.663 748.917 158.441 750.85L154.229 751.462C154.229 751.462 151.449 752.791 151.449 753.403C151.449 754.014 147.574 758.128 147.089 757.875C146.605 757.622 145.994 753.761 145.152 754.373C144.309 754.985 143.34 759.225 143.045 759.689C142.751 760.153 140.265 760.554 140.939 761.524C141.613 762.495 143.467 762.853 143.593 763.634C143.719 764.414 143.719 767.156 143.235 767.283C142.751 767.41 141.129 769.814 140.097 769.582C139.065 769.35 137.422 769.329 137.422 770.553C137.422 771.776 136.58 773.464 135.737 772.662C134.895 771.861 133.315 770.975 133.442 768.907C133.568 766.84 127.123 761.271 126.786 761.166C126.449 761.06 123.754 758.74 122.3 759.225C120.847 759.71 116.488 760.68 118.552 764.077C120.616 767.473 116.446 766.186 115.645 766.186C114.845 766.186 113.708 766.798 112.381 766.798C111.786 766.73 111.222 766.496 110.753 766.124C110.283 765.751 109.928 765.253 109.727 764.688C109.921 763.933 110.25 763.218 110.696 762.579L109.727 758.086L121.584 753.234C121.584 753.234 122.553 754.584 123.522 754.457C124.657 754.041 125.601 753.223 126.176 752.158C126.66 751.314 139.613 741.969 139.613 741.969L139.971 736.885L143.361 736.4C143.818 735.619 144.385 734.908 145.046 734.291C145.657 733.932 145.173 728.595 145.173 728.595C145.173 728.595 148.795 724.102 149.385 724.946C149.974 725.789 152.038 728.215 152.523 728.215C153.007 728.215 151.807 723.131 151.807 723.131C151.807 723.131 157.725 722.161 158.82 720.706C159.586 719.331 160.039 717.804 160.147 716.234C160.147 716.234 167.16 707.627 169.224 706.53C171.288 705.433 170.677 695.75 170.804 695.012C170.93 694.274 171.035 692.354 171.52 691.996C172.004 691.637 171.393 687.502 171.393 687.502L176.848 687.27C177.124 687.662 177.486 687.986 177.905 688.216C178.325 688.446 178.792 688.577 179.27 688.599C180.955 688.726 183.861 689.316 184.346 687.755C184.83 686.194 187.252 684.718 187.61 683.136C187.968 681.554 189.063 678.79 187.863 678.178C186.663 677.567 185.757 675.626 186.768 675.626C186.991 675.614 187.208 675.547 187.401 675.433C187.593 675.319 187.755 675.16 187.873 674.969C187.991 674.779 188.061 674.562 188.078 674.339C188.094 674.115 188.057 673.891 187.968 673.685C187.737 672.841 185.673 671.744 186.768 671.744C187.863 671.744 198.983 669.445 200.31 669.445C201.637 669.445 209.387 669.086 209.872 668.369C210.356 667.652 213.515 668.475 214.358 668.854C215.2 669.234 216.464 671.386 217.748 670.669C219.033 669.951 222.466 668.559 223.919 669.213C225.559 670.026 227.065 671.086 228.384 672.356C229.187 672.909 230.104 673.271 231.067 673.418C232.03 673.564 233.014 673.489 233.944 673.2C235.637 672.219 237.422 671.406 239.273 670.774C240.726 670.774 248.097 670.542 248.097 670.542C248.097 670.542 251.13 667.146 249.677 665.943C249.065 665.259 248.727 664.373 248.727 663.454C248.727 662.536 249.065 661.65 249.677 660.965C250.699 659.33 251.413 657.521 251.783 655.628L253.594 653.94C253.594 653.94 261.45 646.431 262.671 646.431C263.893 646.431 269.558 635.145 269.558 635.145C269.558 635.145 276.571 627.403 276.34 626.306C276.108 625.209 270.021 630.335 268.231 633.099C262.292 642.191 248.876 644.363 248.75 644.363L243.19 648.118C243.19 648.118 243.422 654.447 239.926 655.037C236.429 655.628 225.394 656.725 225.394 656.725C225.394 656.725 215.6 650.059 215.474 649.574C215.347 649.089 212.336 648.857 212.336 648.857L210.883 643.752C210.883 643.752 208.102 639.997 207.365 639.891C206.628 639.786 206.397 637.086 206.397 637.086C206.397 637.086 198.183 639.997 198.183 642.064C198.183 644.131 195.15 642.676 194.434 642.296C193.718 641.916 191.17 641.579 190.685 642.549C190.333 643.094 189.844 643.536 189.267 643.832C188.691 644.128 188.047 644.268 187.4 644.237C186.199 644.11 181.081 640.018 184.746 636.727C188.411 633.436 191.275 637.465 192.244 636.01C193.212 634.554 191.275 634.069 190.79 633.9C190.306 633.732 183.293 633.9 183.166 633.415C181.973 632.04 180.685 630.75 179.312 629.555L180.155 628.099L179.312 625.294L166.676 628.205C166.676 628.205 161.726 633.668 162.464 634.533C163.201 635.398 157.62 635.503 157.62 635.989C157.62 636.474 155.514 635.145 155.324 635.504C155.134 635.862 153.028 635.862 152.186 637.929C151.343 639.997 148.795 639.617 147.574 638.773C146.352 637.929 144.92 634.301 144.077 634.175C143.235 634.048 141.655 632.466 142.372 632.234C143.088 632.002 149.511 631.622 150.248 631.622C151.542 631.261 152.798 630.773 153.997 630.167L153.281 627.867C151.783 628.655 150.244 629.359 148.669 629.977C147.468 629.85 139.591 630.209 139.591 630.209L139.36 631.917L135.969 628.521L139.718 626.095L142.266 626.222L141.171 618.712L131.862 617.256L138.18 610.337C138.18 610.337 139.023 610.823 141.571 609.62C144.12 608.418 144.709 606.456 144.12 605.612C143.53 604.768 145.088 603.924 146.226 603.798C147.363 603.671 148.521 605.612 149.743 605.612C150.964 605.612 156.061 604.895 156.63 604.895C157.198 604.895 156.503 602.469 156.503 602.469L159.178 601.731L161.705 597.005C161.705 597.005 162.927 598.946 163.285 598.82C163.898 597.792 164.386 596.694 164.738 595.55L173.163 594.58C175.22 592.726 177.393 591.007 179.67 589.432C180.028 589.538 197.951 580.826 195.276 564.941C191.654 555.259 190.201 555.849 196.372 548.234C196.372 548.234 190.454 540.956 191.296 539.796C192.138 538.636 191.296 536.421 191.528 534.586C191.691 533.969 191.979 533.392 192.374 532.892C192.769 532.391 193.262 531.977 193.823 531.675L189.969 531.316H182.829L181.482 533.025C180.894 532.812 180.269 532.723 179.646 532.763C179.023 532.803 178.415 532.971 177.859 533.257C175.921 534.227 172.046 540.155 173.141 541.378C174.237 542.602 171.035 542.096 171.035 542.096L168.929 539.438C168.082 539.651 167.268 539.977 166.507 540.408C165.335 540.771 164.111 540.935 162.885 540.893C162.885 540.893 162.042 542.349 161.558 542.581C161.074 542.813 160.105 541.378 160.105 541.378L168.087 530.346L170.635 529.987L180.176 521.127L180.787 516.529L186.599 511.445C186.599 511.445 188.053 505.876 190.812 505.749C193.57 505.623 196.856 506.466 198.667 504.294C200.493 502.516 202.813 501.332 205.322 500.897C206.06 500.897 204.48 497.142 206.291 497.501C208.103 497.86 210.651 501.024 213.915 500.539C216.702 500.203 219.456 499.639 222.15 498.851C223.439 497.753 224.853 496.811 226.362 496.046C228.468 494.97 231.206 496.045 233.628 497.142C233.628 497.142 240.157 504.062 241.126 503.323C242.095 502.585 242.369 500.539 242.6 500.18C244.597 499.342 246.757 498.967 248.919 499.083C250.322 499.601 251.648 500.311 252.857 501.193C254.235 500.698 255.572 500.099 256.858 499.4C257.09 499.02 258.965 496.594 258.965 496.594L259.575 492.839C258.908 492.801 258.251 493.017 257.736 493.443C257.22 493.87 256.884 494.475 256.795 495.138C256.184 497.691 254.015 497.564 253.278 496.721C252.541 495.877 246.96 490.898 246.96 490.898C246.96 490.898 246.223 485.814 244.854 484.57C243.485 483.325 240.389 477.06 241.589 476.132C242.79 475.204 247.276 465.711 249.024 465.585C250.772 465.458 249.024 463.644 249.024 463.644C249.024 463.644 243.885 462.42 243.653 461.344C243.422 460.269 243.064 447.654 243.064 447.654C244.685 446.866 246.445 446.407 248.245 446.304C250.351 446.43 252.12 445.101 251.993 444.384C251.867 443.667 252.478 440.608 253.32 440.608C252.208 440.863 251.058 440.905 249.929 440.735C249.698 440.376 247.823 437.824 249.024 437.212C250.224 436.6 253.573 434.554 254.057 434.195C254.542 433.837 253.678 427.867 252.478 427.403C251.277 426.939 251.993 424.745 251.993 424.745C251.993 424.745 247.276 430.314 246.665 429.955C245.5 428.059 244.492 426.069 243.653 424.007C243.653 424.007 241.842 424.133 241.842 424.492C241.842 424.85 241.463 429.217 241.358 429.829C240.07 431.583 238.662 433.247 237.145 434.807L232.933 434.069C232.647 431.922 232.938 429.737 233.776 427.74C235.124 425.8 235.482 419.999 234.028 420.231C232.575 420.463 232.575 425.694 232.575 425.694L229.542 426.179C229.542 426.179 226.278 419.387 225.078 419.26L225.204 414.535C225.204 414.535 216.969 402.173 215.158 401.456C213.347 400.739 215.158 399.157 215.874 398.06C216.592 396.084 216.802 393.958 216.485 391.879C216.232 390.065 220.697 382.914 222.045 381.943C223.393 380.973 222.656 376.733 223.266 376.121C224.318 374.757 224.948 373.115 225.078 371.396C224.825 370.194 225.309 368.738 226.278 368.738C227.247 368.738 227.373 369.814 228.574 369.814C229.774 369.814 231.248 368.865 230.68 368.485C229.99 367.734 229.421 366.88 228.995 365.954C229.444 365.396 230.016 364.951 230.667 364.655C231.318 364.358 232.029 364.218 232.744 364.245C234.85 364.603 236.493 365.954 237.103 365.595C237.714 365.236 239.883 363.148 240.241 362.916C240.599 362.684 240.726 360.363 240.726 360.363L224.762 362.473L223.308 360.785L216.759 361.988C216.759 361.988 215.432 367.451 216.042 368.78C216.653 370.109 212.294 370.341 211.83 370.236C210.653 370.575 209.599 371.249 208.798 372.177C208.439 372.767 204.333 371.797 204.333 371.797C202.606 374.438 200.743 376.987 198.751 379.433C198.288 379.56 194.771 379.918 194.645 379.433C194.518 378.948 193.549 374.476 193.549 374.476L191.991 374.349L192.475 378.948C192.475 378.948 189.085 380.404 187.631 375.931C186.178 371.459 186.536 372.282 186.536 372.282C186.536 372.282 184.599 373.864 183.756 373.506C182.914 373.147 177.712 370.109 178.322 367.936C178.933 365.764 176.975 369.497 176.975 369.497C176.975 369.497 177.943 376.037 179.649 376.775C181.355 377.514 181.208 384.897 181.208 384.897C181.208 384.897 179.397 386.837 178.322 386.352C177.248 385.867 174.805 387.196 174.11 386.226C173.415 385.255 170.467 382.829 170.235 381.733C170.003 380.636 170.593 380.298 168.908 379.623C167.223 378.948 166.107 378.779 165.265 377.514C164.621 376.41 163.708 375.488 162.611 374.835C162.127 374.729 159.936 374.729 159.936 374.729C159.936 374.729 158.251 370.953 157.409 371.08C156.567 371.206 149.785 374.961 151.849 378.231C153.79 380.779 155.038 383.788 155.471 386.964C155.471 389.495 155.345 390.592 154.503 390.466C153.561 389.947 152.767 389.196 152.196 388.285C151.625 387.373 151.295 386.33 151.238 385.255C150.88 382.239 149.301 379.201 147.721 378.589C146.141 377.978 140.35 368.295 141.066 367.093C141.782 365.89 142.161 358.001 143.846 359.203C145.531 360.406 146.626 365.152 146.879 366.481C147.131 367.81 149.174 369.033 149.427 368.169C149.68 367.304 150.269 364.414 149.427 363.823C148.499 363.074 147.823 362.058 147.489 360.912C147.372 358.921 147.71 356.929 148.479 355.09C149.195 353.508 149.195 345.871 152.691 345.281C153.996 345.067 155.165 344.353 155.952 343.289C156.738 342.226 157.08 340.897 156.904 339.585C156.686 338.722 156.649 337.823 156.794 336.945C156.939 336.066 157.263 335.227 157.746 334.48C158.556 333.371 159.442 332.321 160.4 331.337C160.255 330.732 160.294 330.098 160.511 329.515C160.729 328.932 161.116 328.428 161.621 328.067C163.487 326.597 165.267 325.019 166.95 323.342C167.918 322.118 168.15 315.326 165.117 313.406C162.084 311.487 161.137 308.787 159.81 308.913C158.483 309.04 154.84 303.091 154.84 303.091L156.293 300.201C156.293 300.201 157.493 297.037 156.524 295.476C155.556 293.915 156.882 288.198 156.524 286.742C156.166 285.287 155.935 283.346 158.23 283.346C160.492 283.191 162.762 283.521 164.886 284.316C167.446 285.082 170.078 285.577 172.741 285.793L172.152 284.316C172.152 284.316 169.119 283.346 167.792 283.093C165.957 282.145 164.441 280.678 163.432 278.874C163.18 278.03 156.777 273.432 158.104 271.617C159.489 268.805 160.645 265.884 161.558 262.884L160.61 261.429L157.093 269.55L154.397 264.297L153.618 269.023L155.008 272.546L153.618 275.457L155.008 277.946L154.292 280.435L152.944 279.19L152.207 284.781C152.207 284.781 152.586 289.864 151.617 289.738C150.648 289.611 148.921 289.253 148.921 289.253L147.868 285.645L147.026 282.102L145.067 279.676C145.067 279.676 143.972 281.785 145.067 282.84C146.162 283.895 146.162 286.953 146.162 286.953L143.635 285.645C143.635 285.645 141.234 281.996 141.234 282.481C141.234 282.966 139.128 285.371 139.276 286.7C139.423 288.029 140.013 293.029 140.013 293.029C140.013 293.029 135.527 291.215 135.527 289.653C135.527 288.092 133.589 284.928 134.684 283.578C135.779 282.228 135.169 279.823 135.653 279.212C136.138 278.6 136.137 276.596 136.98 275.478C138.002 274.382 138.932 273.204 139.76 271.955C140.013 271.217 140.139 270.246 143.151 267.841C145.322 266.386 147.107 264.424 148.353 262.125C148.711 260.922 153.618 257.167 153.618 257.167L147.152 259.108C147.152 259.108 142.666 266.618 141.824 266.133C140.981 265.648 136.369 271.955 136.369 271.955C136.369 271.955 133.842 274.971 133.842 276.68C133.851 277.023 133.757 277.362 133.573 277.652C133.389 277.941 133.123 278.17 132.809 278.308C132.495 278.446 132.148 278.487 131.81 278.426C131.473 278.366 131.161 278.206 130.914 277.967C130.044 278.371 129.368 279.103 129.032 280.003C128.697 280.904 128.73 281.9 129.124 282.777C130.577 286.004 131.083 286.489 130.914 288.261C130.746 290.033 131.546 292.776 133.021 293.029C134.495 293.282 135.906 294.969 135.127 296.151C134.347 297.332 128.808 301.931 128.808 303.829C128.808 305.728 126.702 310.158 127.524 311.529C128.345 312.9 125.755 316.381 126.407 317.667C127.06 318.954 124.912 321.95 124.912 321.95L123.943 324.692C124.189 326.599 124.729 328.457 125.544 330.198C126.513 331.485 123.122 333.425 123.122 333.425C123.122 333.425 118.783 335.366 118.299 334.564C117.815 333.763 114.255 335.197 114.087 335.682C113.918 336.168 114.087 335.535 113.286 334.396C112.486 333.257 111.833 330.514 112.486 329.713C113.139 328.911 114.95 326.569 115.477 325.958C116.003 325.346 117.393 324.544 116.888 323.848C116.623 321.973 116.623 320.07 116.888 318.195C116.888 318.195 116.109 313.512 116.888 312.71C117.667 311.909 118.783 310.769 118.783 310.769C118.783 310.769 119.752 302.922 120.552 303.703C121.353 304.483 129.103 292.902 129.103 292.902L127.966 292.185L123.122 298.408C123.122 298.408 117.478 294.611 120.237 289.97C122.996 285.329 123.606 285.582 123.606 285.582L122.322 284.316L119.9 286.89C119.653 286.046 119.597 285.158 119.735 284.289C119.873 283.421 120.203 282.594 120.7 281.869C122.49 278.958 121.037 280.414 122.49 278.958C123.943 277.503 125.059 274.275 123.606 274.592C122.153 274.908 122.806 270.373 124.259 270.879C125.712 271.385 126.513 267.483 126.513 267.483L126.365 263.454L122.806 265.394L124.259 261.998C124.259 261.998 126.513 258.285 128.134 258.433C129.756 258.581 126.197 255.522 124.912 256.324C123.627 257.125 123.459 254.383 123.943 253.244C124.428 252.105 125.881 249.531 126.85 250.185C127.818 250.839 127.166 247.59 127.166 247.59L129.103 244.363C131.552 243.401 134.092 242.694 136.685 242.253C138.138 242.422 140.56 242.907 140.56 242.907L147.658 233.858L146.141 233.225L140.223 241.135L132.81 239.511L130.893 236.6H135.548C135.548 236.6 140.876 233.056 139.907 232.381C138.939 231.706 135.232 233.837 134.916 234.322C134.6 234.807 131.841 234.49 132.01 233.035C132.178 231.579 135.864 226.242 136.833 226.242C137.801 226.242 138.517 223.669 138.517 223.669C138.517 223.669 144.562 222.53 145.046 223.331C145.531 224.133 151.996 221.707 151.365 220.758C150.733 219.808 148.774 219.133 147.974 219.935C147.173 220.737 144.099 222.213 143.298 221.707C142.351 221.159 141.611 220.314 141.192 219.302C140.855 218.332 145.025 212.024 145.025 212.024C145.025 212.024 140.371 214.134 139.886 215.906C139.671 217.276 139.199 218.593 138.496 219.787C137.949 220.273 136.664 220.273 136.011 220.905C134.671 222.223 133.484 223.688 132.473 225.272C131.989 226.411 130.051 226.896 130.051 226.896C130.051 226.896 124.238 235.123 123.101 235.461C123.101 235.461 117.941 237.064 116.783 235.018C116.473 233.733 116.324 232.415 116.34 231.094C116.34 231.094 114.803 233.837 113.265 233.668C113.265 233.668 104.841 229.322 106.168 226.559C107.495 223.795 109.79 225.842 111.328 226.812C112.865 227.782 114.466 227.614 113.834 226.812C113.425 226.242 113.098 225.617 112.865 224.956L116.783 221.96L119.668 223.331C119.668 223.331 125.839 224.238 124.996 222.361C124.154 220.483 119.836 221.644 119.836 221.644L117.73 219.703C117.73 219.703 115.308 219.387 114.971 220.589C114.634 221.791 112.486 222.698 112.486 222.698L99.7232 221.243C99.7232 221.243 98.9019 222.53 98.0594 222.445C97.217 222.361 94.7318 220.441 96.2693 218.585C97.8067 216.729 103.451 215.273 105.705 215.674C107.958 216.075 107.811 214.45 107.811 214.45C107.811 214.45 111.37 216.159 111.602 216.961C111.833 217.762 112.823 215.357 112.823 215.357L115.393 214.619C115.393 214.619 113.939 211.476 113.392 211.476C112.844 211.476 118.783 210.168 118.783 210.168C118.783 210.168 119.9 207.763 119.626 206.856C119.352 205.949 116.698 208.312 116.698 208.312L115.814 205.253C115.814 205.253 112.254 205.253 112.17 206.139C112.086 207.025 110.717 202.089 112.823 200.971C114.929 199.853 112.17 195.634 116.53 195.866C120.889 196.098 121.374 199.747 122.574 199.684C123.775 199.621 128.071 198.629 127.418 197.174C126.765 195.718 121.1 196.203 121.1 196.203V193.946C121.1 193.946 116.888 193.946 116.509 192.069C116.555 191.097 116.909 190.164 117.518 189.406C118.128 188.648 118.961 188.103 119.9 187.85C121.184 187.85 124.343 187.85 125.628 190.128C126.913 192.406 132.157 189.073 131.588 187.533C131.02 185.993 129.019 186.732 128.682 187.217C128.345 187.702 126.681 187.386 126.239 186.9C125.386 186.162 124.327 185.706 123.206 185.593C122.322 185.593 119.584 184.221 120.7 183.082C121.816 181.943 122.553 181.142 122.974 180.677C122.974 180.677 123.838 172.429 126.66 175.298C129.482 178.167 131.757 181.88 132.41 180.741C133.063 179.602 133.694 177.366 132.894 177.028C131.693 175.988 130.631 174.797 129.735 173.484V171.881H127.397L121.079 172.83C121.079 172.83 119.415 170.721 120.889 170.299C122.364 169.877 126.07 169.286 126.639 169.118C127.208 168.949 132.389 165.384 131.42 163.696C130.451 162.009 128.029 162.747 128.029 162.747C127.145 164.407 126.131 165.994 124.996 167.493C124.996 167.029 124.996 163.443 123.585 163.696C122.174 163.949 118.51 168.949 117.857 168.949C117.204 168.949 113.644 164.498 114.318 162.62C114.992 160.743 112.697 160.806 112.549 158.908C112.493 156.987 112.542 155.064 112.697 153.149C112.697 152.664 114.466 149.436 116.088 150.892C117.709 152.347 118.889 154.879 120.3 155.111C121.911 154.964 123.509 154.696 125.081 154.309C126.301 154.222 127.525 154.222 128.745 154.309C128.745 154.309 127.861 150.449 126.302 151.081C124.814 151.593 123.285 151.974 121.732 152.221C121.732 152.221 121.542 149.795 120.3 149.478C119.057 149.162 118.425 147.369 118.425 147.369C118.425 147.369 116.172 145.428 116.003 144.795C115.835 144.162 116.003 138.699 117.625 139.395C118.125 139.695 118.688 139.874 119.269 139.918C119.851 139.962 120.434 139.87 120.974 139.648C121.5 139.289 121.5 137.665 119.563 136.716C117.625 135.767 115.856 135.893 116.34 133.467C116.825 131.041 113.918 128.615 115.687 128.299C117.456 127.983 118.341 124.08 120.911 126.021Z" fill="#2E006C"/>
<path d="M178.259 513.09C178.259 513.09 179.355 513.681 181.292 512.352C183.23 511.023 185.504 511.276 185.883 509.567C186.263 507.859 188.537 503.998 190.096 503.998C190.096 503.998 192.876 505.201 193.128 503.998C193.649 502.415 194.297 500.877 195.066 499.4C195.066 499.4 189.611 498.914 189.022 499.99C188.432 501.066 186.6 501.108 186.705 499.273C186.739 498.479 186.593 497.687 186.28 496.957C185.966 496.226 185.492 495.576 184.894 495.054C184.304 494.822 184.409 492.164 184.409 492.164C184.409 492.164 174.974 486.827 171.099 492.164C167.223 497.501 169.645 497.965 169.645 497.965C169.775 499.438 170.022 500.898 170.383 502.332C171.643 503.825 172.666 505.504 173.415 507.31C173.9 509.42 173.9 510.095 175.227 510.095C175.977 510.224 176.67 510.58 177.212 511.116C177.754 511.651 178.12 512.34 178.259 513.09Z" fill="#2E006C"/>
<path d="M164.338 500.475C164.338 500.475 163.875 498.535 164.338 498.176C164.801 497.818 165.433 498.914 166.444 499.336C167.455 499.758 168.55 503.555 168.719 504.23C167.167 503.09 165.703 501.835 164.338 500.475Z" fill="#2E006C"/>
<path d="M239.841 498.113C239.841 498.113 240.094 496.236 238.999 495.877C238.424 495.496 237.939 494.996 237.575 494.409C237.212 493.823 236.979 493.165 236.893 492.481C236.893 491.637 238.873 490.16 239.926 489.865C240.979 489.57 241.61 488.114 243.043 488.726C243.729 488.998 244.336 489.441 244.804 490.013C245.272 490.585 245.586 491.267 245.717 491.995C245.949 493.451 246.433 495.624 248.139 496.214C249.845 496.805 248.139 496.088 244.749 497.311C241.358 498.535 239.841 498.851 239.841 498.113Z" fill="#2E006C"/>
<path d="M152.291 300.855C152.55 300.176 152.55 299.425 152.291 298.745C152.145 298.289 152.148 297.797 152.299 297.342C152.45 296.887 152.743 296.492 153.134 296.214C153.618 295.855 154.945 297.902 154.945 297.902L153.176 299.589L152.291 300.855Z" fill="#2E006C"/>
<path d="M145.11 324.291C144.983 324.755 139.192 327.54 137.254 324.882C135.686 323.122 134.489 321.063 133.737 318.828C133.61 317.499 134.348 315.558 133.021 314.229C131.694 312.9 130.346 311.803 131.188 309.862C131.708 307.996 132.62 306.263 133.863 304.779C135.19 303.682 134.958 301.741 137.254 302.226C139.55 302.711 140.034 302.353 141.234 304.04C142.643 305.71 143.451 307.805 143.53 309.989C143.298 311.803 142.456 313.702 144.141 314.081C145.826 314.461 146.078 315.326 145.11 316.043C144.141 316.76 141.972 317.014 144.014 317.857C146.057 318.701 145.763 319.06 145.678 319.967C145.594 320.874 144.436 322.646 145.678 323.005C146.921 323.363 145.11 324.291 145.11 324.291Z" fill="#2E006C"/>
<path d="M144.625 296.13C144.625 296.13 147.531 298.598 147.889 299.927C148.247 301.256 149.216 299.315 148.858 297.501C148.59 295.785 148.102 294.112 147.405 292.522C146.815 291.447 146.563 290.413 146.183 289.632C145.804 288.852 142.561 284.654 141.845 285.856C141.593 286.186 141.412 286.563 141.311 286.965C141.211 287.367 141.194 287.786 141.261 288.195C141.328 288.604 141.478 288.995 141.701 289.344C141.925 289.692 142.218 289.992 142.561 290.223C144.393 291.32 144.625 296.13 144.625 296.13Z" fill="#2E006C"/>
<path d="M158.904 280.055C158.062 279.929 157.683 279.191 157.093 278.241C156.503 277.292 155.998 276.891 156.356 275.794C156.714 274.697 157.809 276.533 158.904 277.25C159.999 277.967 161.01 279.191 160.484 280.055C159.957 280.92 158.904 280.055 158.904 280.055Z" fill="#2E006C"/>
<path d="M114.866 306.698L114.129 303.808C114.129 303.808 115.477 303.049 115.477 302.142C115.474 301.889 115.539 301.64 115.665 301.421C115.791 301.202 115.973 301.021 116.193 300.897L116.93 304.652L114.866 306.698Z" fill="#2E006C"/>
<path d="M325.622 711.424C327.058 711.028 328.384 710.306 329.497 709.315C331.603 707.711 331.435 708.197 333.036 708.197C334.636 708.197 335.31 707.712 337.395 705.117C339.48 702.522 340.47 703.514 342.408 705.117C344.345 706.72 344.977 705.602 347.231 706.256C349.484 706.91 351.443 708.197 350.79 709.969C350.137 711.741 347.399 710.454 347.083 711.424C346.767 712.395 345.314 717.753 345.314 717.753C345.314 717.753 342.892 719.356 341.923 719.039C340.954 718.723 336.279 716.128 336.279 716.128C336.279 716.128 330.782 712.247 330.635 713.534C330.487 714.82 325.622 711.424 325.622 711.424Z" fill="#2E006C"/>
<path d="M123.817 240.059C123.686 239.627 123.686 239.166 123.817 238.734C123.949 238.302 124.205 237.919 124.554 237.633C125.754 236.663 128.05 234.132 128.534 234.132C129.019 234.132 129.861 232.908 129.861 232.908C129.861 232.908 126.997 238.477 126.786 238.477C126.576 238.477 123.817 240.059 123.817 240.059Z" fill="#2E006C"/>
<path d="M124.428 246.599C124.428 246.599 123.332 245.017 124.428 244.785C125.065 244.634 125.728 244.634 126.365 244.785L125.144 247.443L124.428 246.599Z" fill="#2E006C"/>
<path d="M121.268 254.953C121.215 254.11 121.215 253.264 121.268 252.421C122.237 252.295 122.364 256.049 122.364 256.049L121.268 254.953Z" fill="#2E006C"/>
<path d="M120.194 261.028C120.194 261.028 119.331 259.214 120.194 259.214C121.058 259.214 121.795 257.758 121.795 257.758L122.364 259.382L121.795 261.028H120.194Z" fill="#2E006C"/>
<path d="M116.93 264.994V263.918C116.93 263.918 117.773 262.568 118.131 262.568C118.712 262.712 119.277 262.917 119.816 263.179L118.362 264.994H116.93Z" fill="#2E006C"/>
<path d="M104.82 280.435C104.82 280.435 111.138 267.441 116.93 267.082C122.722 266.724 118.72 268.896 118.362 270.225C118.004 271.554 115.477 272.503 115.519 273.727C115.607 274.823 115.381 275.92 114.866 276.891C114.382 277.756 109.79 285.646 109.79 285.646C109.79 285.646 107.853 289.738 106.631 289.991C105.41 290.244 106.042 293.978 106.147 294.463C106.252 294.948 102.882 296.404 102.398 295.202C101.914 293.999 100.292 285.646 100.292 285.646C100.292 285.646 104.631 281.848 107.305 282.481C107.305 282.481 109.601 281.279 108.864 280.372C108.127 279.465 105.663 281.406 104.82 280.435Z" fill="#2E006C"/>
<path d="M93.6997 276.301C94.3077 275.939 94.9587 275.655 95.6373 275.457C96.1007 275.457 96.8378 270.605 97.7434 270.71C98.6491 270.816 98.2278 268.284 97.7434 268.179C97.259 268.073 93.6366 268.538 93.7629 269.867C93.8893 271.196 93.6997 276.301 93.6997 276.301Z" fill="#2E006C"/>
<path d="M80.6843 299.674C81.1687 299.547 82.4955 298.661 82.9799 298.513C83.4643 298.366 82.9799 291.067 82.9799 291.067C82.9799 291.067 87.8239 287.565 88.1819 287.565C88.5612 289.155 88.766 290.782 88.7927 292.417C89.4655 291.536 90.071 290.605 90.604 289.632C90.962 288.768 92.0571 288.177 93.6157 287.523C95.1742 286.869 97.8278 283.03 98.1227 283.156C98.4175 283.283 99.6812 295.623 99.6812 295.623C99.6812 295.623 101.366 295.834 101.619 298.471C101.872 301.108 102.946 302.184 102.335 303.766C101.724 305.348 99.4285 308.365 98.7124 308.365C97.9963 308.365 95.0899 307.753 94.5002 308.365C93.8269 309.371 93.2218 310.421 92.689 311.508C92.2046 312.246 90.7514 313.449 89.9089 312.837C89.0665 312.225 88.0766 308.976 89.2982 308.006C90.5197 307.036 91.9519 307.036 92.3099 306.656C92.6679 306.276 92.3099 304.842 92.3099 304.357C92.3099 303.872 88.9401 300.855 88.9401 300.855C88.9401 300.855 90.6882 298.619 91.6149 298.471C92.5416 298.324 93.1102 295.961 91.6149 295.623C90.1196 295.286 88.3294 294.273 88.203 295.623C88.0767 296.974 83.001 305.2 81.5478 304.61C80.0946 304.019 80.6843 299.674 80.6843 299.674Z" fill="#2E006C"/>
<path d="M96.564 204.156C96.564 204.156 96.7114 206.645 97.9329 206.814C99.1545 206.983 100.839 205.844 100.839 205.126C100.837 203.86 100.646 202.602 100.271 201.393C99.9337 201.076 96.564 204.156 96.564 204.156Z" fill="#2E006C"/>
<path d="M74.8503 230.567C74.8503 230.567 77.1881 230.735 77.9252 229.849C79.265 228.403 80.9238 227.291 82.7692 226.601C83.1342 226.504 83.4757 226.335 83.7729 226.102C84.0702 225.869 84.317 225.578 84.4983 225.246C84.6796 224.914 84.7916 224.549 84.8274 224.173C84.8632 223.797 84.8222 223.417 84.7068 223.057C84.3698 221.201 83.401 220.378 82.8324 221.285C80.8966 223.131 78.8499 224.857 76.7037 226.453C76.7037 227.487 74.7029 230.166 74.8503 230.567Z" fill="#2E006C"/>
<path d="M61.1397 235.566C61.1397 235.819 61.8768 241.473 63.7302 241.072C65.5835 240.671 65.9837 237.676 66.6366 237.591C67.3411 237.59 68.0447 237.54 68.7426 237.444C69.0916 236.854 69.3674 236.223 69.564 235.566C70.3658 235.37 71.1483 235.102 71.9018 234.765C72.6178 234.364 73.1022 232.655 71.9018 232.423C70.9401 232.453 70.0211 232.827 69.3113 233.478L66.8893 233.794L66.0047 234.933C66.0047 234.933 60.8869 233.815 61.1397 235.566Z" fill="#2E006C"/>
<path d="M104.399 246.641C104.736 247.443 93.2364 251.577 92.9205 251.493C92.6046 251.408 90.4985 249.784 89.3823 250.269C88.2661 250.755 88.8979 253.834 89.3823 254.636C89.8667 255.438 90.8987 257.378 91.5937 256.345C93.0144 255.179 94.7397 254.447 96.564 254.235C97.1959 254.235 102.524 253.919 103.409 252.948C104.293 251.978 107.621 250.354 108.737 249.383C109.853 248.413 110.275 249.067 110.169 250.522C110.064 251.978 111.791 253.265 112.76 252.864C113.729 252.463 115.435 251.008 117.435 249.953C119.436 248.898 118.825 247.843 118.362 247.843C117.899 247.843 116.403 247.506 116.003 246.873C115.603 246.24 116.804 245.164 117.857 244.764C118.91 244.363 119.815 245.755 119.815 245.755C120.238 244.536 120.417 243.246 120.342 241.958C120.194 240.017 117.204 239.848 115.919 238.646C114.634 237.444 113.813 235.819 110.907 236.072C108 236.326 106.084 235.165 105.999 232.993C105.503 231.298 104.658 229.727 103.519 228.379C102.38 227.031 100.973 225.937 99.3862 225.166C96.7957 224.512 95.5953 227.424 95.4268 227.993C95.2583 228.563 94.2895 227.993 93.6787 227.993C93.0679 227.993 90.8355 229.111 91.5726 229.596C92.3098 230.082 92.7099 230.883 91.8886 231.136C91.0672 231.389 91.2567 233.963 91.2567 233.963C92.9068 234.628 94.6032 235.17 96.3324 235.587C97.0044 235.742 97.6252 236.068 98.1344 236.534C98.6436 236.999 99.024 237.589 99.2388 238.245C99.8074 239.363 102.293 238.815 102.861 238.245C103.155 237.903 103.565 237.682 104.012 237.624C104.459 237.566 104.911 237.674 105.283 237.929C106.105 238.562 104.167 240.882 103.346 240.903C102.524 240.924 99.5547 240.903 99.323 241.789C99.0914 242.675 95.7427 246.008 95.9533 246.81C96.1639 247.611 97.5539 249.383 97.7856 249.151C98.9975 248.155 100.327 247.312 101.745 246.641C102.625 246.518 103.518 246.518 104.399 246.641Z" fill="#2E006C"/>
<path d="M92.1201 237.845C92.1201 237.845 94.9423 235.503 96.227 236.748C97.5117 237.992 98.3331 238.477 98.1857 238.857C97.7127 239.327 97.1901 239.745 96.6272 240.102L92.1201 237.845Z" fill="#2E006C"/>
<path d="M86.6655 195.824C88.4978 197.933 88.6031 201.245 90.1827 201.372C90.8481 201.497 91.535 201.443 92.1721 201.213C92.8091 200.983 93.373 200.586 93.8052 200.064C94.4159 199.093 96.3957 195.697 95.1742 194.495C93.9526 193.292 93.2576 190.276 91.1094 191.351C89.3315 192.514 87.8174 194.037 86.6655 195.824Z" fill="#2E006C"/>
<path d="M79.7998 191.942C79.8688 191.54 80.0528 191.167 80.3294 190.867C80.606 190.568 80.9634 190.355 81.3583 190.255C82.7905 189.769 85.402 189.516 84.7702 190.255C83.1986 191.043 81.5261 191.611 79.7998 191.942Z" fill="#2E006C"/>
<path d="M104.567 191.942C104.567 191.942 106.4 193.524 107.242 193.524C108.084 193.524 111.454 189.769 112.191 189.031C112.928 188.293 114.297 186.732 114.992 186.921C115.687 187.111 116.551 183.652 116.319 183.167C116.088 182.681 120.363 179.897 120.363 179.897C120.363 179.897 121.879 175.889 120.363 174.918C118.847 173.948 117.035 174.918 115.582 175.53C114.129 176.142 112.697 177.471 111.37 176.501C110.088 175.29 108.412 174.586 106.652 174.518C104.841 174.686 103.514 174.813 103.641 173.716C103.767 172.619 105.747 172.493 104.588 172.007C103.43 171.522 102.187 170.678 101.703 170.932C101.219 171.185 100.966 169.349 100.861 168.991C100.671 167.987 100.671 166.957 100.861 165.953C101.092 165.595 102.145 163.844 100.713 163.844C99.281 163.844 100.46 162.03 100.713 161.059C101.126 159.972 101.178 158.781 100.861 157.663C100.617 155.039 100.617 152.398 100.861 149.773C100.861 149.773 93.4682 138.762 93.1102 139.479C92.7521 140.196 89.235 141.905 89.3613 143.234C89.4877 144.563 91.3411 147.242 91.1305 148.444C90.9199 149.647 89.3613 149.183 89.8457 150.554C90.3301 151.925 91.2989 153.465 92.1414 155.385C92.9838 157.304 92.1414 157.705 92.1414 157.705L90.0353 153.929L87.9292 155.764C87.9292 155.764 86.834 152.727 85.6336 152.368C84.4331 152.009 82.1164 152.242 81.8847 150.786C81.6531 149.33 81.274 147.031 81.274 147.031L79.9682 145.829L79.4627 149.584C79.4627 149.584 78.9783 150.786 79.4627 151.271C79.9471 151.756 82.0111 152.853 81.5688 153.697C81.1265 154.541 79.905 154.182 79.905 154.182V156.608L81.2108 157.325C81.2108 157.325 81.0844 160.004 80.4947 159.646C79.905 159.287 76.0087 154.309 76.0087 154.309C76.0087 154.309 73.9026 155.996 74.1975 157.579C74.4923 159.161 71.586 158.422 72.7232 159.688C73.8605 160.954 75.2927 164.772 76.9354 165.616C78.5782 166.459 80.937 168.168 81.295 167.915C81.653 167.662 81.5899 164.034 82.5165 163.696C83.1165 163.471 83.7774 163.471 84.3774 163.696C84.9774 163.921 85.476 164.355 85.781 164.92C86.6234 166.354 86.4971 167.936 87.8871 167.451C89.2771 166.966 91.2147 170.067 91.2147 170.067C91.9729 171.396 88.2241 167.641 87.508 168.991C86.7919 170.341 83.7802 172.007 84.9807 172.619C86.1811 173.231 86.2865 176.838 87.7397 176.247C89.1929 175.657 91.8044 175.889 91.2147 176.606C90.625 177.323 88.7084 178.927 90.1616 179.391C91.6148 179.855 92.71 179.517 93.0681 179.77C93.4261 180.023 93.8052 182.07 93.8052 182.07L95.6796 182.323C95.9612 182.945 96.3457 183.516 96.8169 184.01C97.3013 184.369 97.7857 182.07 97.7857 182.07L98.7966 180.488C99.1652 180.337 99.5735 180.316 99.9557 180.427C100.338 180.538 100.671 180.775 100.903 181.099C101.745 182.323 101.134 184.369 102.103 184.854C103.072 185.339 104.63 182.323 104.63 182.323L105.136 178.673C105.714 179.651 106.12 180.722 106.336 181.838C106.21 182.555 109.474 180.382 110.928 181.584C112.381 182.787 104.609 192.364 104.609 192.364" fill="#2E006C"/>
<path d="M104.567 169.518C104.567 169.518 102.272 163.358 103.24 161.418C104.209 159.477 105.789 159.604 105.789 158.38C105.789 157.157 105.304 154.625 106.631 155.237C107.3 155.724 107.752 156.453 107.89 157.27C108.027 158.086 107.84 158.924 107.368 159.604C106.273 160.447 103.851 163.105 105.494 164.329C106.048 164.764 106.502 165.313 106.825 165.939C107.149 166.565 107.334 167.253 107.368 167.957C107.368 168.442 104.567 169.518 104.567 169.518Z" fill="#2E006C"/>
<path d="M106.505 171.354C106.505 171.354 107.347 173.041 107.958 173.168C108.659 173.229 109.363 173.229 110.064 173.168V171.354L107.958 170.025L106.505 171.354Z" fill="#2E006C"/>
<path d="M37.341 198.735C37.341 198.735 36.5407 196.077 38.1624 196.267C39.7841 196.456 39.9315 195.191 39.2786 194.157C38.6257 193.123 39.9315 191.562 40.4159 191.879C40.9003 192.195 41.8691 190.55 42.522 190.803C43.1749 191.056 43.3223 194.326 43.8067 194.727C44.2911 195.127 45.0914 196.836 43.8067 197.047C42.522 197.258 40.1 198.186 40.8161 198.671C41.5321 199.156 37.341 198.735 37.341 198.735Z" fill="#2E006C"/>
<path d="M52.3573 186.626C52.3573 186.626 46.039 186.457 45.4072 185.487C44.7754 184.517 45.1966 183.546 44.5016 182.407C43.8066 181.268 42.5218 180.15 43.1537 179.348C43.6 177.881 43.7644 176.342 43.6381 174.813C43.6381 174.813 45.3651 174.518 44.5016 173.21C43.6381 171.902 45.7442 170.025 45.7442 170.025C45.7442 170.025 42.2902 162.536 44.5016 163.506C46.713 164.477 47.6818 168.358 49.4509 168.21C51.22 168.063 54.4423 169.645 53.663 170.784C52.8838 171.923 52.0624 172.598 52.0624 173.21C51.9536 174.188 51.7919 175.16 51.578 176.121L48.3978 175.636L50.5039 177.893L50.3354 182.26L48.461 182.892L52.3573 186.626Z" fill="#2E006C"/>
<path d="M46.5444 162.325C47.2743 162.401 47.9806 162.627 48.6186 162.991C49.2566 163.354 49.8125 163.845 50.2511 164.434C50.9075 165.468 51.6621 166.436 52.5047 167.324C51.1324 167.165 49.8368 166.606 48.7777 165.718C47.7186 164.83 46.9422 163.65 46.5444 162.325Z" fill="#2E006C"/>
<path d="M45.5757 157.41C45.5757 157.41 50.1038 163.464 51.22 162.367C51.9832 161.672 52.8413 161.09 53.7684 160.637L52.5047 158.718L53.7684 157.41C53.7684 157.41 49.8932 155.849 49.6826 155.174C49.472 154.499 44.6069 154.457 45.5757 157.41Z" fill="#2E006C"/>
<path d="M40.8161 145.09C40.8161 145.09 39.7841 143.466 40.8161 142.981C41.8481 142.496 42.6694 139.416 43.8067 140.386C44.944 141.357 46.2287 142.939 46.5446 142.622C46.8606 142.306 49.6195 140.386 49.5353 140.872C49.451 141.357 50.9042 142.622 50.9042 142.622C50.9042 142.622 53.6422 137.897 55.2638 139.289C56.8855 140.682 57.6858 141.779 58.1702 142.053C58.6546 142.327 61.1398 143.445 61.1398 143.445L59.2865 145.069C59.2865 145.069 55.5798 141.842 55.2638 142.96C55.1542 143.863 55.2744 144.78 55.6131 145.625C55.9518 146.469 56.4982 147.214 57.2014 147.791C58.8021 149.099 58.1702 150.385 56.717 149.9C55.2638 149.415 49.451 147.474 49.6195 148.276C49.788 149.077 56.5486 151.841 56.0642 152.495C55.5798 153.149 50.2514 152.664 49.6195 152.495C48.9877 152.326 47.5134 148.951 46.5446 148.782C45.5758 148.613 42.185 147.812 42.185 147.812L40.8161 145.09Z" fill="#2E006C"/>
<path d="M58.9705 126.991C58.9705 126.991 63.33 135.724 64.7833 135.724C66.2365 135.724 70.575 128.615 70.2591 128.13C69.9432 127.645 71.5438 128.13 72.3652 128.932C73.1866 129.733 73.9658 128.615 73.9658 128.615L75.419 126.991C75.419 126.991 71.7123 122.962 73.1655 122.772C74.6187 122.582 76.8722 123.257 77.3776 122.772C77.8831 122.287 79.4837 120.663 77.3776 119.207C75.2716 117.751 74.3238 113.891 75.1242 113.237L79.8207 109.524L82.348 110.326C82.348 110.326 77.2092 113.575 78.0306 115.178C78.8519 116.781 82.348 121 82.348 120.346C82.348 119.692 85.6967 120.198 86.6866 119.861C87.2793 119.511 87.7356 118.97 87.9805 118.326C88.2254 117.682 88.2445 116.973 88.0345 116.317C87.3816 115.347 85.9284 113.406 85.9284 113.406L91.1304 113.554C91.1304 113.554 91.9939 108.069 91.1304 107.099C90.2669 106.128 83.1905 107.099 83.1905 107.099L88.8348 104.187C88.8348 104.187 90.4986 103.069 91.5306 103.555C92.5625 104.04 93.6367 102.584 93.1944 100.96C92.7521 99.3357 92.4573 98.0489 93.1944 97.8801C93.9315 97.7114 93.1944 95.623 93.1944 95.623C93.1944 95.623 95.0056 93.5135 95.827 93.851C96.6484 94.1885 97.0907 90.6235 96.6273 89.9696C96.164 89.3156 100.84 86.2569 100.84 86.2569C100.84 86.2569 100.587 79.4643 101.556 79.3167C102.524 79.169 98.1648 71.2373 97.6804 71.8702C97.196 72.503 82.327 85.9193 82.327 85.9193L78.6413 86.2569C78.6413 86.2569 73.4814 87.8601 73.6499 89.6531C73.7477 91.7043 74.3558 93.6984 75.419 95.4542C76.3878 96.4457 77.841 98.5341 77.5251 99.188C77.2092 99.842 72.997 97.5637 72.3652 98.0489C71.6727 99.8862 71.2334 101.809 71.0594 103.766L68.6374 101.656L67.8371 97.9223L68.0056 94.8636C68.0056 94.8636 63.3301 92.1212 63.3301 93.8932C63.2672 95.4629 63.1054 97.027 62.8457 98.5763C62.8457 98.5763 61.3714 97.7747 61.1397 98.8927C60.9081 100.011 58.0017 104.082 59.6233 105.685C61.245 107.288 65.7521 110.706 65.7521 110.706C65.7521 110.706 62.3613 110.853 62.1928 111.655C62.0243 112.457 58.7809 116.359 61.1397 116.844C63.6813 117.387 66.1856 118.091 68.6374 118.954C69.1518 119.356 69.566 119.871 69.8474 120.461C70.1288 121.05 70.2698 121.697 70.2591 122.35C70.0906 122.835 66.5524 121.865 66.5524 121.865L66.2365 124.291C66.2365 124.291 63.3301 125.746 63.3301 126.886C63.3301 128.025 58.9705 126.991 58.9705 126.991Z" fill="#2E006C"/>
<path d="M61.1396 123.278C61.1396 123.278 62.8456 120.051 63.9618 120.22C65.078 120.388 63.9618 122.624 63.9618 122.624L61.1396 123.278Z" fill="#2E006C"/>
<path d="M57.1802 110.031L58.9703 113.596V111.803L57.1802 110.031Z" fill="#2E006C"/>
<path d="M69.7747 92.7542L71.3753 96.4668H73.3129L72.3441 94.6105L69.7747 92.7542Z" fill="#2E006C"/>
<path d="M95.8901 97.5848L97.9962 98.8927L101.682 96.4668L100.818 93.5557L95.8901 97.5848Z" fill="#2E006C"/>
<path d="M231.964 54.6569C231.964 54.6569 231.964 57.4414 233.544 58.4117C234.197 58.9351 235.003 59.2313 235.84 59.2555C235.84 59.2555 234.26 55.0366 235.102 54.6569C235.945 54.2772 236.45 52.5474 236.682 52.1044C236.914 51.6614 236.808 49.573 236.071 49.573C235.334 49.573 231.964 50.6488 231.964 51.2606V54.6569Z" fill="#2E006C"/>
<path d="M227.858 51.0073C228.439 51.0141 229.002 50.8035 229.437 50.4167C229.922 49.8049 229.437 48.708 229.437 48.708L227.858 49.8682V51.0073Z" fill="#2E006C"/>
<path d="M230.406 45.7969C230.406 45.7969 230.659 47.9064 231.143 47.7376C231.703 47.6716 232.268 47.6716 232.828 47.7376C232.828 47.7376 231.733 43.9827 230.406 45.7969Z" fill="#2E006C"/>
<path d="M224.72 51.0074C224.72 51.0074 221.792 50.0581 221.94 47.7166C222.087 45.3751 219.833 42.9914 219.033 43.1179C218.233 43.2445 218.317 39.7217 220.36 39.2365C221.146 38.9781 221.995 38.9802 222.78 39.2423C223.565 39.5044 224.245 40.0127 224.72 40.692C225.815 42.021 227.015 43.8352 227.858 44.0883C228.7 44.3414 229.416 45.2907 228.763 45.9025C228.11 46.5142 224.72 51.0074 224.72 51.0074Z" fill="#2E006C"/>
<path d="M222.424 36.7261C221.137 35.011 220.343 32.9756 220.128 30.8406C220.486 29.7437 222.382 28.7311 221.245 27.1912C220.107 25.6513 219.876 24.5333 222.424 22.5925C224.972 20.6518 225.204 19.576 227.015 20.4831C228.827 21.3901 228.047 22.5925 229.648 22.5925C231.249 22.5925 233.186 23.6895 232.828 25.145C232.47 26.6006 232.344 27.6764 233.797 27.2545C235.25 26.8326 235.376 28.478 235.376 28.478C235.376 28.478 231.607 30.1656 231.607 30.9039C231.607 31.6422 231.607 34.5322 232.217 34.4057C232.828 34.2791 234.155 32.4649 234.639 32.2962C235.518 32.4259 236.375 32.6743 237.188 33.0345L239.294 32.6759L240.515 37.2746C240.515 37.2746 242.327 39.6161 243.295 39.0465C244.264 38.477 245.654 35.0596 246.855 35.0596C248.055 35.0596 248.687 36.7472 248.687 36.7472L247.718 38.3293C247.718 38.3293 244.917 39.6583 244.917 40.7552C244.917 41.8522 242.621 42.0842 241.168 41.3459C239.715 40.6076 237.314 39.0465 237.061 37.9707C236.809 36.8949 231.249 36.8738 230.406 38.4559C230.254 38.7885 230.001 39.0645 229.683 39.2441C229.365 39.4237 228.999 39.4977 228.636 39.4555C228.273 39.4133 227.933 39.2571 227.665 39.0093C227.396 38.7615 227.213 38.4348 227.142 38.0762C226.91 36.5152 225.562 34.4479 226.657 33.8572C227.752 33.2665 227.373 29.9757 226.91 30.4609C226.109 30.9974 225.255 31.4498 224.362 31.811C224.362 31.811 224.593 36.8316 222.424 36.7261Z" fill="#2E006C"/>
<path d="M231.017 17.8042C230.881 18.3121 230.866 18.845 230.974 19.3596C231.082 19.8743 231.309 20.3564 231.637 20.7671C231.965 21.1777 232.384 21.5053 232.862 21.7235C233.34 21.9417 233.862 22.0443 234.387 22.0231C238.746 22.5083 236.324 20.6942 236.324 20.6942V17.8042C235.111 17.4431 233.939 16.9552 232.828 16.3486C232.323 15.8634 231.017 17.8042 231.017 17.8042Z" fill="#2E006C"/>
<path d="M232.828 6.18073C232.828 6.18073 232.428 9.32387 233.965 10.3997C235.503 11.4755 236.345 11.0115 236.998 10.3997C237.2 10.2346 237.437 10.1186 237.69 10.0606C237.944 10.0027 238.208 10.0045 238.461 10.0658C238.714 10.1271 238.949 10.2463 239.149 10.414C239.348 10.5818 239.506 10.7935 239.61 11.0326C240.094 12.2139 241.295 13.3108 241.716 12.4459C242.137 11.581 240.873 9.5981 240.747 9.45044C240.621 9.30277 239.041 8.33241 238.641 7.61519C238.241 6.89796 235.271 6.15964 235.271 6.15964C235.271 6.15964 232.87 5.52679 232.828 6.18073Z" fill="#2E006C"/>
<path d="M244.201 16.2853C244.003 15.8368 243.901 15.3518 243.901 14.8614C243.901 14.371 244.003 13.886 244.201 13.4375C244.917 12.3617 243.948 11.9819 244.917 12.3617C245.886 12.7414 247.023 13.0789 246.265 14.7876C245.507 16.4962 243.99 18.4159 245.191 19.1964C246.391 19.9769 245.696 21.6856 245.191 21.4535C244.176 20.3971 243.246 19.2614 242.411 18.0573L244.201 16.2853Z" fill="#2E006C"/>
<path d="M248.687 16.8547V13.9647L251.214 11.3067C251.214 11.3067 252.794 6.9401 253.762 7.08776C254.731 7.23542 253.152 10.2309 253.762 10.3575C254.373 10.484 256.542 8.90191 257.153 8.90191C257.764 8.90191 259.449 5.96973 259.449 5.96973L260.418 8.29017C260.418 8.29017 256.774 10.927 257.259 12.2771C257.743 13.6272 254.542 12.8467 254.542 12.8467C254.542 12.8467 252.309 13.2686 252.436 13.7537C252.562 14.2389 248.687 16.8547 248.687 16.8547Z" fill="#2E006C"/>
<path d="M248.687 20.2931C248.687 20.2931 251.951 18.479 252.309 21.0315C252.667 23.5839 253.889 21.7487 254.542 23.1409C255.195 24.5332 255.7 26.2841 255.089 26.052C254.479 25.82 252.815 25.0817 252.014 24.8285C251.214 24.5754 249.529 25.5669 249.529 25.5669C249.529 25.5669 248.076 23.4574 248.687 23.4574C249.404 23.3484 250.109 23.1718 250.793 22.93L248.687 20.2931Z" fill="#2E006C"/>
<path d="M238.746 29.1953C238.746 29.1953 239.968 27.0858 240.326 27.2546C240.843 27.319 241.367 27.319 241.884 27.2546L242.979 25.4404V30.2923L240.873 29.8071L238.746 29.1953Z" fill="#2E006C"/>
<path d="M1.62171 402.11C1.62171 402.11 -2.00077 404.051 1.62171 407.447C5.24418 410.843 7.43451 409.05 8.63498 412.257C9.83545 415.463 10.0882 418.585 13.2263 418.838C16.3643 419.091 13.479 423.69 16.6171 423.943C19.6116 424.154 22.4768 425.247 24.8519 427.086C25.8207 428.289 26.5367 430.968 27.2739 430.968C28.011 430.968 31.486 431.685 32.3495 430.968C33.386 430.503 34.5174 430.289 35.6517 430.344C36.7861 430.399 37.8916 430.721 38.8784 431.284C40.5843 432.655 42.0375 433.795 42.5219 431.284C43.0063 428.774 39.8472 425.399 42.5219 425.631C44.3412 425.708 46.1547 425.377 47.8293 424.66C47.4499 423.395 47.4499 422.045 47.8293 420.779C48.5664 419.577 43.6171 415.442 45.4073 415.442C47.1974 415.442 48.5664 413.754 49.2825 413.333C49.9985 412.911 52.1889 406.793 54.1265 407.004C56.0641 407.215 58.9705 412.826 61.3925 413.565C63.8145 414.303 63.0774 416.096 63.0774 417.488C63.0774 418.88 60.9713 421.56 63.0774 422.277C65.1834 422.994 68.3005 426.39 69.0165 426.158C69.7326 425.926 70.4697 424.703 71.1226 425.188C71.7755 425.673 73.2287 427.297 72.5758 428.584C71.9229 429.871 70.4697 435.609 71.1226 436.094C71.7755 436.579 73.5446 438.52 74.5134 438.035C75.4822 437.549 80.5579 435.609 80.5579 435.609L83.2115 436.579L86.6024 434.153C86.6024 434.153 92.4152 433.183 93.6156 434.638C94.8161 436.094 98.4596 436.094 98.7124 436.748C98.9941 437.027 99.3348 437.24 99.7093 437.37C100.084 437.5 100.483 437.544 100.877 437.5C101.271 437.455 101.65 437.323 101.986 437.113C102.322 436.902 102.607 436.619 102.819 436.284C104.02 434.343 108.632 425.125 109.137 424.154C109.643 423.184 112.76 417.699 116.151 420.083C119.542 422.467 121.479 423.268 121.711 420.083C121.943 416.898 127.524 413.501 126.787 410.822C126.049 408.143 129.693 400.887 128.492 400.401C127.292 399.916 126.07 399.684 126.555 397.005C127.039 394.326 129.208 393.609 125.818 391.921C122.427 390.234 122.448 388.778 122.448 387.808C122.448 386.837 119.057 384.897 118.236 385.698C117.414 386.5 112.676 387.639 112.191 388.609C111.707 389.58 107.116 391.035 107.116 391.035C107.116 391.035 103.472 385.213 107.116 384.011C110.759 382.808 113.434 382.555 113.876 381.353C114.318 380.15 118.489 376.733 117.267 375.024C116.045 373.316 114.845 370.658 114.129 371.143C113.413 371.628 113.392 374.771 114.129 375.509C114.866 376.248 109.538 373.569 109.538 373.569V368.358L102.756 360.363V356.018C101.556 355.28 98.6492 353.908 98.6492 353.908L100.102 347.369C100.102 347.369 96.5431 341.315 95.8902 342.032C95.2373 342.749 90.8777 342.032 90.8777 342.032C90.8777 342.032 84.3488 338.952 83.6328 339.437C82.9167 339.922 78.7888 337.644 78.5571 339.437C78.3254 341.23 73.7131 343.129 72.7443 343.129C70.6752 344.121 68.7252 345.346 66.9315 346.778L64.4252 345.555L60.6343 346.525L57.2645 344.099C57.2645 344.099 53.3893 349.921 54.3582 353.065C55.327 356.208 54.1054 355.744 51.9361 355.976C50.1624 356.106 48.3815 356.106 46.6077 355.976C45.6389 355.976 44.6702 355.005 43.933 355.005C43.1959 355.005 39.5945 354.52 39.1101 355.976C38.6257 357.431 35.7193 361.545 36.4353 363.739C37.1514 365.932 32.0968 367.135 34.0133 370.51C35.9299 373.885 30.1381 376.142 30.1381 376.796C30.1381 377.45 30.6225 380.678 30.6225 380.678L26.7473 380.193C26.7473 380.193 23.3565 381.395 23.1038 382.302C22.8511 383.209 18.7653 383.504 18.7653 383.504L15.1217 380.614L12.4681 384.243C12.4681 384.243 13.6685 387.955 14.5742 388.166C15.7903 388.229 16.9648 388.631 17.965 389.327L19.1865 390.297L19.4182 393.208L16.8698 395.782C16.8698 395.782 18.8074 397.237 19.5235 397.722C20.2395 398.208 19.7762 398.925 21.4611 401.351C22.8329 403.223 23.9715 405.256 24.8519 407.405C25.0835 408.375 26.7895 412.404 25.0835 412.215C23.3776 412.025 20.745 409.114 20.0079 407.996C19.2707 406.878 15.4166 402.427 13.479 402.912C11.4359 403.043 9.38621 402.793 7.43451 402.173C7.43451 402.173 7.91891 398.06 10.5726 398.06C13.2263 398.06 8.88772 395.402 8.88772 395.402L5.98131 399.03L1.62171 402.11Z" fill="#2E006C"/>
<path d="M258.354 0C258.354 0 257.259 2.42591 258.354 2.78452C259.449 3.14314 260.46 4.1135 260.46 3.50175C260.46 2.89 259.723 1.39226 260.46 0.970366C261.197 0.548468 258.354 0 258.354 0Z" fill="#2E006C"/>
</svg>
