<svg width="24" height="25" viewBox="0 0 24 25" fill="none" xmlns="http://www.w3.org/2000/svg">
<g clip-path="url(#clip0_111_615)">
<path d="M22 17.625V20.75C22.0011 21.0401 21.9441 21.3273 21.8325 21.5931C21.7209 21.8589 21.5573 22.0975 21.3521 22.2936C21.1469 22.4898 20.9046 22.6391 20.6407 22.732C20.3769 22.8249 20.0974 22.8595 19.82 22.8334C16.7428 22.4851 13.787 21.3898 11.19 19.6354C8.77382 18.0361 6.72533 15.9023 5.18999 13.3854C3.49997 10.6679 2.44824 7.57397 2.11999 4.35419C2.095 4.06613 2.12787 3.77581 2.21649 3.50171C2.30512 3.22761 2.44757 2.97574 2.63476 2.76212C2.82196 2.54851 3.0498 2.37784 3.30379 2.26098C3.55777 2.14412 3.83233 2.08363 4.10999 2.08335H7.11C7.5953 2.07838 8.06579 2.25739 8.43376 2.58703C8.80173 2.91667 9.04207 3.37444 9.10999 3.87502C9.23662 4.87509 9.47145 5.85703 9.81 6.8021C9.94454 7.17494 9.97366 7.58014 9.8939 7.96969C9.81415 8.35923 9.62886 8.7168 9.35999 9.00002L8.09 10.3229C9.51355 12.9308 11.5864 15.0901 14.09 16.5729L15.36 15.25C15.6319 14.97 15.9751 14.7769 16.3491 14.6939C16.7231 14.6108 17.1121 14.6411 17.47 14.7813C18.3773 15.1339 19.3199 15.3785 20.28 15.5104C20.7658 15.5818 21.2094 15.8367 21.5265 16.2266C21.8437 16.6165 22.0122 17.1142 22 17.625Z" stroke="#6FD4E2" stroke-width="3" stroke-linecap="round" stroke-linejoin="round"/>
</g>
<defs>
<clipPath id="clip0_111_615">
<rect width="24" height="25" fill="white"/>
</clipPath>
</defs>
</svg>
