<svg width="61" height="56" viewBox="0 0 61 56" fill="none" xmlns="http://www.w3.org/2000/svg">
<path d="M22.818 0.75999L13.138 41.46L11.378 32C14.898 32 17.758 33.1 19.958 35.3C22.158 37.3533 23.258 40.14 23.258 43.66C23.258 47.18 22.158 50.04 19.958 52.24C17.758 54.44 15.0447 55.54 11.818 55.54C8.29805 55.54 5.43805 54.44 3.23805 52.24C1.18471 49.8933 0.158048 47.0333 0.158048 43.66C0.158048 42.34 0.231381 41.1667 0.378047 40.14C0.524714 39.1133 0.818048 37.8667 1.25805 36.4C1.69805 34.9333 2.28471 33.1733 3.01805 31.12L12.258 0.75999H22.818ZM60.218 0.75999L50.538 41.46L48.7781 32C52.298 32 55.158 33.1 57.3581 35.3C59.558 37.3533 60.658 40.14 60.658 43.66C60.658 47.18 59.558 50.04 57.3581 52.24C55.158 54.44 52.4447 55.54 49.2181 55.54C45.698 55.54 42.838 54.44 40.6381 52.24C38.5847 49.8933 37.558 47.0333 37.558 43.66C37.558 42.34 37.6314 41.1667 37.778 40.14C37.9247 39.1133 38.218 37.8667 38.6581 36.4C39.098 34.9333 39.6847 33.1733 40.4181 31.12L49.6581 0.75999H60.218Z" fill="#2E006C"/>
</svg>
